%TF.GenerationSoftware,KiCad,Pcbnew,10.0.0*%
%TF.CreationDate,2026-04-26T15:23:22-05:00*%
%TF.ProjectId,Atmega328_Coursera,41746d65-6761-4333-9238-5f436f757273,rev?*%
%TF.SameCoordinates,Original*%
%TF.FileFunction,Drillmap*%
%TF.FilePolarity,Positive*%
%FSLAX45Y45*%
G04 Gerber Fmt 4.5, Leading zero omitted, Abs format (unit mm)*
G04 Created by KiCad (PCBNEW 10.0.0) date 2026-04-26 15:23:22*
%MOMM*%
%LPD*%
G01*
G04 APERTURE LIST*
%ADD10C,0.050000*%
%ADD11C,0.200000*%
G04 APERTURE END LIST*
D10*
X9950000Y-5350000D02*
X15750000Y-5350000D01*
X15750000Y-9500000D01*
X9950000Y-9500000D01*
X9950000Y-5350000D01*
D11*
X10208277Y-9813984D02*
X10208277Y-9613984D01*
X10208277Y-9613984D02*
X10255896Y-9613984D01*
X10255896Y-9613984D02*
X10284467Y-9623508D01*
X10284467Y-9623508D02*
X10303515Y-9642555D01*
X10303515Y-9642555D02*
X10313039Y-9661603D01*
X10313039Y-9661603D02*
X10322563Y-9699698D01*
X10322563Y-9699698D02*
X10322563Y-9728270D01*
X10322563Y-9728270D02*
X10313039Y-9766365D01*
X10313039Y-9766365D02*
X10303515Y-9785412D01*
X10303515Y-9785412D02*
X10284467Y-9804460D01*
X10284467Y-9804460D02*
X10255896Y-9813984D01*
X10255896Y-9813984D02*
X10208277Y-9813984D01*
X10408277Y-9813984D02*
X10408277Y-9680650D01*
X10408277Y-9718746D02*
X10417801Y-9699698D01*
X10417801Y-9699698D02*
X10427324Y-9690174D01*
X10427324Y-9690174D02*
X10446372Y-9680650D01*
X10446372Y-9680650D02*
X10465420Y-9680650D01*
X10532086Y-9813984D02*
X10532086Y-9680650D01*
X10532086Y-9613984D02*
X10522563Y-9623508D01*
X10522563Y-9623508D02*
X10532086Y-9633031D01*
X10532086Y-9633031D02*
X10541610Y-9623508D01*
X10541610Y-9623508D02*
X10532086Y-9613984D01*
X10532086Y-9613984D02*
X10532086Y-9633031D01*
X10655896Y-9813984D02*
X10636848Y-9804460D01*
X10636848Y-9804460D02*
X10627324Y-9785412D01*
X10627324Y-9785412D02*
X10627324Y-9613984D01*
X10760658Y-9813984D02*
X10741610Y-9804460D01*
X10741610Y-9804460D02*
X10732086Y-9785412D01*
X10732086Y-9785412D02*
X10732086Y-9613984D01*
X10989229Y-9813984D02*
X10989229Y-9613984D01*
X10989229Y-9613984D02*
X11055896Y-9756841D01*
X11055896Y-9756841D02*
X11122563Y-9613984D01*
X11122563Y-9613984D02*
X11122563Y-9813984D01*
X11303515Y-9813984D02*
X11303515Y-9709222D01*
X11303515Y-9709222D02*
X11293991Y-9690174D01*
X11293991Y-9690174D02*
X11274943Y-9680650D01*
X11274943Y-9680650D02*
X11236848Y-9680650D01*
X11236848Y-9680650D02*
X11217801Y-9690174D01*
X11303515Y-9804460D02*
X11284467Y-9813984D01*
X11284467Y-9813984D02*
X11236848Y-9813984D01*
X11236848Y-9813984D02*
X11217801Y-9804460D01*
X11217801Y-9804460D02*
X11208277Y-9785412D01*
X11208277Y-9785412D02*
X11208277Y-9766365D01*
X11208277Y-9766365D02*
X11217801Y-9747317D01*
X11217801Y-9747317D02*
X11236848Y-9737793D01*
X11236848Y-9737793D02*
X11284467Y-9737793D01*
X11284467Y-9737793D02*
X11303515Y-9728270D01*
X11398753Y-9680650D02*
X11398753Y-9880650D01*
X11398753Y-9690174D02*
X11417801Y-9680650D01*
X11417801Y-9680650D02*
X11455896Y-9680650D01*
X11455896Y-9680650D02*
X11474943Y-9690174D01*
X11474943Y-9690174D02*
X11484467Y-9699698D01*
X11484467Y-9699698D02*
X11493991Y-9718746D01*
X11493991Y-9718746D02*
X11493991Y-9775889D01*
X11493991Y-9775889D02*
X11484467Y-9794936D01*
X11484467Y-9794936D02*
X11474943Y-9804460D01*
X11474943Y-9804460D02*
X11455896Y-9813984D01*
X11455896Y-9813984D02*
X11417801Y-9813984D01*
X11417801Y-9813984D02*
X11398753Y-9804460D01*
X11579705Y-9794936D02*
X11589229Y-9804460D01*
X11589229Y-9804460D02*
X11579705Y-9813984D01*
X11579705Y-9813984D02*
X11570182Y-9804460D01*
X11570182Y-9804460D02*
X11579705Y-9794936D01*
X11579705Y-9794936D02*
X11579705Y-9813984D01*
X11579705Y-9690174D02*
X11589229Y-9699698D01*
X11589229Y-9699698D02*
X11579705Y-9709222D01*
X11579705Y-9709222D02*
X11570182Y-9699698D01*
X11570182Y-9699698D02*
X11579705Y-9690174D01*
X11579705Y-9690174D02*
X11579705Y-9709222D01*
M02*
