%TF.GenerationSoftware,KiCad,Pcbnew,10.0.0*%
%TF.CreationDate,2026-04-26T15:23:30-05:00*%
%TF.ProjectId,Atmega328_Coursera,41746d65-6761-4333-9238-5f436f757273,rev?*%
%TF.SameCoordinates,Original*%
%TF.FileFunction,Copper,L1,Top*%
%TF.FilePolarity,Positive*%
%FSLAX46Y46*%
G04 Gerber Fmt 4.6, Leading zero omitted, Abs format (unit mm)*
G04 Created by KiCad (PCBNEW 10.0.0) date 2026-04-26 15:23:30*
%MOMM*%
%LPD*%
G01*
G04 APERTURE LIST*
G04 Aperture macros list*
%AMRoundRect*
0 Rectangle with rounded corners*
0 $1 Rounding radius*
0 $2 $3 $4 $5 $6 $7 $8 $9 X,Y pos of 4 corners*
0 Add a 4 corners polygon primitive as box body*
4,1,4,$2,$3,$4,$5,$6,$7,$8,$9,$2,$3,0*
0 Add four circle primitives for the rounded corners*
1,1,$1+$1,$2,$3*
1,1,$1+$1,$4,$5*
1,1,$1+$1,$6,$7*
1,1,$1+$1,$8,$9*
0 Add four rect primitives between the rounded corners*
20,1,$1+$1,$2,$3,$4,$5,0*
20,1,$1+$1,$4,$5,$6,$7,0*
20,1,$1+$1,$6,$7,$8,$9,0*
20,1,$1+$1,$8,$9,$2,$3,0*%
G04 Aperture macros list end*
%TA.AperFunction,SMDPad,CuDef*%
%ADD10RoundRect,0.250000X0.262500X0.450000X-0.262500X0.450000X-0.262500X-0.450000X0.262500X-0.450000X0*%
%TD*%
%TA.AperFunction,SMDPad,CuDef*%
%ADD11RoundRect,0.375000X-0.375000X0.625000X-0.375000X-0.625000X0.375000X-0.625000X0.375000X0.625000X0*%
%TD*%
%TA.AperFunction,SMDPad,CuDef*%
%ADD12RoundRect,0.500000X-1.400000X0.500000X-1.400000X-0.500000X1.400000X-0.500000X1.400000X0.500000X0*%
%TD*%
%TA.AperFunction,SMDPad,CuDef*%
%ADD13RoundRect,0.243750X0.243750X0.456250X-0.243750X0.456250X-0.243750X-0.456250X0.243750X-0.456250X0*%
%TD*%
%TA.AperFunction,SMDPad,CuDef*%
%ADD14RoundRect,0.250000X-0.650000X1.000000X-0.650000X-1.000000X0.650000X-1.000000X0.650000X1.000000X0*%
%TD*%
%TA.AperFunction,SMDPad,CuDef*%
%ADD15RoundRect,0.250000X-1.250000X0.375000X-1.250000X-0.375000X1.250000X-0.375000X1.250000X0.375000X0*%
%TD*%
%TA.AperFunction,ComponentPad*%
%ADD16C,3.000000*%
%TD*%
%TA.AperFunction,ComponentPad*%
%ADD17C,3.600000*%
%TD*%
%TA.AperFunction,ConnectorPad*%
%ADD18C,6.400000*%
%TD*%
%TA.AperFunction,SMDPad,CuDef*%
%ADD19RoundRect,0.250000X-0.262500X-0.450000X0.262500X-0.450000X0.262500X0.450000X-0.262500X0.450000X0*%
%TD*%
%TA.AperFunction,SMDPad,CuDef*%
%ADD20RoundRect,0.250000X-2.000000X-0.750000X2.000000X-0.750000X2.000000X0.750000X-2.000000X0.750000X0*%
%TD*%
%TA.AperFunction,ComponentPad*%
%ADD21R,1.700000X1.700000*%
%TD*%
%TA.AperFunction,ComponentPad*%
%ADD22C,1.700000*%
%TD*%
%TA.AperFunction,SMDPad,CuDef*%
%ADD23RoundRect,0.137500X-0.137500X0.600000X-0.137500X-0.600000X0.137500X-0.600000X0.137500X0.600000X0*%
%TD*%
%TA.AperFunction,SMDPad,CuDef*%
%ADD24RoundRect,0.137500X-0.600000X0.137500X-0.600000X-0.137500X0.600000X-0.137500X0.600000X0.137500X0*%
%TD*%
%TA.AperFunction,SMDPad,CuDef*%
%ADD25RoundRect,0.250000X0.250000X0.475000X-0.250000X0.475000X-0.250000X-0.475000X0.250000X-0.475000X0*%
%TD*%
%TA.AperFunction,SMDPad,CuDef*%
%ADD26RoundRect,0.250000X1.100000X-0.325000X1.100000X0.325000X-1.100000X0.325000X-1.100000X-0.325000X0*%
%TD*%
%TA.AperFunction,SMDPad,CuDef*%
%ADD27RoundRect,0.250000X-0.650000X0.325000X-0.650000X-0.325000X0.650000X-0.325000X0.650000X0.325000X0*%
%TD*%
%TA.AperFunction,SMDPad,CuDef*%
%ADD28RoundRect,0.250000X0.475000X-0.250000X0.475000X0.250000X-0.475000X0.250000X-0.475000X-0.250000X0*%
%TD*%
%TA.AperFunction,SMDPad,CuDef*%
%ADD29RoundRect,0.250000X-0.325000X-1.100000X0.325000X-1.100000X0.325000X1.100000X-0.325000X1.100000X0*%
%TD*%
%TA.AperFunction,ViaPad*%
%ADD30C,0.600000*%
%TD*%
%TA.AperFunction,Conductor*%
%ADD31C,0.200000*%
%TD*%
G04 APERTURE END LIST*
D10*
%TO.P,R5,1*%
%TO.N,Net-(U1-PD7)*%
X124864500Y-73152000D03*
%TO.P,R5,2*%
%TO.N,Net-(D1-A)*%
X123039500Y-73152000D03*
%TD*%
D11*
%TO.P,U2,1,ADJ_1*%
%TO.N,GNDD*%
X120000000Y-62500000D03*
%TO.P,U2,2,VO_2*%
%TO.N,3V3D*%
X117700000Y-62500000D03*
D12*
X117700000Y-68800000D03*
D11*
%TO.P,U2,3,VI_3*%
%TO.N,5VD*%
X115400000Y-62500000D03*
%TD*%
D13*
%TO.P,D1,1,K_1*%
%TO.N,GNDD*%
X124889500Y-70866000D03*
%TO.P,D1,2,A_2*%
%TO.N,Net-(D1-A)*%
X123014500Y-70866000D03*
%TD*%
D14*
%TO.P,D3,1,K_1*%
%TO.N,/NET_D-*%
X119126000Y-82614000D03*
%TO.P,D3,2,A_2*%
%TO.N,GNDD*%
X119126000Y-86614000D03*
%TD*%
D15*
%TO.P,J1,1,VBUS_1*%
%TO.N,5VD*%
X107680000Y-71500000D03*
%TO.P,J1,2,D-_2*%
%TO.N,/NET_D-*%
X107680000Y-74000000D03*
%TO.P,J1,3,D+_3*%
%TO.N,/NET_D+*%
X107680000Y-76000000D03*
%TO.P,J1,4,GND_4*%
%TO.N,GNDD*%
X107680000Y-78500000D03*
D16*
%TO.P,J1,SH,Shield_SH*%
X104000000Y-68430000D03*
X104000000Y-81570000D03*
%TD*%
D17*
%TO.P,H1,1,1_1*%
%TO.N,GNDD*%
X103000000Y-57000000D03*
D18*
X103000000Y-57000000D03*
%TD*%
D17*
%TO.P,H3,1,1_1*%
%TO.N,GNDD*%
X154000000Y-91500000D03*
D18*
X154000000Y-91500000D03*
%TD*%
D19*
%TO.P,R1,1*%
%TO.N,/NET_D-*%
X112500000Y-73995991D03*
%TO.P,R1,2*%
%TO.N,USBD-*%
X114325000Y-73995991D03*
%TD*%
D20*
%TO.P,Y1,1,1_1*%
%TO.N,Net-(U1-XTAL2{slash}PB7)*%
X130500000Y-65500000D03*
%TO.P,Y1,2,2_2*%
%TO.N,Net-(U1-XTAL1{slash}PB6)*%
X139000000Y-65500000D03*
%TD*%
D21*
%TO.P,J2,1,Pin_1_1*%
%TO.N,/PB2*%
X153416000Y-85852000D03*
D22*
%TO.P,J2,2,Pin_2_2*%
%TO.N,/PB3*%
X153416000Y-83312000D03*
%TO.P,J2,3,Pin_3_3*%
%TO.N,/PB4*%
X153416000Y-80772000D03*
%TO.P,J2,4,Pin_4_4*%
%TO.N,/PB5*%
X153416000Y-78232000D03*
%TO.P,J2,5,Pin_5_5*%
%TO.N,/PD0*%
X153416000Y-75692000D03*
%TO.P,J2,6,Pin_6_6*%
%TO.N,/PD1*%
X153416000Y-73152000D03*
%TO.P,J2,7,Pin_7_7*%
%TO.N,/PD2*%
X153416000Y-70612000D03*
%TO.P,J2,8,Pin_8_8*%
%TO.N,/PD3*%
X153416000Y-68072000D03*
%TO.P,J2,9,Pin_9_9*%
%TO.N,/PD4*%
X153416000Y-65532000D03*
%TO.P,J2,10,Pin_10_10*%
%TO.N,/PD5*%
X153416000Y-62992000D03*
%TD*%
D19*
%TO.P,R3,1*%
%TO.N,/NET_D+*%
X112489283Y-76000000D03*
%TO.P,R3,2*%
%TO.N,USBD+*%
X114314283Y-76000000D03*
%TD*%
D10*
%TO.P,R4,1*%
%TO.N,Net-(U1-~{RESET}{slash}PC6)*%
X122428000Y-76708000D03*
%TO.P,R4,2*%
%TO.N,5VD*%
X120603000Y-76708000D03*
%TD*%
D23*
%TO.P,U1,1,PD3_1*%
%TO.N,/PD3*%
X134800000Y-70837500D03*
%TO.P,U1,2,PD4_2*%
%TO.N,/PD4*%
X134000000Y-70837500D03*
%TO.P,U1,3,GND_3*%
%TO.N,GNDD*%
X133200000Y-70837500D03*
%TO.P,U1,4,VCC_4*%
%TO.N,3V3D*%
X132400000Y-70837500D03*
%TO.P,U1,5,GND_5*%
%TO.N,GNDD*%
X131600000Y-70837500D03*
%TO.P,U1,6,VCC_6*%
%TO.N,3V3D*%
X130800000Y-70837500D03*
%TO.P,U1,7,XTAL1/PB6_7*%
%TO.N,Net-(U1-XTAL1{slash}PB6)*%
X130000000Y-70837500D03*
%TO.P,U1,8,XTAL2/PB7_8*%
%TO.N,Net-(U1-XTAL2{slash}PB7)*%
X129200000Y-70837500D03*
D24*
%TO.P,U1,9,PD5_9*%
%TO.N,/PD5*%
X127837500Y-72200000D03*
%TO.P,U1,10,PD6_10*%
%TO.N,/PD6*%
X127837500Y-73000000D03*
%TO.P,U1,11,PD7_11*%
%TO.N,Net-(U1-PD7)*%
X127837500Y-73800000D03*
%TO.P,U1,12,PB0_12*%
%TO.N,USBD-*%
X127837500Y-74600000D03*
%TO.P,U1,13,PB1_13*%
%TO.N,USBD+*%
X127837500Y-75400000D03*
%TO.P,U1,14,PB2_14*%
%TO.N,/PB2*%
X127837500Y-76200000D03*
%TO.P,U1,15,PB3_15*%
%TO.N,/PB3*%
X127837500Y-77000000D03*
%TO.P,U1,16,PB4_16*%
%TO.N,/PB4*%
X127837500Y-77800000D03*
D23*
%TO.P,U1,17,PB5_17*%
%TO.N,/PB5*%
X129200000Y-79162500D03*
%TO.P,U1,18,AVCC_18*%
%TO.N,3V3D*%
X130000000Y-79162500D03*
%TO.P,U1,19,ADC6_19*%
%TO.N,/ADC6*%
X130800000Y-79162500D03*
%TO.P,U1,20,AREF_20*%
%TO.N,/AREF*%
X131600000Y-79162500D03*
%TO.P,U1,21,GND_21*%
%TO.N,GNDD*%
X132400000Y-79162500D03*
%TO.P,U1,22,ADC7_22*%
%TO.N,/ADC7*%
X133200000Y-79162500D03*
%TO.P,U1,23,PC0_23*%
%TO.N,/PC0*%
X134000000Y-79162500D03*
%TO.P,U1,24,PC1_24*%
%TO.N,/PC1*%
X134800000Y-79162500D03*
D24*
%TO.P,U1,25,PC2_25*%
%TO.N,/PC2*%
X136162500Y-77800000D03*
%TO.P,U1,26,PC3_26*%
%TO.N,/PC3*%
X136162500Y-77000000D03*
%TO.P,U1,27,PC4_27*%
%TO.N,/PC4*%
X136162500Y-76200000D03*
%TO.P,U1,28,PC5_28*%
%TO.N,/PC5*%
X136162500Y-75400000D03*
%TO.P,U1,29,~{RESET}/PC6_29*%
%TO.N,Net-(U1-~{RESET}{slash}PC6)*%
X136162500Y-74600000D03*
%TO.P,U1,30,PD0_30*%
%TO.N,/PD0*%
X136162500Y-73800000D03*
%TO.P,U1,31,PD1_31*%
%TO.N,/PD1*%
X136162500Y-73000000D03*
%TO.P,U1,32,PD2_32*%
%TO.N,/PD2*%
X136162500Y-72200000D03*
%TD*%
D25*
%TO.P,C4,1*%
%TO.N,3V3D*%
X127122000Y-81788000D03*
%TO.P,C4,2*%
%TO.N,GNDD*%
X125222000Y-81788000D03*
%TD*%
D17*
%TO.P,H2,1,1_1*%
%TO.N,GNDD*%
X103000000Y-91500000D03*
D18*
X103000000Y-91500000D03*
%TD*%
D26*
%TO.P,C7,1*%
%TO.N,3V3D*%
X123500000Y-66475000D03*
%TO.P,C7,2*%
%TO.N,GNDD*%
X123500000Y-63525000D03*
%TD*%
D27*
%TO.P,C3,1*%
%TO.N,GNDD*%
X111500000Y-61500000D03*
%TO.P,C3,2*%
%TO.N,5VD*%
X111500000Y-64450000D03*
%TD*%
D28*
%TO.P,C1,1*%
%TO.N,Net-(U1-XTAL1{slash}PB6)*%
X138600000Y-61800000D03*
%TO.P,C1,2*%
%TO.N,GNDD*%
X138600000Y-59900000D03*
%TD*%
%TO.P,C2,1*%
%TO.N,Net-(U1-XTAL2{slash}PB7)*%
X129800000Y-61600000D03*
%TO.P,C2,2*%
%TO.N,GNDD*%
X129800000Y-59700000D03*
%TD*%
D29*
%TO.P,C6,1*%
%TO.N,5VD*%
X116050000Y-58000000D03*
%TO.P,C6,2*%
%TO.N,GNDD*%
X119000000Y-58000000D03*
%TD*%
D17*
%TO.P,H5,1,1_1*%
%TO.N,GNDD*%
X154000000Y-57000000D03*
D18*
X154000000Y-57000000D03*
%TD*%
D25*
%TO.P,C5,1*%
%TO.N,3V3D*%
X127056000Y-84074000D03*
%TO.P,C5,2*%
%TO.N,GNDD*%
X125156000Y-84074000D03*
%TD*%
D21*
%TO.P,J3,1,Pin_1_1*%
%TO.N,/AREF*%
X122174000Y-90678000D03*
D22*
%TO.P,J3,2,Pin_2_2*%
%TO.N,/ADC6*%
X124714000Y-90678000D03*
%TO.P,J3,3,Pin_3_3*%
%TO.N,/ADC7*%
X127254000Y-90678000D03*
%TO.P,J3,4,Pin_4_4*%
%TO.N,GNDD*%
X129794000Y-90678000D03*
%TO.P,J3,5,Pin_5_5*%
%TO.N,5VD*%
X132334000Y-90678000D03*
%TO.P,J3,6,Pin_6_6*%
%TO.N,3V3D*%
X134874000Y-90678000D03*
%TO.P,J3,7,Pin_7_7*%
%TO.N,/PC0*%
X137414000Y-90678000D03*
%TO.P,J3,8,Pin_8_8*%
%TO.N,/PC1*%
X139954000Y-90678000D03*
%TO.P,J3,9,Pin_9_9*%
%TO.N,/PC2*%
X142494000Y-90678000D03*
%TO.P,J3,10,Pin_10_10*%
%TO.N,/PC3*%
X145034000Y-90678000D03*
%TD*%
D19*
%TO.P,R2,1*%
%TO.N,5VD*%
X108307500Y-83820000D03*
%TO.P,R2,2*%
%TO.N,/NET_D-*%
X110132500Y-83820000D03*
%TD*%
D14*
%TO.P,D2,1,K_1*%
%TO.N,/NET_D+*%
X114626000Y-82614000D03*
%TO.P,D2,2,A_2*%
%TO.N,GNDD*%
X114626000Y-86614000D03*
%TD*%
D30*
%TO.N,GNDD*%
X123500000Y-62500000D03*
X131600000Y-72200000D03*
X138600000Y-58600000D03*
X120000000Y-58000000D03*
X114600000Y-88800000D03*
X126400000Y-70850000D03*
X129800000Y-58600000D03*
X120000000Y-61000000D03*
X119126000Y-88674000D03*
X133200000Y-72200000D03*
X109982000Y-78486000D03*
X123886000Y-81788000D03*
X129794000Y-88646000D03*
X132400000Y-80400000D03*
X123886000Y-84074000D03*
X111500000Y-60500000D03*
%TO.N,3V3D*%
X132000000Y-69000000D03*
X127800000Y-68600000D03*
%TO.N,5VD*%
X110000000Y-71600000D03*
X118600000Y-76800000D03*
%TO.N,/PB2*%
X129540000Y-76200000D03*
%TO.N,/PB3*%
X129400000Y-77000000D03*
X146000000Y-83200000D03*
%TO.N,/PB4*%
X129200000Y-77800000D03*
X139800000Y-80600000D03*
%TO.N,/PB5*%
X141300200Y-80086200D03*
X129200000Y-80600000D03*
%TO.N,/PD5*%
X129350000Y-73000000D03*
%TO.N,Net-(U1-~{RESET}{slash}PC6)*%
X123800000Y-76800000D03*
X134798000Y-74600000D03*
%TO.N,/ADC6*%
X130810000Y-83312000D03*
%TO.N,/AREF*%
X129692400Y-85699600D03*
X127792565Y-87177965D03*
%TO.N,/ADC7*%
X133223000Y-83439000D03*
%TD*%
%TO.N,Net-(U1-PD7)*%
D31*
X126600000Y-73800000D02*
X125952000Y-73152000D01*
X127837500Y-73800000D02*
X126600000Y-73800000D01*
X125952000Y-73152000D02*
X124864500Y-73152000D01*
%TO.N,Net-(D1-A)*%
X123039500Y-73152000D02*
X123039500Y-70891000D01*
X123039500Y-70891000D02*
X123014500Y-70866000D01*
%TO.N,GNDD*%
X132400000Y-79250000D02*
X132400000Y-80400000D01*
X111500000Y-61500000D02*
X111500000Y-60500000D01*
X129794000Y-90678000D02*
X129794000Y-88646000D01*
X107680000Y-78500000D02*
X109968000Y-78500000D01*
X114626000Y-86614000D02*
X114626000Y-88774000D01*
X119000000Y-58000000D02*
X120000000Y-58000000D01*
X120000000Y-62500000D02*
X120000000Y-61000000D01*
X129800000Y-59700000D02*
X129800000Y-58600000D01*
X119126000Y-88674000D02*
X119126000Y-86614000D01*
X114626000Y-88774000D02*
X114600000Y-88800000D01*
X126384000Y-70866000D02*
X126400000Y-70850000D01*
X138600000Y-59900000D02*
X138600000Y-58600000D01*
X125156000Y-84074000D02*
X123886000Y-84074000D01*
X109968000Y-78500000D02*
X109982000Y-78486000D01*
X133200000Y-70750000D02*
X133200000Y-72200000D01*
X131600000Y-70750000D02*
X131600000Y-72200000D01*
X123500000Y-63525000D02*
X123500000Y-62500000D01*
X124889500Y-70866000D02*
X126384000Y-70866000D01*
X125222000Y-81788000D02*
X123886000Y-81788000D01*
%TO.N,3V3D*%
X127122000Y-83876000D02*
X127122000Y-81788000D01*
X123500000Y-66475000D02*
X125675000Y-66475000D01*
X121175000Y-68800000D02*
X123500000Y-66475000D01*
X134874000Y-90678000D02*
X134874000Y-88874600D01*
X134874000Y-88874600D02*
X133629400Y-87630000D01*
X130000000Y-77000000D02*
X130800000Y-76200000D01*
X127056000Y-83942000D02*
X127122000Y-83876000D01*
X125675000Y-66475000D02*
X127800000Y-68600000D01*
X132400000Y-69400000D02*
X132400000Y-70750000D01*
X127056000Y-84074000D02*
X127056000Y-83942000D01*
X130000000Y-79162500D02*
X130000000Y-77000000D01*
X133629400Y-87630000D02*
X130612000Y-87630000D01*
X129245000Y-81788000D02*
X127122000Y-81788000D01*
X132400000Y-70750000D02*
X132400000Y-74600000D01*
X130000000Y-79162500D02*
X130000000Y-81033000D01*
X130800000Y-76200000D02*
X130800000Y-70750000D01*
X117700000Y-62500000D02*
X117700000Y-68800000D01*
X130000000Y-81033000D02*
X129245000Y-81788000D01*
X132400000Y-74600000D02*
X130000000Y-77000000D01*
X130612000Y-87630000D02*
X127056000Y-84074000D01*
X132000000Y-69000000D02*
X132400000Y-69400000D01*
X117700000Y-68800000D02*
X121175000Y-68800000D01*
%TO.N,5VD*%
X118600000Y-76800000D02*
X118692000Y-76708000D01*
X132334000Y-90678000D02*
X130302000Y-92710000D01*
X104600000Y-73050000D02*
X106150000Y-71500000D01*
X108307500Y-82907500D02*
X104600000Y-79200000D01*
X107680000Y-71500000D02*
X107680000Y-70700000D01*
X107680000Y-70700000D02*
X107880000Y-70500000D01*
X118692000Y-76708000D02*
X120603000Y-76708000D01*
X111500000Y-64450000D02*
X113450000Y-62500000D01*
X115400000Y-58650000D02*
X116050000Y-58000000D01*
X109900000Y-71500000D02*
X110000000Y-71600000D01*
X113792000Y-92710000D02*
X108307500Y-87225500D01*
X104600000Y-79200000D02*
X104600000Y-73050000D01*
X108307500Y-87225500D02*
X108307500Y-83820000D01*
X111500000Y-66880000D02*
X111500000Y-64450000D01*
X107880000Y-70500000D02*
X111500000Y-66880000D01*
X113450000Y-62500000D02*
X115400000Y-62500000D01*
X130302000Y-92710000D02*
X113792000Y-92710000D01*
X106150000Y-71500000D02*
X107680000Y-71500000D01*
X115400000Y-62500000D02*
X115400000Y-58650000D01*
X108307500Y-83820000D02*
X108307500Y-82907500D01*
X107680000Y-71500000D02*
X109900000Y-71500000D01*
%TO.N,/NET_D-*%
X112600000Y-84800000D02*
X111620000Y-83820000D01*
X111620000Y-83820000D02*
X110132500Y-83820000D01*
X119126000Y-82614000D02*
X117586000Y-82614000D01*
X110775559Y-74778353D02*
X111717638Y-74778353D01*
X110132500Y-82192500D02*
X108590000Y-80650000D01*
X107680000Y-74000000D02*
X108555000Y-74000000D01*
X109330000Y-74775000D02*
X110772206Y-74775000D01*
X111717638Y-74778353D02*
X112500000Y-73995991D01*
X105400000Y-74600000D02*
X106000000Y-74000000D01*
X105400000Y-79000000D02*
X105400000Y-74600000D01*
X108555000Y-74000000D02*
X109330000Y-74775000D01*
X110132500Y-83820000D02*
X110132500Y-82192500D01*
X110772206Y-74775000D02*
X110775559Y-74778353D01*
X117586000Y-82614000D02*
X115400000Y-84800000D01*
X108590000Y-80650000D02*
X107050000Y-80650000D01*
X107050000Y-80650000D02*
X105400000Y-79000000D01*
X115400000Y-84800000D02*
X112600000Y-84800000D01*
X106000000Y-74000000D02*
X107680000Y-74000000D01*
%TO.N,/NET_D+*%
X112489283Y-80477283D02*
X112489283Y-76000000D01*
X111717638Y-75228355D02*
X112489283Y-76000000D01*
X110603355Y-75228355D02*
X111717638Y-75228355D01*
X108555000Y-76000000D02*
X109330000Y-75225000D01*
X114626000Y-82614000D02*
X112489283Y-80477283D01*
X109330000Y-75225000D02*
X110600000Y-75225000D01*
X107680000Y-76000000D02*
X108555000Y-76000000D01*
X110600000Y-75225000D02*
X110603355Y-75228355D01*
%TO.N,USBD-*%
X127837500Y-74600000D02*
X126731249Y-74600000D01*
X126731249Y-74600000D02*
X126556249Y-74775000D01*
X115096645Y-74767636D02*
X121085834Y-74767636D01*
X121093198Y-74775000D02*
X121085834Y-74767636D01*
X126556249Y-74775000D02*
X121093198Y-74775000D01*
X114325000Y-73995991D02*
X115096645Y-74767636D01*
%TO.N,Net-(U1-XTAL2{slash}PB7)*%
X130500000Y-62300000D02*
X130500000Y-65500000D01*
X130500000Y-65500000D02*
X129200000Y-66800000D01*
X129200000Y-66800000D02*
X129200000Y-70750000D01*
X129800000Y-61600000D02*
X130500000Y-62300000D01*
%TO.N,Net-(U1-XTAL1{slash}PB6)*%
X130000000Y-69750000D02*
X130000000Y-70750000D01*
X134250000Y-65500000D02*
X130000000Y-69750000D01*
X138600000Y-65100000D02*
X139000000Y-65500000D01*
X138600000Y-61800000D02*
X138600000Y-65100000D01*
X134250000Y-65500000D02*
X139000000Y-65500000D01*
%TO.N,/PB2*%
X129540000Y-76200000D02*
X127837500Y-76200000D01*
%TO.N,/PB3*%
X146112000Y-83312000D02*
X146000000Y-83200000D01*
X129400000Y-77000000D02*
X127837500Y-77000000D01*
X153416000Y-83312000D02*
X146112000Y-83312000D01*
%TO.N,/PB4*%
X153416000Y-80772000D02*
X145628000Y-80772000D01*
X127837500Y-77800000D02*
X129200000Y-77800000D01*
X145628000Y-80772000D02*
X145600000Y-80800000D01*
X139800000Y-80600000D02*
X140000000Y-80800000D01*
X140000000Y-80800000D02*
X145600000Y-80800000D01*
%TO.N,/PB5*%
X129200000Y-80600000D02*
X129200000Y-79162500D01*
X151714200Y-79933800D02*
X153416000Y-78232000D01*
X141300200Y-80086200D02*
X151714200Y-79933800D01*
%TO.N,/PD0*%
X153416000Y-75692000D02*
X151524000Y-73800000D01*
X151524000Y-73800000D02*
X136162500Y-73800000D01*
%TO.N,/PD1*%
X153416000Y-73152000D02*
X136314500Y-73152000D01*
X136314500Y-73152000D02*
X136162500Y-73000000D01*
%TO.N,/PD2*%
X140652000Y-72200000D02*
X142240000Y-70612000D01*
X136162500Y-72200000D02*
X140652000Y-72200000D01*
X142240000Y-70612000D02*
X153416000Y-70612000D01*
%TO.N,/PD3*%
X134874000Y-69850000D02*
X135382000Y-69342000D01*
X135382000Y-69342000D02*
X152146000Y-69342000D01*
X152146000Y-69342000D02*
X153416000Y-68072000D01*
X134800000Y-70837500D02*
X134874000Y-70763500D01*
X134874000Y-70763500D02*
X134874000Y-69850000D01*
%TO.N,/PD4*%
X153416000Y-65532000D02*
X150114000Y-68834000D01*
X150114000Y-68834000D02*
X135128000Y-68834000D01*
X134000000Y-69962000D02*
X134000000Y-70837500D01*
X135128000Y-68834000D02*
X134000000Y-69962000D01*
%TO.N,/PD5*%
X127837500Y-72200000D02*
X128550000Y-72200000D01*
X128550000Y-72200000D02*
X129350000Y-73000000D01*
%TO.N,USBD+*%
X126556249Y-75225000D02*
X120906802Y-75225000D01*
X127837500Y-75400000D02*
X126731249Y-75400000D01*
X120906802Y-75225000D02*
X120899440Y-75217638D01*
X114314283Y-76000000D02*
X115096645Y-75217638D01*
X115096645Y-75217638D02*
X120899440Y-75217638D01*
X126731249Y-75400000D02*
X126556249Y-75225000D01*
%TO.N,Net-(U1-~{RESET}{slash}PC6)*%
X134798000Y-74600000D02*
X136162500Y-74600000D01*
X123708000Y-76708000D02*
X123800000Y-76800000D01*
X122428000Y-76708000D02*
X123708000Y-76708000D01*
%TO.N,/ADC6*%
X130810000Y-83312000D02*
X130800000Y-81016000D01*
X130800000Y-81016000D02*
X130800000Y-79162500D01*
%TO.N,/AREF*%
X125242235Y-87177965D02*
X122174000Y-90246200D01*
X131600000Y-83792000D02*
X129692400Y-85699600D01*
X122174000Y-90246200D02*
X122174000Y-90678000D01*
X127792565Y-87177965D02*
X125242235Y-87177965D01*
X131600000Y-79162500D02*
X131600000Y-83157000D01*
X131600000Y-83157000D02*
X131600000Y-83792000D01*
%TO.N,/ADC7*%
X133200000Y-80922000D02*
X133200000Y-79162500D01*
X133223000Y-83439000D02*
X133200000Y-80922000D01*
%TO.N,/PC0*%
X134000000Y-79162500D02*
X134000000Y-81168000D01*
X134000000Y-81168000D02*
X137414000Y-84582000D01*
X137414000Y-84582000D02*
X137414000Y-90678000D01*
%TO.N,/PC1*%
X139954000Y-85598000D02*
X139954000Y-90678000D01*
X134800000Y-80444000D02*
X139954000Y-85598000D01*
X134800000Y-79162500D02*
X134800000Y-80444000D01*
%TO.N,/PC2*%
X138600000Y-78800000D02*
X138600000Y-82706000D01*
X137600000Y-77800000D02*
X138600000Y-78800000D01*
X136162500Y-77800000D02*
X137600000Y-77800000D01*
X138600000Y-82706000D02*
X142494000Y-86600000D01*
X142494000Y-90678000D02*
X142494000Y-86600000D01*
%TO.N,/PC3*%
X145034000Y-88234000D02*
X139000000Y-82200000D01*
X145034000Y-90678000D02*
X145034000Y-88234000D01*
X137982843Y-77000000D02*
X136162500Y-77000000D01*
X139000000Y-78017157D02*
X137982843Y-77000000D01*
X139000000Y-82200000D02*
X139000000Y-78017157D01*
%TD*%
M02*
