%TF.GenerationSoftware,KiCad,Pcbnew,10.0.0*%
%TF.CreationDate,2026-05-07T17:00:01-05:00*%
%TF.ProjectId,Atmega328_Coursera,41746d65-6761-4333-9238-5f436f757273,rev?*%
%TF.SameCoordinates,Original*%
%TF.FileFunction,Copper,L2,Bot*%
%TF.FilePolarity,Positive*%
%FSLAX46Y46*%
G04 Gerber Fmt 4.6, Leading zero omitted, Abs format (unit mm)*
G04 Created by KiCad (PCBNEW 10.0.0) date 2026-05-07 17:00:01*
%MOMM*%
%LPD*%
G01*
G04 APERTURE LIST*
%TA.AperFunction,ComponentPad*%
%ADD10R,1.800000X1.800000*%
%TD*%
%TA.AperFunction,ComponentPad*%
%ADD11C,1.800000*%
%TD*%
%TA.AperFunction,ComponentPad*%
%ADD12C,3.000000*%
%TD*%
%TA.AperFunction,ComponentPad*%
%ADD13C,3.600000*%
%TD*%
%TA.AperFunction,ConnectorPad*%
%ADD14C,6.400000*%
%TD*%
%TA.AperFunction,ComponentPad*%
%ADD15R,1.700000X1.700000*%
%TD*%
%TA.AperFunction,ComponentPad*%
%ADD16C,1.700000*%
%TD*%
%TA.AperFunction,ViaPad*%
%ADD17C,0.600000*%
%TD*%
%TA.AperFunction,Conductor*%
%ADD18C,0.200000*%
%TD*%
G04 APERTURE END LIST*
D10*
%TO.P,D3,1,K_1*%
%TO.N,GNDD*%
X119150000Y-70285000D03*
D11*
%TO.P,D3,2,A_2*%
%TO.N,Net-(D3-A)*%
X119150000Y-72825000D03*
%TD*%
D12*
%TO.P,J1,SH,Shield_SH*%
%TO.N,GNDD*%
X104000000Y-68430000D03*
X104000000Y-81570000D03*
%TD*%
D13*
%TO.P,H1,1,1_1*%
%TO.N,GNDD*%
X103000000Y-57000000D03*
D14*
X103000000Y-57000000D03*
%TD*%
D13*
%TO.P,H3,1,1_1*%
%TO.N,GNDD*%
X154000000Y-91500000D03*
D14*
X154000000Y-91500000D03*
%TD*%
D15*
%TO.P,J2,1,Pin_1_1*%
%TO.N,/PB2*%
X153416000Y-85852000D03*
D16*
%TO.P,J2,2,Pin_2_2*%
%TO.N,/PB3*%
X153416000Y-83312000D03*
%TO.P,J2,3,Pin_3_3*%
%TO.N,/PB4*%
X153416000Y-80772000D03*
%TO.P,J2,4,Pin_4_4*%
%TO.N,/PB5*%
X153416000Y-78232000D03*
%TO.P,J2,5,Pin_5_5*%
%TO.N,/PD0*%
X153416000Y-75692000D03*
%TO.P,J2,6,Pin_6_6*%
%TO.N,/PD1*%
X153416000Y-73152000D03*
%TO.P,J2,7,Pin_7_7*%
%TO.N,/PD2*%
X153416000Y-70612000D03*
%TO.P,J2,8,Pin_8_8*%
%TO.N,/PD3*%
X153416000Y-68072000D03*
%TO.P,J2,9,Pin_9_9*%
%TO.N,/PD4*%
X153416000Y-65532000D03*
%TO.P,J2,10,Pin_10_10*%
%TO.N,/PD5*%
X153416000Y-62992000D03*
%TO.P,J2,11,Pin_11_11*%
%TO.N,/PD6*%
X153416000Y-60452000D03*
%TO.P,J2,12,Pin_12_12*%
%TO.N,GNDD*%
X153416000Y-57912000D03*
%TD*%
D13*
%TO.P,H2,1,1_1*%
%TO.N,GNDD*%
X103000000Y-91500000D03*
D14*
X103000000Y-91500000D03*
%TD*%
D15*
%TO.P,J3,1,Pin_1_1*%
%TO.N,/AREF*%
X118500000Y-91250000D03*
D16*
%TO.P,J3,2,Pin_2_2*%
%TO.N,/ADC6*%
X121040000Y-91250000D03*
%TO.P,J3,3,Pin_3_3*%
%TO.N,/ADC7*%
X123580000Y-91250000D03*
%TO.P,J3,4,Pin_4_4*%
%TO.N,GNDD*%
X126120000Y-91250000D03*
%TO.P,J3,5,Pin_5_5*%
%TO.N,5VD*%
X128660000Y-91250000D03*
%TO.P,J3,6,Pin_6_6*%
%TO.N,3V3D*%
X131200000Y-91250000D03*
%TO.P,J3,7,Pin_7_7*%
%TO.N,/PC0*%
X133740000Y-91250000D03*
%TO.P,J3,8,Pin_8_8*%
%TO.N,/PC1*%
X136280000Y-91250000D03*
%TO.P,J3,9,Pin_9_9*%
%TO.N,/PC2*%
X138820000Y-91250000D03*
%TO.P,J3,10,Pin_10_10*%
%TO.N,/PC3*%
X141360000Y-91250000D03*
%TO.P,J3,11,Pin_11_11*%
%TO.N,/PC4*%
X143900000Y-91250000D03*
%TO.P,J3,12,Pin_12_12*%
%TO.N,/PC5*%
X146440000Y-91250000D03*
%TD*%
D17*
%TO.N,GNDD*%
X133200000Y-69200000D03*
X112825000Y-57450000D03*
X124600000Y-61050000D03*
X131600000Y-71950000D03*
X138600000Y-58600000D03*
X103375000Y-63650000D03*
X114600000Y-88800000D03*
X110625000Y-57400000D03*
X129800000Y-58600000D03*
X119126000Y-88674000D03*
X109982000Y-78486000D03*
X123886000Y-81788000D03*
X132400000Y-80400000D03*
X123886000Y-84074000D03*
%TO.N,3V3D*%
X132000000Y-69000000D03*
X127800000Y-68600000D03*
%TO.N,5VD*%
X110000000Y-71600000D03*
X118600000Y-76800000D03*
%TO.N,/PB2*%
X129540000Y-76200000D03*
%TO.N,/PB3*%
X129350000Y-77400000D03*
X139700000Y-80500000D03*
%TO.N,/PB4*%
X127800000Y-78800000D03*
X143500000Y-82700000D03*
%TO.N,/PB5*%
X141300200Y-80086200D03*
X129200000Y-80600000D03*
%TO.N,/PD5*%
X129100000Y-72200000D03*
%TO.N,/PD6*%
X129150000Y-73200000D03*
X148350000Y-63800000D03*
%TO.N,/ADC6*%
X130810000Y-83312000D03*
%TO.N,/AREF*%
X129692400Y-85699600D03*
X127792565Y-87177965D03*
%TO.N,/ADC7*%
X133223000Y-83439000D03*
%TO.N,/PC4*%
X141999647Y-79475899D03*
%TO.N,/PC5*%
X142800000Y-77500000D03*
%TO.N,Net-(U2-~{RESET}{slash}PC6)*%
X123800000Y-76800000D03*
X134798000Y-74600000D03*
%TD*%
%TO.N,5VD*%
D18*
X113400000Y-71600000D02*
X110000000Y-71600000D01*
X118600000Y-76800000D02*
X113400000Y-71600000D01*
%TO.N,3V3D*%
X127800000Y-68600000D02*
X131600000Y-68600000D01*
X131600000Y-68600000D02*
X132000000Y-69000000D01*
%TO.N,/PB2*%
X131000000Y-76650000D02*
X134793000Y-76643000D01*
X134793000Y-76643000D02*
X144207000Y-76643000D01*
X129540000Y-76200000D02*
X131000000Y-76650000D01*
X144207000Y-76643000D02*
X153416000Y-85852000D01*
%TO.N,/PB3*%
X129350000Y-77400000D02*
X129850000Y-77900000D01*
X129850000Y-77900000D02*
X134900000Y-77900000D01*
X137500000Y-80500000D02*
X139700000Y-80500000D01*
X134900000Y-77900000D02*
X137500000Y-80500000D01*
%TO.N,/PB4*%
X127800000Y-78800000D02*
X127800000Y-80225000D01*
X130275000Y-82700000D02*
X143500000Y-82700000D01*
X127800000Y-80225000D02*
X130275000Y-82700000D01*
%TO.N,/PB5*%
X139700000Y-81686400D02*
X141300200Y-80086200D01*
X129200000Y-80600000D02*
X130286400Y-81686400D01*
X130286400Y-81686400D02*
X139700000Y-81686400D01*
%TO.N,/PD5*%
X148158000Y-62992000D02*
X141162500Y-69987500D01*
X129500000Y-72200000D02*
X129100000Y-72200000D01*
X153416000Y-62992000D02*
X148158000Y-62992000D01*
X134150000Y-72750000D02*
X134000000Y-72750000D01*
X134150000Y-72750000D02*
X136912500Y-69987500D01*
X134000000Y-72750000D02*
X130100000Y-72800000D01*
X136912500Y-69987500D02*
X141162500Y-69987500D01*
X130100000Y-72800000D02*
X129500000Y-72200000D01*
%TO.N,/PD6*%
X129850000Y-73450000D02*
X129150000Y-73200000D01*
X134500000Y-73405134D02*
X129850000Y-73450000D01*
X137030134Y-70875000D02*
X134500000Y-73405134D01*
X148350000Y-63800000D02*
X141275000Y-70875000D01*
X141275000Y-70875000D02*
X137030134Y-70875000D01*
%TO.N,/ADC6*%
X125940000Y-86350000D02*
X121040000Y-91250000D01*
X127800000Y-86350000D02*
X125940000Y-86350000D01*
X130810000Y-83312000D02*
X130810000Y-83340000D01*
X130810000Y-83340000D02*
X127800000Y-86350000D01*
%TO.N,/AREF*%
X129692400Y-85699600D02*
X128214035Y-87177965D01*
X128214035Y-87177965D02*
X127792565Y-87177965D01*
%TO.N,/ADC7*%
X127675000Y-89525000D02*
X133223000Y-83977000D01*
X125275000Y-89525000D02*
X127675000Y-89525000D01*
X123580000Y-91250000D02*
X124250000Y-91250000D01*
X125275000Y-89525000D02*
X125275000Y-89555000D01*
X123550000Y-91150000D02*
X123600000Y-91150000D01*
X125275000Y-89555000D02*
X123580000Y-91250000D01*
X133223000Y-83977000D02*
X133223000Y-83439000D01*
%TO.N,/PC4*%
X143900000Y-91250000D02*
X144636874Y-90513126D01*
X144636874Y-90513126D02*
X144636874Y-82113126D01*
X144636874Y-82113126D02*
X141999647Y-79475899D01*
%TO.N,/PC5*%
X146440000Y-91250000D02*
X146440000Y-81140000D01*
X146440000Y-81140000D02*
X142800000Y-77500000D01*
%TO.N,Net-(U2-~{RESET}{slash}PC6)*%
X126200000Y-75600000D02*
X125000000Y-76800000D01*
X134798000Y-74600000D02*
X133798000Y-75600000D01*
X125000000Y-76800000D02*
X123800000Y-76800000D01*
X133798000Y-75600000D02*
X126200000Y-75600000D01*
%TD*%
%TA.AperFunction,Conductor*%
%TO.N,GNDD*%
G36*
X127642281Y-90145185D02*
G01*
X127688036Y-90197989D01*
X127697980Y-90267147D01*
X127668955Y-90330703D01*
X127662923Y-90337181D01*
X127629894Y-90370209D01*
X127629890Y-90370213D01*
X127504949Y-90542182D01*
X127500202Y-90551499D01*
X127452227Y-90602293D01*
X127384405Y-90619087D01*
X127318271Y-90596548D01*
X127279234Y-90551495D01*
X127274626Y-90542452D01*
X127235270Y-90488282D01*
X127235269Y-90488282D01*
X126602962Y-91120590D01*
X126585925Y-91057007D01*
X126520099Y-90942993D01*
X126427007Y-90849901D01*
X126312993Y-90784075D01*
X126249408Y-90767037D01*
X126854627Y-90161819D01*
X126915950Y-90128334D01*
X126942308Y-90125500D01*
X127575242Y-90125500D01*
X127642281Y-90145185D01*
G37*
%TD.AperFunction*%
%TA.AperFunction,Conductor*%
G36*
X156942539Y-54020185D02*
G01*
X156988294Y-54072989D01*
X156999500Y-54124500D01*
X156999500Y-94375500D01*
X156979815Y-94442539D01*
X156927011Y-94488294D01*
X156875500Y-94499500D01*
X100124500Y-94499500D01*
X100057461Y-94479815D01*
X100011706Y-94427011D01*
X100000500Y-94375500D01*
X100000500Y-90352135D01*
X117149500Y-90352135D01*
X117149500Y-92147870D01*
X117149501Y-92147876D01*
X117155908Y-92207483D01*
X117206202Y-92342328D01*
X117206206Y-92342335D01*
X117292452Y-92457544D01*
X117292455Y-92457547D01*
X117407664Y-92543793D01*
X117407671Y-92543797D01*
X117542517Y-92594091D01*
X117542516Y-92594091D01*
X117549444Y-92594835D01*
X117602127Y-92600500D01*
X119397872Y-92600499D01*
X119457483Y-92594091D01*
X119592331Y-92543796D01*
X119707546Y-92457546D01*
X119793796Y-92342331D01*
X119842810Y-92210916D01*
X119884681Y-92154984D01*
X119950145Y-92130566D01*
X120018418Y-92145417D01*
X120046673Y-92166569D01*
X120160213Y-92280109D01*
X120332179Y-92405048D01*
X120332181Y-92405049D01*
X120332184Y-92405051D01*
X120521588Y-92501557D01*
X120723757Y-92567246D01*
X120933713Y-92600500D01*
X120933714Y-92600500D01*
X121146286Y-92600500D01*
X121146287Y-92600500D01*
X121356243Y-92567246D01*
X121558412Y-92501557D01*
X121747816Y-92405051D01*
X121834138Y-92342335D01*
X121919786Y-92280109D01*
X121919788Y-92280106D01*
X121919792Y-92280104D01*
X122070104Y-92129792D01*
X122070106Y-92129788D01*
X122070109Y-92129786D01*
X122195048Y-91957820D01*
X122195047Y-91957820D01*
X122195051Y-91957816D01*
X122199514Y-91949054D01*
X122247488Y-91898259D01*
X122315308Y-91881463D01*
X122381444Y-91903999D01*
X122420486Y-91949056D01*
X122424951Y-91957820D01*
X122549890Y-92129786D01*
X122700213Y-92280109D01*
X122872179Y-92405048D01*
X122872181Y-92405049D01*
X122872184Y-92405051D01*
X123061588Y-92501557D01*
X123263757Y-92567246D01*
X123473713Y-92600500D01*
X123473714Y-92600500D01*
X123686286Y-92600500D01*
X123686287Y-92600500D01*
X123896243Y-92567246D01*
X124098412Y-92501557D01*
X124287816Y-92405051D01*
X124374138Y-92342335D01*
X124459786Y-92280109D01*
X124459788Y-92280106D01*
X124459792Y-92280104D01*
X124610104Y-92129792D01*
X124610106Y-92129788D01*
X124610109Y-92129786D01*
X124695890Y-92011717D01*
X124735051Y-91957816D01*
X124739793Y-91948508D01*
X124787763Y-91897711D01*
X124855583Y-91880911D01*
X124921719Y-91903445D01*
X124960763Y-91948500D01*
X124965373Y-91957547D01*
X125004728Y-92011716D01*
X125637037Y-91379408D01*
X125654075Y-91442993D01*
X125719901Y-91557007D01*
X125812993Y-91650099D01*
X125927007Y-91715925D01*
X125990590Y-91732962D01*
X125358282Y-92365269D01*
X125358282Y-92365270D01*
X125412449Y-92404624D01*
X125601782Y-92501095D01*
X125803870Y-92566757D01*
X126013754Y-92600000D01*
X126226246Y-92600000D01*
X126436127Y-92566757D01*
X126436130Y-92566757D01*
X126638217Y-92501095D01*
X126827554Y-92404622D01*
X126881716Y-92365270D01*
X126881717Y-92365270D01*
X126249408Y-91732962D01*
X126312993Y-91715925D01*
X126427007Y-91650099D01*
X126520099Y-91557007D01*
X126585925Y-91442993D01*
X126602962Y-91379408D01*
X127235270Y-92011717D01*
X127235270Y-92011716D01*
X127274622Y-91957555D01*
X127279232Y-91948507D01*
X127327205Y-91897709D01*
X127395025Y-91880912D01*
X127461161Y-91903447D01*
X127500204Y-91948504D01*
X127504949Y-91957817D01*
X127629890Y-92129786D01*
X127780213Y-92280109D01*
X127952179Y-92405048D01*
X127952181Y-92405049D01*
X127952184Y-92405051D01*
X128141588Y-92501557D01*
X128343757Y-92567246D01*
X128553713Y-92600500D01*
X128553714Y-92600500D01*
X128766286Y-92600500D01*
X128766287Y-92600500D01*
X128976243Y-92567246D01*
X129178412Y-92501557D01*
X129367816Y-92405051D01*
X129454138Y-92342335D01*
X129539786Y-92280109D01*
X129539788Y-92280106D01*
X129539792Y-92280104D01*
X129690104Y-92129792D01*
X129690106Y-92129788D01*
X129690109Y-92129786D01*
X129815048Y-91957820D01*
X129815047Y-91957820D01*
X129815051Y-91957816D01*
X129819514Y-91949054D01*
X129867488Y-91898259D01*
X129935308Y-91881463D01*
X130001444Y-91903999D01*
X130040486Y-91949056D01*
X130044951Y-91957820D01*
X130169890Y-92129786D01*
X130320213Y-92280109D01*
X130492179Y-92405048D01*
X130492181Y-92405049D01*
X130492184Y-92405051D01*
X130681588Y-92501557D01*
X130883757Y-92567246D01*
X131093713Y-92600500D01*
X131093714Y-92600500D01*
X131306286Y-92600500D01*
X131306287Y-92600500D01*
X131516243Y-92567246D01*
X131718412Y-92501557D01*
X131907816Y-92405051D01*
X131994138Y-92342335D01*
X132079786Y-92280109D01*
X132079788Y-92280106D01*
X132079792Y-92280104D01*
X132230104Y-92129792D01*
X132230106Y-92129788D01*
X132230109Y-92129786D01*
X132355048Y-91957820D01*
X132355047Y-91957820D01*
X132355051Y-91957816D01*
X132359514Y-91949054D01*
X132407488Y-91898259D01*
X132475308Y-91881463D01*
X132541444Y-91903999D01*
X132580486Y-91949056D01*
X132584951Y-91957820D01*
X132709890Y-92129786D01*
X132860213Y-92280109D01*
X133032179Y-92405048D01*
X133032181Y-92405049D01*
X133032184Y-92405051D01*
X133221588Y-92501557D01*
X133423757Y-92567246D01*
X133633713Y-92600500D01*
X133633714Y-92600500D01*
X133846286Y-92600500D01*
X133846287Y-92600500D01*
X134056243Y-92567246D01*
X134258412Y-92501557D01*
X134447816Y-92405051D01*
X134534138Y-92342335D01*
X134619786Y-92280109D01*
X134619788Y-92280106D01*
X134619792Y-92280104D01*
X134770104Y-92129792D01*
X134770106Y-92129788D01*
X134770109Y-92129786D01*
X134895048Y-91957820D01*
X134895047Y-91957820D01*
X134895051Y-91957816D01*
X134899514Y-91949054D01*
X134947488Y-91898259D01*
X135015308Y-91881463D01*
X135081444Y-91903999D01*
X135120486Y-91949056D01*
X135124951Y-91957820D01*
X135249890Y-92129786D01*
X135400213Y-92280109D01*
X135572179Y-92405048D01*
X135572181Y-92405049D01*
X135572184Y-92405051D01*
X135761588Y-92501557D01*
X135963757Y-92567246D01*
X136173713Y-92600500D01*
X136173714Y-92600500D01*
X136386286Y-92600500D01*
X136386287Y-92600500D01*
X136596243Y-92567246D01*
X136798412Y-92501557D01*
X136987816Y-92405051D01*
X137074138Y-92342335D01*
X137159786Y-92280109D01*
X137159788Y-92280106D01*
X137159792Y-92280104D01*
X137310104Y-92129792D01*
X137310106Y-92129788D01*
X137310109Y-92129786D01*
X137435048Y-91957820D01*
X137435047Y-91957820D01*
X137435051Y-91957816D01*
X137439514Y-91949054D01*
X137487488Y-91898259D01*
X137555308Y-91881463D01*
X137621444Y-91903999D01*
X137660486Y-91949056D01*
X137664951Y-91957820D01*
X137789890Y-92129786D01*
X137940213Y-92280109D01*
X138112179Y-92405048D01*
X138112181Y-92405049D01*
X138112184Y-92405051D01*
X138301588Y-92501557D01*
X138503757Y-92567246D01*
X138713713Y-92600500D01*
X138713714Y-92600500D01*
X138926286Y-92600500D01*
X138926287Y-92600500D01*
X139136243Y-92567246D01*
X139338412Y-92501557D01*
X139527816Y-92405051D01*
X139614138Y-92342335D01*
X139699786Y-92280109D01*
X139699788Y-92280106D01*
X139699792Y-92280104D01*
X139850104Y-92129792D01*
X139850106Y-92129788D01*
X139850109Y-92129786D01*
X139975048Y-91957820D01*
X139975047Y-91957820D01*
X139975051Y-91957816D01*
X139979514Y-91949054D01*
X140027488Y-91898259D01*
X140095308Y-91881463D01*
X140161444Y-91903999D01*
X140200486Y-91949056D01*
X140204951Y-91957820D01*
X140329890Y-92129786D01*
X140480213Y-92280109D01*
X140652179Y-92405048D01*
X140652181Y-92405049D01*
X140652184Y-92405051D01*
X140841588Y-92501557D01*
X141043757Y-92567246D01*
X141253713Y-92600500D01*
X141253714Y-92600500D01*
X141466286Y-92600500D01*
X141466287Y-92600500D01*
X141676243Y-92567246D01*
X141878412Y-92501557D01*
X142067816Y-92405051D01*
X142154138Y-92342335D01*
X142239786Y-92280109D01*
X142239788Y-92280106D01*
X142239792Y-92280104D01*
X142390104Y-92129792D01*
X142390106Y-92129788D01*
X142390109Y-92129786D01*
X142515048Y-91957820D01*
X142515047Y-91957820D01*
X142515051Y-91957816D01*
X142519514Y-91949054D01*
X142567488Y-91898259D01*
X142635308Y-91881463D01*
X142701444Y-91903999D01*
X142740486Y-91949056D01*
X142744951Y-91957820D01*
X142869890Y-92129786D01*
X143020213Y-92280109D01*
X143192179Y-92405048D01*
X143192181Y-92405049D01*
X143192184Y-92405051D01*
X143381588Y-92501557D01*
X143583757Y-92567246D01*
X143793713Y-92600500D01*
X143793714Y-92600500D01*
X144006286Y-92600500D01*
X144006287Y-92600500D01*
X144216243Y-92567246D01*
X144418412Y-92501557D01*
X144607816Y-92405051D01*
X144694138Y-92342335D01*
X144779786Y-92280109D01*
X144779788Y-92280106D01*
X144779792Y-92280104D01*
X144930104Y-92129792D01*
X144930106Y-92129788D01*
X144930109Y-92129786D01*
X145055048Y-91957820D01*
X145055047Y-91957820D01*
X145055051Y-91957816D01*
X145059514Y-91949054D01*
X145107488Y-91898259D01*
X145175308Y-91881463D01*
X145241444Y-91903999D01*
X145280486Y-91949056D01*
X145284951Y-91957820D01*
X145409890Y-92129786D01*
X145560213Y-92280109D01*
X145732179Y-92405048D01*
X145732181Y-92405049D01*
X145732184Y-92405051D01*
X145921588Y-92501557D01*
X146123757Y-92567246D01*
X146333713Y-92600500D01*
X146333714Y-92600500D01*
X146546286Y-92600500D01*
X146546287Y-92600500D01*
X146756243Y-92567246D01*
X146958412Y-92501557D01*
X147147816Y-92405051D01*
X147234138Y-92342335D01*
X147319786Y-92280109D01*
X147319788Y-92280106D01*
X147319792Y-92280104D01*
X147470104Y-92129792D01*
X147470106Y-92129788D01*
X147470109Y-92129786D01*
X147595048Y-91957820D01*
X147595047Y-91957820D01*
X147595051Y-91957816D01*
X147691557Y-91768412D01*
X147757246Y-91566243D01*
X147790500Y-91356287D01*
X147790500Y-91143713D01*
X147757246Y-90933757D01*
X147691557Y-90731588D01*
X147595051Y-90542184D01*
X147595049Y-90542181D01*
X147595048Y-90542179D01*
X147470109Y-90370213D01*
X147319786Y-90219890D01*
X147147815Y-90094948D01*
X147147814Y-90094947D01*
X147108205Y-90074765D01*
X147057409Y-90026791D01*
X147040500Y-89964281D01*
X147040500Y-81060945D01*
X147040500Y-81060943D01*
X146999577Y-80908216D01*
X146969393Y-80855935D01*
X146920524Y-80771290D01*
X146920521Y-80771286D01*
X146920520Y-80771284D01*
X146808716Y-80659480D01*
X146808715Y-80659479D01*
X146804385Y-80655149D01*
X146804374Y-80655139D01*
X143634574Y-77485339D01*
X143601089Y-77424016D01*
X143600638Y-77421850D01*
X143594639Y-77391692D01*
X143600866Y-77322100D01*
X143643729Y-77266923D01*
X143709618Y-77243678D01*
X143716256Y-77243500D01*
X143906903Y-77243500D01*
X143973942Y-77263185D01*
X143994584Y-77279819D01*
X152029181Y-85314417D01*
X152062666Y-85375740D01*
X152065500Y-85402098D01*
X152065500Y-86749870D01*
X152065501Y-86749876D01*
X152071908Y-86809483D01*
X152122202Y-86944328D01*
X152122206Y-86944335D01*
X152208452Y-87059544D01*
X152208455Y-87059547D01*
X152323664Y-87145793D01*
X152323671Y-87145797D01*
X152458517Y-87196091D01*
X152458516Y-87196091D01*
X152465444Y-87196835D01*
X152518127Y-87202500D01*
X154313872Y-87202499D01*
X154373483Y-87196091D01*
X154508331Y-87145796D01*
X154623546Y-87059546D01*
X154709796Y-86944331D01*
X154760091Y-86809483D01*
X154766500Y-86749873D01*
X154766499Y-84954128D01*
X154760091Y-84894517D01*
X154709796Y-84759669D01*
X154709795Y-84759668D01*
X154709793Y-84759664D01*
X154623547Y-84644455D01*
X154623544Y-84644452D01*
X154508335Y-84558206D01*
X154508328Y-84558202D01*
X154376917Y-84509189D01*
X154320983Y-84467318D01*
X154296566Y-84401853D01*
X154311418Y-84333580D01*
X154332563Y-84305332D01*
X154446104Y-84191792D01*
X154571051Y-84019816D01*
X154667557Y-83830412D01*
X154733246Y-83628243D01*
X154766500Y-83418287D01*
X154766500Y-83205713D01*
X154733246Y-82995757D01*
X154667557Y-82793588D01*
X154571051Y-82604184D01*
X154571049Y-82604181D01*
X154571048Y-82604179D01*
X154446109Y-82432213D01*
X154295786Y-82281890D01*
X154123820Y-82156951D01*
X154123115Y-82156591D01*
X154115054Y-82152485D01*
X154064259Y-82104512D01*
X154047463Y-82036692D01*
X154069999Y-81970556D01*
X154115054Y-81931515D01*
X154123816Y-81927051D01*
X154186731Y-81881341D01*
X154295786Y-81802109D01*
X154295793Y-81802103D01*
X154353486Y-81744410D01*
X154446104Y-81651792D01*
X154446106Y-81651788D01*
X154446109Y-81651786D01*
X154571048Y-81479820D01*
X154571047Y-81479820D01*
X154571051Y-81479816D01*
X154667557Y-81290412D01*
X154733246Y-81088243D01*
X154766500Y-80878287D01*
X154766500Y-80665713D01*
X154733246Y-80455757D01*
X154667557Y-80253588D01*
X154571051Y-80064184D01*
X154571049Y-80064181D01*
X154571048Y-80064179D01*
X154446109Y-79892213D01*
X154295786Y-79741890D01*
X154123820Y-79616951D01*
X154123115Y-79616591D01*
X154115054Y-79612485D01*
X154064259Y-79564512D01*
X154047463Y-79496692D01*
X154069999Y-79430556D01*
X154115054Y-79391515D01*
X154123816Y-79387051D01*
X154200169Y-79331578D01*
X154295786Y-79262109D01*
X154295788Y-79262106D01*
X154295792Y-79262104D01*
X154446104Y-79111792D01*
X154446106Y-79111788D01*
X154446109Y-79111786D01*
X154571048Y-78939820D01*
X154571047Y-78939820D01*
X154571051Y-78939816D01*
X154667557Y-78750412D01*
X154733246Y-78548243D01*
X154766500Y-78338287D01*
X154766500Y-78125713D01*
X154733246Y-77915757D01*
X154667557Y-77713588D01*
X154571051Y-77524184D01*
X154571049Y-77524181D01*
X154571048Y-77524179D01*
X154446109Y-77352213D01*
X154295786Y-77201890D01*
X154123820Y-77076951D01*
X154123115Y-77076591D01*
X154115054Y-77072485D01*
X154064259Y-77024512D01*
X154047463Y-76956692D01*
X154069999Y-76890556D01*
X154115054Y-76851515D01*
X154123816Y-76847051D01*
X154221741Y-76775905D01*
X154295786Y-76722109D01*
X154295788Y-76722106D01*
X154295792Y-76722104D01*
X154446104Y-76571792D01*
X154446106Y-76571788D01*
X154446109Y-76571786D01*
X154571048Y-76399820D01*
X154571047Y-76399820D01*
X154571051Y-76399816D01*
X154667557Y-76210412D01*
X154733246Y-76008243D01*
X154766500Y-75798287D01*
X154766500Y-75585713D01*
X154733246Y-75375757D01*
X154667557Y-75173588D01*
X154571051Y-74984184D01*
X154571049Y-74984181D01*
X154571048Y-74984179D01*
X154446109Y-74812213D01*
X154295786Y-74661890D01*
X154123820Y-74536951D01*
X154123115Y-74536591D01*
X154115054Y-74532485D01*
X154064259Y-74484512D01*
X154047463Y-74416692D01*
X154069999Y-74350556D01*
X154115054Y-74311515D01*
X154123816Y-74307051D01*
X154145789Y-74291086D01*
X154295786Y-74182109D01*
X154295788Y-74182106D01*
X154295792Y-74182104D01*
X154446104Y-74031792D01*
X154446106Y-74031788D01*
X154446109Y-74031786D01*
X154571048Y-73859820D01*
X154571047Y-73859820D01*
X154571051Y-73859816D01*
X154667557Y-73670412D01*
X154733246Y-73468243D01*
X154766500Y-73258287D01*
X154766500Y-73045713D01*
X154733246Y-72835757D01*
X154667557Y-72633588D01*
X154571051Y-72444184D01*
X154571049Y-72444181D01*
X154571048Y-72444179D01*
X154446109Y-72272213D01*
X154295786Y-72121890D01*
X154123820Y-71996951D01*
X154123115Y-71996591D01*
X154115054Y-71992485D01*
X154064259Y-71944512D01*
X154047463Y-71876692D01*
X154069999Y-71810556D01*
X154115054Y-71771515D01*
X154123816Y-71767051D01*
X154189291Y-71719481D01*
X154295786Y-71642109D01*
X154295788Y-71642106D01*
X154295792Y-71642104D01*
X154446104Y-71491792D01*
X154446106Y-71491788D01*
X154446109Y-71491786D01*
X154571048Y-71319820D01*
X154571047Y-71319820D01*
X154571051Y-71319816D01*
X154667557Y-71130412D01*
X154733246Y-70928243D01*
X154766500Y-70718287D01*
X154766500Y-70505713D01*
X154733246Y-70295757D01*
X154667557Y-70093588D01*
X154571051Y-69904184D01*
X154571049Y-69904181D01*
X154571048Y-69904179D01*
X154446109Y-69732213D01*
X154295786Y-69581890D01*
X154123820Y-69456951D01*
X154123115Y-69456591D01*
X154115054Y-69452485D01*
X154064259Y-69404512D01*
X154047463Y-69336692D01*
X154069999Y-69270556D01*
X154115054Y-69231515D01*
X154123816Y-69227051D01*
X154239623Y-69142913D01*
X154295786Y-69102109D01*
X154295788Y-69102106D01*
X154295792Y-69102104D01*
X154446104Y-68951792D01*
X154446106Y-68951788D01*
X154446109Y-68951786D01*
X154571048Y-68779820D01*
X154571047Y-68779820D01*
X154571051Y-68779816D01*
X154667557Y-68590412D01*
X154733246Y-68388243D01*
X154766500Y-68178287D01*
X154766500Y-67965713D01*
X154733246Y-67755757D01*
X154667557Y-67553588D01*
X154571051Y-67364184D01*
X154571049Y-67364181D01*
X154571048Y-67364179D01*
X154446109Y-67192213D01*
X154295786Y-67041890D01*
X154123820Y-66916951D01*
X154123115Y-66916591D01*
X154115054Y-66912485D01*
X154064259Y-66864512D01*
X154047463Y-66796692D01*
X154069999Y-66730556D01*
X154115054Y-66691515D01*
X154123816Y-66687051D01*
X154199032Y-66632404D01*
X154295786Y-66562109D01*
X154295788Y-66562106D01*
X154295792Y-66562104D01*
X154446104Y-66411792D01*
X154446106Y-66411788D01*
X154446109Y-66411786D01*
X154571048Y-66239820D01*
X154571047Y-66239820D01*
X154571051Y-66239816D01*
X154667557Y-66050412D01*
X154733246Y-65848243D01*
X154766500Y-65638287D01*
X154766500Y-65425713D01*
X154733246Y-65215757D01*
X154667557Y-65013588D01*
X154571051Y-64824184D01*
X154571049Y-64824181D01*
X154571048Y-64824179D01*
X154446109Y-64652213D01*
X154295786Y-64501890D01*
X154123820Y-64376951D01*
X154123115Y-64376591D01*
X154115054Y-64372485D01*
X154064259Y-64324512D01*
X154047463Y-64256692D01*
X154069999Y-64190556D01*
X154115054Y-64151515D01*
X154123816Y-64147051D01*
X154145789Y-64131086D01*
X154295786Y-64022109D01*
X154295788Y-64022106D01*
X154295792Y-64022104D01*
X154446104Y-63871792D01*
X154446106Y-63871788D01*
X154446109Y-63871786D01*
X154571048Y-63699820D01*
X154571047Y-63699820D01*
X154571051Y-63699816D01*
X154667557Y-63510412D01*
X154733246Y-63308243D01*
X154766500Y-63098287D01*
X154766500Y-62885713D01*
X154733246Y-62675757D01*
X154667557Y-62473588D01*
X154571051Y-62284184D01*
X154571049Y-62284181D01*
X154571048Y-62284179D01*
X154446109Y-62112213D01*
X154295786Y-61961890D01*
X154123820Y-61836951D01*
X154123115Y-61836591D01*
X154115054Y-61832485D01*
X154064259Y-61784512D01*
X154047463Y-61716692D01*
X154069999Y-61650556D01*
X154115054Y-61611515D01*
X154123816Y-61607051D01*
X154145789Y-61591086D01*
X154295786Y-61482109D01*
X154295788Y-61482106D01*
X154295792Y-61482104D01*
X154446104Y-61331792D01*
X154446106Y-61331788D01*
X154446109Y-61331786D01*
X154571048Y-61159820D01*
X154571047Y-61159820D01*
X154571051Y-61159816D01*
X154667557Y-60970412D01*
X154733246Y-60768243D01*
X154766500Y-60558287D01*
X154766500Y-60345713D01*
X154733246Y-60135757D01*
X154667557Y-59933588D01*
X154571051Y-59744184D01*
X154571049Y-59744181D01*
X154571048Y-59744179D01*
X154446109Y-59572213D01*
X154295786Y-59421890D01*
X154123817Y-59296949D01*
X154114504Y-59292204D01*
X154063707Y-59244230D01*
X154046912Y-59176409D01*
X154069449Y-59110274D01*
X154114507Y-59071232D01*
X154123555Y-59066622D01*
X154177716Y-59027270D01*
X154177717Y-59027270D01*
X153545408Y-58394962D01*
X153608993Y-58377925D01*
X153723007Y-58312099D01*
X153816099Y-58219007D01*
X153881925Y-58104993D01*
X153898962Y-58041409D01*
X154531270Y-58673717D01*
X154531270Y-58673716D01*
X154570622Y-58619554D01*
X154667095Y-58430217D01*
X154732757Y-58228130D01*
X154732757Y-58228127D01*
X154766000Y-58018246D01*
X154766000Y-57805753D01*
X154732757Y-57595872D01*
X154732757Y-57595869D01*
X154667095Y-57393782D01*
X154570624Y-57204449D01*
X154531270Y-57150282D01*
X154531269Y-57150282D01*
X153898962Y-57782590D01*
X153881925Y-57719007D01*
X153816099Y-57604993D01*
X153723007Y-57511901D01*
X153608993Y-57446075D01*
X153545409Y-57429037D01*
X154177716Y-56796728D01*
X154123550Y-56757375D01*
X153934217Y-56660904D01*
X153732129Y-56595242D01*
X153522246Y-56562000D01*
X153309754Y-56562000D01*
X153099872Y-56595242D01*
X153099869Y-56595242D01*
X152897782Y-56660904D01*
X152708439Y-56757380D01*
X152654282Y-56796727D01*
X152654282Y-56796728D01*
X153286591Y-57429037D01*
X153223007Y-57446075D01*
X153108993Y-57511901D01*
X153015901Y-57604993D01*
X152950075Y-57719007D01*
X152933037Y-57782591D01*
X152300728Y-57150282D01*
X152300727Y-57150282D01*
X152261380Y-57204439D01*
X152164904Y-57393782D01*
X152099242Y-57595869D01*
X152099242Y-57595872D01*
X152066000Y-57805753D01*
X152066000Y-58018246D01*
X152099242Y-58228127D01*
X152099242Y-58228130D01*
X152164904Y-58430217D01*
X152261375Y-58619550D01*
X152300728Y-58673716D01*
X152933037Y-58041408D01*
X152950075Y-58104993D01*
X153015901Y-58219007D01*
X153108993Y-58312099D01*
X153223007Y-58377925D01*
X153286590Y-58394962D01*
X152654282Y-59027269D01*
X152654282Y-59027270D01*
X152708452Y-59066626D01*
X152708451Y-59066626D01*
X152717495Y-59071234D01*
X152768292Y-59119208D01*
X152785087Y-59187029D01*
X152762550Y-59253164D01*
X152717499Y-59292202D01*
X152708182Y-59296949D01*
X152536213Y-59421890D01*
X152385890Y-59572213D01*
X152260951Y-59744179D01*
X152164444Y-59933585D01*
X152098753Y-60135760D01*
X152065500Y-60345713D01*
X152065500Y-60558286D01*
X152098753Y-60768239D01*
X152164444Y-60970414D01*
X152260951Y-61159820D01*
X152385890Y-61331786D01*
X152536213Y-61482109D01*
X152708182Y-61607050D01*
X152716946Y-61611516D01*
X152767742Y-61659491D01*
X152784536Y-61727312D01*
X152761998Y-61793447D01*
X152716946Y-61832484D01*
X152708182Y-61836949D01*
X152536213Y-61961890D01*
X152385890Y-62112213D01*
X152260948Y-62284184D01*
X152260947Y-62284185D01*
X152240765Y-62323795D01*
X152192791Y-62374591D01*
X152130281Y-62391500D01*
X148244669Y-62391500D01*
X148244653Y-62391499D01*
X148237057Y-62391499D01*
X148078943Y-62391499D01*
X147971587Y-62420265D01*
X147926210Y-62432424D01*
X147926209Y-62432425D01*
X147876096Y-62461359D01*
X147876095Y-62461360D01*
X147832689Y-62486420D01*
X147789285Y-62511479D01*
X147789282Y-62511481D01*
X147677478Y-62623286D01*
X140950084Y-69350681D01*
X140888761Y-69384166D01*
X140862403Y-69387000D01*
X136999169Y-69387000D01*
X136999153Y-69386999D01*
X136991557Y-69386999D01*
X136833443Y-69386999D01*
X136734288Y-69413568D01*
X136680710Y-69427924D01*
X136680709Y-69427925D01*
X136630596Y-69456859D01*
X136630595Y-69456860D01*
X136587189Y-69481920D01*
X136543785Y-69506979D01*
X136543782Y-69506981D01*
X136431978Y-69618786D01*
X133935694Y-72115069D01*
X133874371Y-72148554D01*
X133849603Y-72151378D01*
X130397828Y-72195631D01*
X130330541Y-72176807D01*
X130308557Y-72159322D01*
X129987590Y-71838355D01*
X129987588Y-71838352D01*
X129868717Y-71719481D01*
X129868716Y-71719480D01*
X129791895Y-71675128D01*
X129788580Y-71673214D01*
X129788577Y-71673213D01*
X129781904Y-71669360D01*
X129731785Y-71640423D01*
X129674637Y-71625110D01*
X129666759Y-71621784D01*
X129651001Y-71608908D01*
X129627307Y-71595228D01*
X129610292Y-71578213D01*
X129610288Y-71578210D01*
X129479185Y-71490609D01*
X129479172Y-71490602D01*
X129333501Y-71430264D01*
X129333489Y-71430261D01*
X129178845Y-71399500D01*
X129178842Y-71399500D01*
X129021158Y-71399500D01*
X129021155Y-71399500D01*
X128866510Y-71430261D01*
X128866498Y-71430264D01*
X128720827Y-71490602D01*
X128720814Y-71490609D01*
X128589711Y-71578210D01*
X128589707Y-71578213D01*
X128478213Y-71689707D01*
X128478210Y-71689711D01*
X128390609Y-71820814D01*
X128390602Y-71820827D01*
X128330264Y-71966498D01*
X128330261Y-71966510D01*
X128299500Y-72121153D01*
X128299500Y-72278846D01*
X128330261Y-72433489D01*
X128330264Y-72433501D01*
X128390602Y-72579172D01*
X128390609Y-72579185D01*
X128450304Y-72668524D01*
X128471182Y-72735201D01*
X128452698Y-72802582D01*
X128450306Y-72806304D01*
X128440607Y-72820819D01*
X128440602Y-72820828D01*
X128380264Y-72966498D01*
X128380261Y-72966510D01*
X128349500Y-73121153D01*
X128349500Y-73278846D01*
X128380261Y-73433489D01*
X128380264Y-73433501D01*
X128440602Y-73579172D01*
X128440609Y-73579185D01*
X128528210Y-73710288D01*
X128528213Y-73710292D01*
X128639707Y-73821786D01*
X128639711Y-73821789D01*
X128770814Y-73909390D01*
X128770827Y-73909397D01*
X128916498Y-73969735D01*
X128916503Y-73969737D01*
X129041698Y-73994640D01*
X129071153Y-74000499D01*
X129071156Y-74000500D01*
X129071158Y-74000500D01*
X129228844Y-74000500D01*
X129228845Y-74000499D01*
X129383497Y-73969737D01*
X129402475Y-73961875D01*
X129471941Y-73954406D01*
X129491626Y-73959658D01*
X129589585Y-73994643D01*
X129608833Y-74003436D01*
X129623623Y-74011786D01*
X129623625Y-74011786D01*
X129623626Y-74011787D01*
X129668299Y-74023296D01*
X129679027Y-74026586D01*
X129722481Y-74042106D01*
X129731369Y-74042829D01*
X129739408Y-74043484D01*
X129760286Y-74046996D01*
X129776740Y-74051235D01*
X129828496Y-74050735D01*
X129880074Y-74054934D01*
X129907232Y-74049975D01*
X133995943Y-74010524D01*
X134063167Y-74029561D01*
X134109429Y-74081921D01*
X134120039Y-74150980D01*
X134100241Y-74203407D01*
X134088607Y-74220818D01*
X134088602Y-74220827D01*
X134028264Y-74366498D01*
X134028261Y-74366508D01*
X133997362Y-74521849D01*
X133964977Y-74583759D01*
X133963426Y-74585338D01*
X133585584Y-74963181D01*
X133524261Y-74996666D01*
X133497903Y-74999500D01*
X126279057Y-74999500D01*
X126120942Y-74999500D01*
X125968215Y-75040423D01*
X125944322Y-75054218D01*
X125887803Y-75086849D01*
X125831285Y-75119479D01*
X125831282Y-75119481D01*
X125719478Y-75231286D01*
X124787584Y-76163181D01*
X124726261Y-76196666D01*
X124699903Y-76199500D01*
X124379766Y-76199500D01*
X124312727Y-76179815D01*
X124310875Y-76178602D01*
X124179185Y-76090609D01*
X124179172Y-76090602D01*
X124033501Y-76030264D01*
X124033489Y-76030261D01*
X123878845Y-75999500D01*
X123878842Y-75999500D01*
X123721158Y-75999500D01*
X123721155Y-75999500D01*
X123566510Y-76030261D01*
X123566498Y-76030264D01*
X123420827Y-76090602D01*
X123420814Y-76090609D01*
X123289711Y-76178210D01*
X123289707Y-76178213D01*
X123178213Y-76289707D01*
X123178210Y-76289711D01*
X123090609Y-76420814D01*
X123090602Y-76420827D01*
X123030264Y-76566498D01*
X123030261Y-76566510D01*
X122999500Y-76721153D01*
X122999500Y-76878846D01*
X123030261Y-77033489D01*
X123030264Y-77033501D01*
X123090602Y-77179172D01*
X123090609Y-77179185D01*
X123178210Y-77310288D01*
X123178213Y-77310292D01*
X123289707Y-77421786D01*
X123289711Y-77421789D01*
X123420814Y-77509390D01*
X123420827Y-77509397D01*
X123566498Y-77569735D01*
X123566503Y-77569737D01*
X123721153Y-77600499D01*
X123721156Y-77600500D01*
X123721158Y-77600500D01*
X123878844Y-77600500D01*
X123878845Y-77600499D01*
X124033497Y-77569737D01*
X124179179Y-77509394D01*
X124215180Y-77485339D01*
X124310875Y-77421398D01*
X124377553Y-77400520D01*
X124379766Y-77400500D01*
X124913331Y-77400500D01*
X124913347Y-77400501D01*
X124920943Y-77400501D01*
X125079054Y-77400501D01*
X125079057Y-77400501D01*
X125231785Y-77359577D01*
X125298328Y-77321158D01*
X125368716Y-77280520D01*
X125480520Y-77168716D01*
X125480520Y-77168714D01*
X125490724Y-77158511D01*
X125490727Y-77158506D01*
X126412416Y-76236819D01*
X126473739Y-76203334D01*
X126500097Y-76200500D01*
X128622152Y-76200500D01*
X128689191Y-76220185D01*
X128734946Y-76272989D01*
X128743769Y-76300308D01*
X128770261Y-76433491D01*
X128770264Y-76433501D01*
X128830602Y-76579172D01*
X128830606Y-76579179D01*
X128857436Y-76619333D01*
X128878314Y-76686010D01*
X128859830Y-76753390D01*
X128842016Y-76775905D01*
X128728210Y-76889711D01*
X128640609Y-77020814D01*
X128640602Y-77020827D01*
X128580264Y-77166498D01*
X128580261Y-77166510D01*
X128549500Y-77321153D01*
X128549500Y-77478846D01*
X128580261Y-77633489D01*
X128580264Y-77633501D01*
X128640602Y-77779172D01*
X128640609Y-77779185D01*
X128728210Y-77910288D01*
X128728213Y-77910292D01*
X128839707Y-78021786D01*
X128839711Y-78021789D01*
X128970814Y-78109390D01*
X128970827Y-78109397D01*
X129116498Y-78169735D01*
X129116503Y-78169737D01*
X129271158Y-78200500D01*
X129271847Y-78200637D01*
X129333758Y-78233022D01*
X129335337Y-78234573D01*
X129481284Y-78380520D01*
X129481286Y-78380521D01*
X129481290Y-78380524D01*
X129551088Y-78420821D01*
X129618216Y-78459577D01*
X129770943Y-78500501D01*
X129770945Y-78500501D01*
X129936654Y-78500501D01*
X129936670Y-78500500D01*
X134599903Y-78500500D01*
X134666942Y-78520185D01*
X134687584Y-78536819D01*
X137015148Y-80864383D01*
X137024991Y-80874228D01*
X137040196Y-80902081D01*
X137058467Y-80935542D01*
X137058466Y-80935547D01*
X137058470Y-80935554D01*
X137056083Y-80968866D01*
X137053483Y-81005234D01*
X137053478Y-81005240D01*
X137053478Y-81005245D01*
X137034783Y-81030213D01*
X137011611Y-81061167D01*
X137011605Y-81061169D01*
X137011601Y-81061175D01*
X136977168Y-81074013D01*
X136946147Y-81085584D01*
X136946135Y-81085584D01*
X136946134Y-81085585D01*
X136946131Y-81085584D01*
X136937301Y-81085900D01*
X130586498Y-81085900D01*
X130519459Y-81066215D01*
X130498817Y-81049581D01*
X130034573Y-80585337D01*
X130001088Y-80524014D01*
X130000637Y-80521847D01*
X130000500Y-80521158D01*
X129969737Y-80366503D01*
X129943870Y-80304054D01*
X129909397Y-80220827D01*
X129909390Y-80220814D01*
X129821789Y-80089711D01*
X129821786Y-80089707D01*
X129710292Y-79978213D01*
X129710288Y-79978210D01*
X129579185Y-79890609D01*
X129579172Y-79890602D01*
X129433501Y-79830264D01*
X129433489Y-79830261D01*
X129278845Y-79799500D01*
X129278842Y-79799500D01*
X129121158Y-79799500D01*
X129121155Y-79799500D01*
X128966510Y-79830261D01*
X128966498Y-79830264D01*
X128820827Y-79890602D01*
X128820814Y-79890609D01*
X128689711Y-79978210D01*
X128633759Y-80034162D01*
X128572435Y-80067646D01*
X128502743Y-80062661D01*
X128458397Y-80034161D01*
X128436819Y-80012583D01*
X128403334Y-79951260D01*
X128400500Y-79924902D01*
X128400500Y-79379765D01*
X128420185Y-79312726D01*
X128421398Y-79310874D01*
X128509390Y-79179185D01*
X128509390Y-79179184D01*
X128509394Y-79179179D01*
X128569737Y-79033497D01*
X128600500Y-78878842D01*
X128600500Y-78721158D01*
X128600500Y-78721155D01*
X128600499Y-78721153D01*
X128569738Y-78566510D01*
X128569737Y-78566503D01*
X128550552Y-78520185D01*
X128509397Y-78420827D01*
X128509390Y-78420814D01*
X128421789Y-78289711D01*
X128421786Y-78289707D01*
X128310292Y-78178213D01*
X128310288Y-78178210D01*
X128179185Y-78090609D01*
X128179172Y-78090602D01*
X128033501Y-78030264D01*
X128033489Y-78030261D01*
X127878845Y-77999500D01*
X127878842Y-77999500D01*
X127721158Y-77999500D01*
X127721155Y-77999500D01*
X127566510Y-78030261D01*
X127566498Y-78030264D01*
X127420827Y-78090602D01*
X127420814Y-78090609D01*
X127289711Y-78178210D01*
X127289707Y-78178213D01*
X127178213Y-78289707D01*
X127178210Y-78289711D01*
X127090609Y-78420814D01*
X127090602Y-78420827D01*
X127030264Y-78566498D01*
X127030261Y-78566510D01*
X126999500Y-78721153D01*
X126999500Y-78878846D01*
X127030261Y-79033489D01*
X127030264Y-79033501D01*
X127090602Y-79179172D01*
X127090609Y-79179185D01*
X127178602Y-79310874D01*
X127199480Y-79377551D01*
X127199500Y-79379765D01*
X127199500Y-80138330D01*
X127199499Y-80138348D01*
X127199499Y-80304054D01*
X127199498Y-80304054D01*
X127199499Y-80304057D01*
X127240423Y-80456785D01*
X127240424Y-80456787D01*
X127240423Y-80456787D01*
X127245385Y-80465380D01*
X127245386Y-80465381D01*
X127319477Y-80593712D01*
X127319481Y-80593717D01*
X127438349Y-80712585D01*
X127438354Y-80712589D01*
X129906284Y-83180520D01*
X129906286Y-83180521D01*
X129912735Y-83185470D01*
X129911098Y-83187602D01*
X129950188Y-83228588D01*
X129963420Y-83297193D01*
X129937461Y-83362061D01*
X129927661Y-83373103D01*
X127587584Y-85713181D01*
X127526261Y-85746666D01*
X127499903Y-85749500D01*
X125860940Y-85749500D01*
X125820019Y-85760464D01*
X125820019Y-85760465D01*
X125782751Y-85770451D01*
X125708214Y-85790423D01*
X125708209Y-85790426D01*
X125571290Y-85869475D01*
X125571282Y-85869481D01*
X125459478Y-85981286D01*
X121524522Y-89916241D01*
X121463199Y-89949726D01*
X121398523Y-89946491D01*
X121356245Y-89932754D01*
X121216272Y-89910584D01*
X121146287Y-89899500D01*
X120933713Y-89899500D01*
X120887187Y-89906869D01*
X120723760Y-89932753D01*
X120521585Y-89998444D01*
X120332179Y-90094951D01*
X120160215Y-90219889D01*
X120046673Y-90333431D01*
X119985350Y-90366915D01*
X119915658Y-90361931D01*
X119859725Y-90320059D01*
X119842810Y-90289082D01*
X119793797Y-90157671D01*
X119793793Y-90157664D01*
X119707547Y-90042455D01*
X119707544Y-90042452D01*
X119592335Y-89956206D01*
X119592328Y-89956202D01*
X119457482Y-89905908D01*
X119457483Y-89905908D01*
X119397883Y-89899501D01*
X119397881Y-89899500D01*
X119397873Y-89899500D01*
X119397864Y-89899500D01*
X117602129Y-89899500D01*
X117602123Y-89899501D01*
X117542516Y-89905908D01*
X117407671Y-89956202D01*
X117407664Y-89956206D01*
X117292455Y-90042452D01*
X117292452Y-90042455D01*
X117206206Y-90157664D01*
X117206202Y-90157671D01*
X117155908Y-90292517D01*
X117149501Y-90352116D01*
X117149500Y-90352135D01*
X100000500Y-90352135D01*
X100000500Y-81438905D01*
X102000000Y-81438905D01*
X102000000Y-81701094D01*
X102034220Y-81961009D01*
X102034222Y-81961020D01*
X102102075Y-82214255D01*
X102202404Y-82456471D01*
X102202409Y-82456482D01*
X102333488Y-82683516D01*
X102333494Y-82683524D01*
X102420080Y-82796365D01*
X103027912Y-82188532D01*
X103122829Y-82319175D01*
X103250825Y-82447171D01*
X103381465Y-82542086D01*
X102773633Y-83149917D01*
X102773633Y-83149918D01*
X102886475Y-83236505D01*
X102886483Y-83236511D01*
X103113517Y-83367590D01*
X103113528Y-83367595D01*
X103355744Y-83467924D01*
X103608979Y-83535777D01*
X103608990Y-83535779D01*
X103868905Y-83569999D01*
X103868920Y-83570000D01*
X104131080Y-83570000D01*
X104131094Y-83569999D01*
X104391009Y-83535779D01*
X104391020Y-83535777D01*
X104644255Y-83467924D01*
X104886471Y-83367595D01*
X104886482Y-83367590D01*
X105113516Y-83236511D01*
X105113534Y-83236499D01*
X105226365Y-83149919D01*
X105226365Y-83149917D01*
X104618534Y-82542086D01*
X104749175Y-82447171D01*
X104877171Y-82319175D01*
X104972086Y-82188534D01*
X105579917Y-82796365D01*
X105579919Y-82796365D01*
X105666499Y-82683534D01*
X105666511Y-82683516D01*
X105797590Y-82456482D01*
X105797595Y-82456471D01*
X105897924Y-82214255D01*
X105965777Y-81961020D01*
X105965779Y-81961009D01*
X105999999Y-81701094D01*
X106000000Y-81701080D01*
X106000000Y-81438919D01*
X105999999Y-81438905D01*
X105965779Y-81178990D01*
X105965777Y-81178979D01*
X105897924Y-80925744D01*
X105797595Y-80683528D01*
X105797590Y-80683517D01*
X105666511Y-80456483D01*
X105666505Y-80456475D01*
X105579918Y-80343633D01*
X105579917Y-80343633D01*
X104972085Y-80951465D01*
X104877171Y-80820825D01*
X104749175Y-80692829D01*
X104618532Y-80597912D01*
X105226365Y-79990080D01*
X105113524Y-79903494D01*
X105113516Y-79903488D01*
X104886482Y-79772409D01*
X104886471Y-79772404D01*
X104644255Y-79672075D01*
X104391020Y-79604222D01*
X104391009Y-79604220D01*
X104131094Y-79570000D01*
X103868905Y-79570000D01*
X103608990Y-79604220D01*
X103608979Y-79604222D01*
X103355744Y-79672075D01*
X103113528Y-79772404D01*
X103113517Y-79772409D01*
X102886471Y-79903496D01*
X102773633Y-79990079D01*
X102773633Y-79990080D01*
X103381466Y-80597913D01*
X103250825Y-80692829D01*
X103122829Y-80820825D01*
X103027913Y-80951466D01*
X102420080Y-80343633D01*
X102420079Y-80343633D01*
X102333496Y-80456471D01*
X102202409Y-80683517D01*
X102202404Y-80683528D01*
X102102075Y-80925744D01*
X102034222Y-81178979D01*
X102034220Y-81178990D01*
X102000000Y-81438905D01*
X100000500Y-81438905D01*
X100000500Y-71521153D01*
X109199500Y-71521153D01*
X109199500Y-71678846D01*
X109230261Y-71833489D01*
X109230264Y-71833501D01*
X109290602Y-71979172D01*
X109290609Y-71979185D01*
X109378210Y-72110288D01*
X109378213Y-72110292D01*
X109489707Y-72221786D01*
X109489711Y-72221789D01*
X109620814Y-72309390D01*
X109620827Y-72309397D01*
X109766498Y-72369735D01*
X109766503Y-72369737D01*
X109921153Y-72400499D01*
X109921156Y-72400500D01*
X109921158Y-72400500D01*
X110078844Y-72400500D01*
X110078845Y-72400499D01*
X110233497Y-72369737D01*
X110379179Y-72309394D01*
X110379185Y-72309390D01*
X110510875Y-72221398D01*
X110577553Y-72200520D01*
X110579766Y-72200500D01*
X113099903Y-72200500D01*
X113166942Y-72220185D01*
X113187584Y-72236819D01*
X117765425Y-76814660D01*
X117798910Y-76875983D01*
X117799361Y-76878149D01*
X117830261Y-77033491D01*
X117830264Y-77033501D01*
X117890602Y-77179172D01*
X117890609Y-77179185D01*
X117978210Y-77310288D01*
X117978213Y-77310292D01*
X118089707Y-77421786D01*
X118089711Y-77421789D01*
X118220814Y-77509390D01*
X118220827Y-77509397D01*
X118366498Y-77569735D01*
X118366503Y-77569737D01*
X118521153Y-77600499D01*
X118521156Y-77600500D01*
X118521158Y-77600500D01*
X118678844Y-77600500D01*
X118678845Y-77600499D01*
X118833497Y-77569737D01*
X118979179Y-77509394D01*
X119110289Y-77421789D01*
X119221789Y-77310289D01*
X119309394Y-77179179D01*
X119369737Y-77033497D01*
X119400500Y-76878842D01*
X119400500Y-76721158D01*
X119400500Y-76721155D01*
X119400499Y-76721153D01*
X119398338Y-76710289D01*
X119369737Y-76566503D01*
X119369735Y-76566498D01*
X119309397Y-76420827D01*
X119309390Y-76420814D01*
X119221789Y-76289711D01*
X119221786Y-76289707D01*
X119110292Y-76178213D01*
X119110288Y-76178210D01*
X118979185Y-76090609D01*
X118979172Y-76090602D01*
X118833501Y-76030264D01*
X118833491Y-76030261D01*
X118678151Y-75999362D01*
X118616241Y-75966977D01*
X118614662Y-75965426D01*
X117052793Y-74403557D01*
X115364013Y-72714778D01*
X117749500Y-72714778D01*
X117749500Y-72935222D01*
X117754456Y-72966510D01*
X117783985Y-73152952D01*
X117852103Y-73362603D01*
X117852104Y-73362606D01*
X117952187Y-73559025D01*
X118081752Y-73737358D01*
X118081756Y-73737363D01*
X118237636Y-73893243D01*
X118237641Y-73893247D01*
X118329052Y-73959660D01*
X118415978Y-74022815D01*
X118531979Y-74081921D01*
X118612393Y-74122895D01*
X118612396Y-74122896D01*
X118698832Y-74150980D01*
X118822049Y-74191015D01*
X119039778Y-74225500D01*
X119039779Y-74225500D01*
X119260221Y-74225500D01*
X119260222Y-74225500D01*
X119477951Y-74191015D01*
X119687606Y-74122895D01*
X119884022Y-74022815D01*
X120062365Y-73893242D01*
X120218242Y-73737365D01*
X120347815Y-73559022D01*
X120447895Y-73362606D01*
X120516015Y-73152951D01*
X120550500Y-72935222D01*
X120550500Y-72714778D01*
X120516015Y-72497049D01*
X120474650Y-72369738D01*
X120447896Y-72287396D01*
X120447895Y-72287393D01*
X120401139Y-72195631D01*
X120347815Y-72090978D01*
X120279501Y-71996951D01*
X120218247Y-71912641D01*
X120218243Y-71912636D01*
X120167683Y-71862076D01*
X120134198Y-71800753D01*
X120139182Y-71731061D01*
X120181054Y-71675128D01*
X120212031Y-71658213D01*
X120292086Y-71628354D01*
X120292093Y-71628350D01*
X120407187Y-71542190D01*
X120407190Y-71542187D01*
X120493350Y-71427093D01*
X120493354Y-71427086D01*
X120543596Y-71292379D01*
X120543598Y-71292372D01*
X120549999Y-71232844D01*
X120550000Y-71232827D01*
X120550000Y-70535000D01*
X119525278Y-70535000D01*
X119569333Y-70458694D01*
X119600000Y-70344244D01*
X119600000Y-70225756D01*
X119569333Y-70111306D01*
X119525278Y-70035000D01*
X120550000Y-70035000D01*
X120550000Y-69337172D01*
X120549999Y-69337155D01*
X120543598Y-69277627D01*
X120543596Y-69277620D01*
X120493354Y-69142913D01*
X120493350Y-69142906D01*
X120407190Y-69027812D01*
X120407187Y-69027809D01*
X120292093Y-68941649D01*
X120292086Y-68941645D01*
X120157379Y-68891403D01*
X120157372Y-68891401D01*
X120097844Y-68885000D01*
X119400000Y-68885000D01*
X119400000Y-69909722D01*
X119323694Y-69865667D01*
X119209244Y-69835000D01*
X119090756Y-69835000D01*
X118976306Y-69865667D01*
X118900000Y-69909722D01*
X118900000Y-68885000D01*
X118202155Y-68885000D01*
X118142627Y-68891401D01*
X118142620Y-68891403D01*
X118007913Y-68941645D01*
X118007906Y-68941649D01*
X117892812Y-69027809D01*
X117892809Y-69027812D01*
X117806649Y-69142906D01*
X117806645Y-69142913D01*
X117756403Y-69277620D01*
X117756401Y-69277627D01*
X117750000Y-69337155D01*
X117750000Y-70035000D01*
X118774722Y-70035000D01*
X118730667Y-70111306D01*
X118700000Y-70225756D01*
X118700000Y-70344244D01*
X118730667Y-70458694D01*
X118774722Y-70535000D01*
X117750000Y-70535000D01*
X117750000Y-71232844D01*
X117756401Y-71292372D01*
X117756403Y-71292379D01*
X117806645Y-71427086D01*
X117806649Y-71427093D01*
X117892809Y-71542187D01*
X117892812Y-71542190D01*
X118007906Y-71628350D01*
X118007913Y-71628354D01*
X118087968Y-71658213D01*
X118143902Y-71700084D01*
X118168319Y-71765549D01*
X118153467Y-71833822D01*
X118132317Y-71862075D01*
X118081756Y-71912636D01*
X118081752Y-71912641D01*
X117952187Y-72090974D01*
X117852104Y-72287393D01*
X117852103Y-72287396D01*
X117783985Y-72497047D01*
X117783985Y-72497049D01*
X117749500Y-72714778D01*
X115364013Y-72714778D01*
X113887589Y-71238354D01*
X113887588Y-71238352D01*
X113768717Y-71119481D01*
X113768716Y-71119480D01*
X113681904Y-71069360D01*
X113681904Y-71069359D01*
X113681900Y-71069358D01*
X113631785Y-71040423D01*
X113479057Y-70999499D01*
X113320943Y-70999499D01*
X113313347Y-70999499D01*
X113313331Y-70999500D01*
X110579766Y-70999500D01*
X110512727Y-70979815D01*
X110510875Y-70978602D01*
X110379185Y-70890609D01*
X110379172Y-70890602D01*
X110233501Y-70830264D01*
X110233489Y-70830261D01*
X110078845Y-70799500D01*
X110078842Y-70799500D01*
X109921158Y-70799500D01*
X109921155Y-70799500D01*
X109766510Y-70830261D01*
X109766498Y-70830264D01*
X109620827Y-70890602D01*
X109620814Y-70890609D01*
X109489711Y-70978210D01*
X109489707Y-70978213D01*
X109378213Y-71089707D01*
X109378210Y-71089711D01*
X109290609Y-71220814D01*
X109290602Y-71220827D01*
X109230264Y-71366498D01*
X109230261Y-71366510D01*
X109199500Y-71521153D01*
X100000500Y-71521153D01*
X100000500Y-68298905D01*
X102000000Y-68298905D01*
X102000000Y-68561094D01*
X102034220Y-68821009D01*
X102034222Y-68821020D01*
X102102075Y-69074255D01*
X102202404Y-69316471D01*
X102202409Y-69316482D01*
X102333488Y-69543516D01*
X102333494Y-69543524D01*
X102420080Y-69656365D01*
X103027912Y-69048532D01*
X103122829Y-69179175D01*
X103250825Y-69307171D01*
X103381465Y-69402086D01*
X102773633Y-70009917D01*
X102773633Y-70009918D01*
X102886475Y-70096505D01*
X102886483Y-70096511D01*
X103113517Y-70227590D01*
X103113528Y-70227595D01*
X103355744Y-70327924D01*
X103608979Y-70395777D01*
X103608990Y-70395779D01*
X103868905Y-70429999D01*
X103868920Y-70430000D01*
X104131080Y-70430000D01*
X104131094Y-70429999D01*
X104391009Y-70395779D01*
X104391020Y-70395777D01*
X104644255Y-70327924D01*
X104886471Y-70227595D01*
X104886482Y-70227590D01*
X105113516Y-70096511D01*
X105113534Y-70096499D01*
X105226365Y-70009919D01*
X105226365Y-70009917D01*
X104618534Y-69402086D01*
X104749175Y-69307171D01*
X104877171Y-69179175D01*
X104972086Y-69048534D01*
X105579917Y-69656365D01*
X105579919Y-69656365D01*
X105666499Y-69543534D01*
X105666511Y-69543516D01*
X105797590Y-69316482D01*
X105797595Y-69316472D01*
X105810053Y-69286397D01*
X105810054Y-69286394D01*
X105897923Y-69074258D01*
X105965777Y-68821020D01*
X105965779Y-68821009D01*
X105999999Y-68561094D01*
X106000000Y-68561080D01*
X106000000Y-68521153D01*
X126999500Y-68521153D01*
X126999500Y-68678846D01*
X127030261Y-68833489D01*
X127030264Y-68833501D01*
X127090602Y-68979172D01*
X127090609Y-68979185D01*
X127178210Y-69110288D01*
X127178213Y-69110292D01*
X127289707Y-69221786D01*
X127289711Y-69221789D01*
X127420814Y-69309390D01*
X127420827Y-69309397D01*
X127520497Y-69350681D01*
X127566503Y-69369737D01*
X127721153Y-69400499D01*
X127721156Y-69400500D01*
X127721158Y-69400500D01*
X127878844Y-69400500D01*
X127878845Y-69400499D01*
X128033497Y-69369737D01*
X128162091Y-69316472D01*
X128179172Y-69309397D01*
X128179172Y-69309396D01*
X128179179Y-69309394D01*
X128182506Y-69307171D01*
X128310875Y-69221398D01*
X128377553Y-69200520D01*
X128379766Y-69200500D01*
X131133741Y-69200500D01*
X131200780Y-69220185D01*
X131246535Y-69272989D01*
X131248302Y-69277048D01*
X131290602Y-69379172D01*
X131290609Y-69379185D01*
X131378210Y-69510288D01*
X131378213Y-69510292D01*
X131489707Y-69621786D01*
X131489711Y-69621789D01*
X131620814Y-69709390D01*
X131620827Y-69709397D01*
X131675911Y-69732213D01*
X131766503Y-69769737D01*
X131921153Y-69800499D01*
X131921156Y-69800500D01*
X131921158Y-69800500D01*
X132078844Y-69800500D01*
X132078845Y-69800499D01*
X132233497Y-69769737D01*
X132379179Y-69709394D01*
X132510289Y-69621789D01*
X132621789Y-69510289D01*
X132709394Y-69379179D01*
X132769737Y-69233497D01*
X132800500Y-69078842D01*
X132800500Y-68921158D01*
X132800500Y-68921155D01*
X132800499Y-68921153D01*
X132769738Y-68766510D01*
X132769737Y-68766503D01*
X132733427Y-68678842D01*
X132709397Y-68620827D01*
X132709390Y-68620814D01*
X132621789Y-68489711D01*
X132621786Y-68489707D01*
X132510292Y-68378213D01*
X132510288Y-68378210D01*
X132379185Y-68290609D01*
X132379172Y-68290602D01*
X132233501Y-68230264D01*
X132233491Y-68230261D01*
X132078151Y-68199362D01*
X132029185Y-68177865D01*
X132021446Y-68172210D01*
X131968716Y-68119480D01*
X131881904Y-68069360D01*
X131831785Y-68040423D01*
X131679057Y-67999499D01*
X131520943Y-67999499D01*
X131513347Y-67999499D01*
X131513331Y-67999500D01*
X128379766Y-67999500D01*
X128312727Y-67979815D01*
X128310875Y-67978602D01*
X128179185Y-67890609D01*
X128179172Y-67890602D01*
X128033501Y-67830264D01*
X128033489Y-67830261D01*
X127878845Y-67799500D01*
X127878842Y-67799500D01*
X127721158Y-67799500D01*
X127721155Y-67799500D01*
X127566510Y-67830261D01*
X127566498Y-67830264D01*
X127420827Y-67890602D01*
X127420814Y-67890609D01*
X127289711Y-67978210D01*
X127289707Y-67978213D01*
X127178213Y-68089707D01*
X127178210Y-68089711D01*
X127090609Y-68220814D01*
X127090602Y-68220827D01*
X127030264Y-68366498D01*
X127030261Y-68366510D01*
X126999500Y-68521153D01*
X106000000Y-68521153D01*
X106000000Y-68298919D01*
X105999999Y-68298905D01*
X105965779Y-68038990D01*
X105965777Y-68038979D01*
X105897924Y-67785744D01*
X105797595Y-67543528D01*
X105797590Y-67543517D01*
X105666511Y-67316483D01*
X105666505Y-67316475D01*
X105579918Y-67203633D01*
X105579917Y-67203633D01*
X104972085Y-67811465D01*
X104877171Y-67680825D01*
X104749175Y-67552829D01*
X104618532Y-67457912D01*
X105226365Y-66850080D01*
X105113524Y-66763494D01*
X105113516Y-66763488D01*
X104886482Y-66632409D01*
X104886471Y-66632404D01*
X104644255Y-66532075D01*
X104391020Y-66464222D01*
X104391009Y-66464220D01*
X104131094Y-66430000D01*
X103868905Y-66430000D01*
X103608990Y-66464220D01*
X103608979Y-66464222D01*
X103355744Y-66532075D01*
X103113528Y-66632404D01*
X103113517Y-66632409D01*
X102886471Y-66763496D01*
X102773633Y-66850079D01*
X102773633Y-66850080D01*
X103381466Y-67457913D01*
X103250825Y-67552829D01*
X103122829Y-67680825D01*
X103027913Y-67811466D01*
X102420080Y-67203633D01*
X102420079Y-67203633D01*
X102333496Y-67316471D01*
X102202409Y-67543517D01*
X102202404Y-67543528D01*
X102102075Y-67785744D01*
X102034222Y-68038979D01*
X102034220Y-68038990D01*
X102000000Y-68298905D01*
X100000500Y-68298905D01*
X100000500Y-54124500D01*
X100020185Y-54057461D01*
X100072989Y-54011706D01*
X100124500Y-54000500D01*
X156875500Y-54000500D01*
X156942539Y-54020185D01*
G37*
%TD.AperFunction*%
%TD*%
M02*
