%TF.GenerationSoftware,KiCad,Pcbnew,10.0.0*%
%TF.CreationDate,2026-04-26T15:23:31-05:00*%
%TF.ProjectId,Atmega328_Coursera,41746d65-6761-4333-9238-5f436f757273,rev?*%
%TF.SameCoordinates,Original*%
%TF.FileFunction,Paste,Top*%
%TF.FilePolarity,Positive*%
%FSLAX46Y46*%
G04 Gerber Fmt 4.6, Leading zero omitted, Abs format (unit mm)*
G04 Created by KiCad (PCBNEW 10.0.0) date 2026-04-26 15:23:31*
%MOMM*%
%LPD*%
G01*
G04 APERTURE LIST*
G04 Aperture macros list*
%AMRoundRect*
0 Rectangle with rounded corners*
0 $1 Rounding radius*
0 $2 $3 $4 $5 $6 $7 $8 $9 X,Y pos of 4 corners*
0 Add a 4 corners polygon primitive as box body*
4,1,4,$2,$3,$4,$5,$6,$7,$8,$9,$2,$3,0*
0 Add four circle primitives for the rounded corners*
1,1,$1+$1,$2,$3*
1,1,$1+$1,$4,$5*
1,1,$1+$1,$6,$7*
1,1,$1+$1,$8,$9*
0 Add four rect primitives between the rounded corners*
20,1,$1+$1,$2,$3,$4,$5,0*
20,1,$1+$1,$4,$5,$6,$7,0*
20,1,$1+$1,$6,$7,$8,$9,0*
20,1,$1+$1,$8,$9,$2,$3,0*%
G04 Aperture macros list end*
%ADD10RoundRect,0.250000X0.262500X0.450000X-0.262500X0.450000X-0.262500X-0.450000X0.262500X-0.450000X0*%
%ADD11RoundRect,0.375000X-0.375000X0.625000X-0.375000X-0.625000X0.375000X-0.625000X0.375000X0.625000X0*%
%ADD12RoundRect,0.500000X-1.400000X0.500000X-1.400000X-0.500000X1.400000X-0.500000X1.400000X0.500000X0*%
%ADD13RoundRect,0.243750X0.243750X0.456250X-0.243750X0.456250X-0.243750X-0.456250X0.243750X-0.456250X0*%
%ADD14RoundRect,0.250000X-0.650000X1.000000X-0.650000X-1.000000X0.650000X-1.000000X0.650000X1.000000X0*%
%ADD15RoundRect,0.250000X-1.250000X0.375000X-1.250000X-0.375000X1.250000X-0.375000X1.250000X0.375000X0*%
%ADD16RoundRect,0.250000X-0.262500X-0.450000X0.262500X-0.450000X0.262500X0.450000X-0.262500X0.450000X0*%
%ADD17RoundRect,0.250000X-2.000000X-0.750000X2.000000X-0.750000X2.000000X0.750000X-2.000000X0.750000X0*%
%ADD18RoundRect,0.137500X-0.137500X0.600000X-0.137500X-0.600000X0.137500X-0.600000X0.137500X0.600000X0*%
%ADD19RoundRect,0.137500X-0.600000X0.137500X-0.600000X-0.137500X0.600000X-0.137500X0.600000X0.137500X0*%
%ADD20RoundRect,0.250000X0.250000X0.475000X-0.250000X0.475000X-0.250000X-0.475000X0.250000X-0.475000X0*%
%ADD21RoundRect,0.250000X1.100000X-0.325000X1.100000X0.325000X-1.100000X0.325000X-1.100000X-0.325000X0*%
%ADD22RoundRect,0.250000X-0.650000X0.325000X-0.650000X-0.325000X0.650000X-0.325000X0.650000X0.325000X0*%
%ADD23RoundRect,0.250000X0.475000X-0.250000X0.475000X0.250000X-0.475000X0.250000X-0.475000X-0.250000X0*%
%ADD24RoundRect,0.250000X-0.325000X-1.100000X0.325000X-1.100000X0.325000X1.100000X-0.325000X1.100000X0*%
G04 APERTURE END LIST*
D10*
%TO.C,R5*%
X124864500Y-73152000D03*
X123039500Y-73152000D03*
%TD*%
D11*
%TO.C,U2*%
X120000000Y-62500000D03*
X117700000Y-62500000D03*
D12*
X117700000Y-68800000D03*
D11*
X115400000Y-62500000D03*
%TD*%
D13*
%TO.C,D1*%
X124889500Y-70866000D03*
X123014500Y-70866000D03*
%TD*%
D14*
%TO.C,D3*%
X119126000Y-82614000D03*
X119126000Y-86614000D03*
%TD*%
D15*
%TO.C,J1*%
X107680000Y-71500000D03*
X107680000Y-74000000D03*
X107680000Y-76000000D03*
X107680000Y-78500000D03*
%TD*%
D16*
%TO.C,R1*%
X112500000Y-73995991D03*
X114325000Y-73995991D03*
%TD*%
D17*
%TO.C,Y1*%
X130500000Y-65500000D03*
X139000000Y-65500000D03*
%TD*%
D16*
%TO.C,R3*%
X112489283Y-76000000D03*
X114314283Y-76000000D03*
%TD*%
D10*
%TO.C,R4*%
X122428000Y-76708000D03*
X120603000Y-76708000D03*
%TD*%
D18*
%TO.C,U1*%
X134800000Y-70837500D03*
X134000000Y-70837500D03*
X133200000Y-70837500D03*
X132400000Y-70837500D03*
X131600000Y-70837500D03*
X130800000Y-70837500D03*
X130000000Y-70837500D03*
X129200000Y-70837500D03*
D19*
X127837500Y-72200000D03*
X127837500Y-73000000D03*
X127837500Y-73800000D03*
X127837500Y-74600000D03*
X127837500Y-75400000D03*
X127837500Y-76200000D03*
X127837500Y-77000000D03*
X127837500Y-77800000D03*
D18*
X129200000Y-79162500D03*
X130000000Y-79162500D03*
X130800000Y-79162500D03*
X131600000Y-79162500D03*
X132400000Y-79162500D03*
X133200000Y-79162500D03*
X134000000Y-79162500D03*
X134800000Y-79162500D03*
D19*
X136162500Y-77800000D03*
X136162500Y-77000000D03*
X136162500Y-76200000D03*
X136162500Y-75400000D03*
X136162500Y-74600000D03*
X136162500Y-73800000D03*
X136162500Y-73000000D03*
X136162500Y-72200000D03*
%TD*%
D20*
%TO.C,C4*%
X127122000Y-81788000D03*
X125222000Y-81788000D03*
%TD*%
D21*
%TO.C,C7*%
X123500000Y-66475000D03*
X123500000Y-63525000D03*
%TD*%
D22*
%TO.C,C3*%
X111500000Y-61500000D03*
X111500000Y-64450000D03*
%TD*%
D23*
%TO.C,C1*%
X138600000Y-61800000D03*
X138600000Y-59900000D03*
%TD*%
%TO.C,C2*%
X129800000Y-61600000D03*
X129800000Y-59700000D03*
%TD*%
D24*
%TO.C,C6*%
X116050000Y-58000000D03*
X119000000Y-58000000D03*
%TD*%
D20*
%TO.C,C5*%
X127056000Y-84074000D03*
X125156000Y-84074000D03*
%TD*%
D16*
%TO.C,R2*%
X108307500Y-83820000D03*
X110132500Y-83820000D03*
%TD*%
D14*
%TO.C,D2*%
X114626000Y-82614000D03*
X114626000Y-86614000D03*
%TD*%
M02*
