%TF.GenerationSoftware,KiCad,Pcbnew,10.0.0*%
%TF.CreationDate,2026-05-07T16:59:58-05:00*%
%TF.ProjectId,Atmega328_Coursera,41746d65-6761-4333-9238-5f436f757273,rev?*%
%TF.SameCoordinates,Original*%
%TF.FileFunction,Drillmap*%
%TF.FilePolarity,Positive*%
%FSLAX45Y45*%
G04 Gerber Fmt 4.5, Leading zero omitted, Abs format (unit mm)*
G04 Created by KiCad (PCBNEW 10.0.0) date 2026-05-07 16:59:58*
%MOMM*%
%LPD*%
G01*
G04 APERTURE LIST*
%ADD10C,0.050000*%
%ADD11C,0.200000*%
%ADD12C,0.100000*%
%ADD13C,0.230000*%
%ADD14C,0.320000*%
G04 APERTURE END LIST*
D10*
X9950000Y-5350000D02*
X15750000Y-5350000D01*
X15750000Y-9500000D01*
X9950000Y-9500000D01*
X9950000Y-5350000D01*
D11*
D12*
X10322500Y-6350000D02*
X10352500Y-6380000D01*
X10352500Y-6350000D02*
X10322500Y-6380000D01*
X10983200Y-7833600D02*
X11013200Y-7863600D01*
X11013200Y-7833600D02*
X10983200Y-7863600D01*
X10985000Y-7145000D02*
X11015000Y-7175000D01*
X11015000Y-7145000D02*
X10985000Y-7175000D01*
X11047500Y-5725000D02*
X11077500Y-5755000D01*
X11077500Y-5725000D02*
X11047500Y-5755000D01*
X11267500Y-5730000D02*
X11297500Y-5760000D01*
X11297500Y-5730000D02*
X11267500Y-5760000D01*
X11445000Y-8865000D02*
X11475000Y-8895000D01*
X11475000Y-8865000D02*
X11445000Y-8895000D01*
X11845000Y-7665000D02*
X11875000Y-7695000D01*
X11875000Y-7665000D02*
X11845000Y-7695000D01*
X11897600Y-8852400D02*
X11927600Y-8882400D01*
X11927600Y-8852400D02*
X11897600Y-8882400D01*
X12365000Y-7665000D02*
X12395000Y-7695000D01*
X12395000Y-7665000D02*
X12365000Y-7695000D01*
X12373600Y-8163800D02*
X12403600Y-8193800D01*
X12403600Y-8163800D02*
X12373600Y-8193800D01*
X12373600Y-8392400D02*
X12403600Y-8422400D01*
X12403600Y-8392400D02*
X12373600Y-8422400D01*
X12445000Y-6090000D02*
X12475000Y-6120000D01*
X12475000Y-6090000D02*
X12445000Y-6120000D01*
X12764256Y-8702797D02*
X12794256Y-8732797D01*
X12794256Y-8702797D02*
X12764256Y-8732797D01*
X12765000Y-6845000D02*
X12795000Y-6875000D01*
X12795000Y-6845000D02*
X12765000Y-6875000D01*
X12765000Y-7865000D02*
X12795000Y-7895000D01*
X12795000Y-7865000D02*
X12765000Y-7895000D01*
X12895000Y-7205000D02*
X12925000Y-7235000D01*
X12925000Y-7205000D02*
X12895000Y-7235000D01*
X12900000Y-7305000D02*
X12930000Y-7335000D01*
X12930000Y-7305000D02*
X12900000Y-7335000D01*
X12905000Y-8045000D02*
X12935000Y-8075000D01*
X12935000Y-8045000D02*
X12905000Y-8075000D01*
X12920000Y-7725000D02*
X12950000Y-7755000D01*
X12950000Y-7725000D02*
X12920000Y-7755000D01*
X12939000Y-7605000D02*
X12969000Y-7635000D01*
X12969000Y-7605000D02*
X12939000Y-7635000D01*
X12954240Y-8554960D02*
X12984240Y-8584960D01*
X12984240Y-8554960D02*
X12954240Y-8584960D01*
X12965000Y-5845000D02*
X12995000Y-5875000D01*
X12995000Y-5845000D02*
X12965000Y-5875000D01*
X13066000Y-8316200D02*
X13096000Y-8346200D01*
X13096000Y-8316200D02*
X13066000Y-8346200D01*
X13145000Y-7180000D02*
X13175000Y-7210000D01*
X13175000Y-7180000D02*
X13145000Y-7210000D01*
X13185000Y-6885000D02*
X13215000Y-6915000D01*
X13215000Y-6885000D02*
X13185000Y-6915000D01*
X13225000Y-8025000D02*
X13255000Y-8055000D01*
X13255000Y-8025000D02*
X13225000Y-8055000D01*
X13305000Y-6905000D02*
X13335000Y-6935000D01*
X13335000Y-6905000D02*
X13305000Y-6935000D01*
X13307300Y-8328900D02*
X13337300Y-8358900D01*
X13337300Y-8328900D02*
X13307300Y-8358900D01*
X13464800Y-7445000D02*
X13494800Y-7475000D01*
X13494800Y-7445000D02*
X13464800Y-7475000D01*
X13845000Y-5845000D02*
X13875000Y-5875000D01*
X13875000Y-5845000D02*
X13845000Y-5875000D01*
X13955000Y-8035000D02*
X13985000Y-8065000D01*
X13985000Y-8035000D02*
X13955000Y-8065000D01*
X14115020Y-7993620D02*
X14145020Y-8023620D01*
X14145020Y-7993620D02*
X14115020Y-8023620D01*
X14184965Y-7932590D02*
X14214965Y-7962590D01*
X14214965Y-7932590D02*
X14184965Y-7962590D01*
X14265000Y-7735000D02*
X14295000Y-7765000D01*
X14295000Y-7735000D02*
X14265000Y-7765000D01*
X14335000Y-8255000D02*
X14365000Y-8285000D01*
X14365000Y-8255000D02*
X14335000Y-8285000D01*
X14820000Y-6365000D02*
X14850000Y-6395000D01*
X14850000Y-6365000D02*
X14820000Y-6395000D01*
X11960000Y-7028500D02*
G75*
G02*
X11870000Y-7028500I-45000J0D01*
G01*
X11870000Y-7028500D02*
G75*
G02*
X11960000Y-7028500I45000J0D01*
G01*
X11960000Y-7282500D02*
G75*
G02*
X11870000Y-7282500I-45000J0D01*
G01*
X11870000Y-7282500D02*
G75*
G02*
X11960000Y-7282500I45000J0D01*
G01*
X11850000Y-9075000D02*
X11850000Y-9175000D01*
X11800000Y-9125000D02*
X11900000Y-9125000D01*
X12104000Y-9075000D02*
X12104000Y-9175000D01*
X12054000Y-9125000D02*
X12154000Y-9125000D01*
X12358000Y-9075000D02*
X12358000Y-9175000D01*
X12308000Y-9125000D02*
X12408000Y-9125000D01*
X12612000Y-9075000D02*
X12612000Y-9175000D01*
X12562000Y-9125000D02*
X12662000Y-9125000D01*
X12866000Y-9075000D02*
X12866000Y-9175000D01*
X12816000Y-9125000D02*
X12916000Y-9125000D01*
X13120000Y-9075000D02*
X13120000Y-9175000D01*
X13070000Y-9125000D02*
X13170000Y-9125000D01*
X13374000Y-9075000D02*
X13374000Y-9175000D01*
X13324000Y-9125000D02*
X13424000Y-9125000D01*
X13628000Y-9075000D02*
X13628000Y-9175000D01*
X13578000Y-9125000D02*
X13678000Y-9125000D01*
X13882000Y-9075000D02*
X13882000Y-9175000D01*
X13832000Y-9125000D02*
X13932000Y-9125000D01*
X14136000Y-9075000D02*
X14136000Y-9175000D01*
X14086000Y-9125000D02*
X14186000Y-9125000D01*
X14390000Y-9075000D02*
X14390000Y-9175000D01*
X14340000Y-9125000D02*
X14440000Y-9125000D01*
X14644000Y-9075000D02*
X14644000Y-9175000D01*
X14594000Y-9125000D02*
X14694000Y-9125000D01*
X15341600Y-5741200D02*
X15341600Y-5841200D01*
X15291600Y-5791200D02*
X15391600Y-5791200D01*
X15341600Y-5995200D02*
X15341600Y-6095200D01*
X15291600Y-6045200D02*
X15391600Y-6045200D01*
X15341600Y-6249200D02*
X15341600Y-6349200D01*
X15291600Y-6299200D02*
X15391600Y-6299200D01*
X15341600Y-6503200D02*
X15341600Y-6603200D01*
X15291600Y-6553200D02*
X15391600Y-6553200D01*
X15341600Y-6757200D02*
X15341600Y-6857200D01*
X15291600Y-6807200D02*
X15391600Y-6807200D01*
X15341600Y-7011200D02*
X15341600Y-7111200D01*
X15291600Y-7061200D02*
X15391600Y-7061200D01*
X15341600Y-7265200D02*
X15341600Y-7365200D01*
X15291600Y-7315200D02*
X15391600Y-7315200D01*
X15341600Y-7519200D02*
X15341600Y-7619200D01*
X15291600Y-7569200D02*
X15391600Y-7569200D01*
X15341600Y-7773200D02*
X15341600Y-7873200D01*
X15291600Y-7823200D02*
X15391600Y-7823200D01*
X15341600Y-8027200D02*
X15341600Y-8127200D01*
X15291600Y-8077200D02*
X15391600Y-8077200D01*
X15341600Y-8281200D02*
X15341600Y-8381200D01*
X15291600Y-8331200D02*
X15391600Y-8331200D01*
X15341600Y-8535200D02*
X15341600Y-8635200D01*
X15291600Y-8585200D02*
X15391600Y-8585200D01*
D13*
X10481318Y-6924318D02*
X10481318Y-6761682D01*
X10318682Y-6761682D01*
X10318682Y-6924318D01*
X10481318Y-6924318D01*
X10481318Y-8238318D02*
X10481318Y-8075682D01*
X10318682Y-8075682D01*
X10318682Y-8238318D01*
X10481318Y-8238318D01*
D14*
X10300000Y-5860000D02*
X10460000Y-5700000D01*
X10300000Y-5540000D01*
X10140000Y-5700000D01*
X10300000Y-5860000D01*
X10300000Y-9310000D02*
X10460000Y-9150000D01*
X10300000Y-8990000D01*
X10140000Y-9150000D01*
X10300000Y-9310000D01*
X15400000Y-9310000D02*
X15560000Y-9150000D01*
X15400000Y-8990000D01*
X15240000Y-9150000D01*
X15400000Y-9310000D01*
D11*
X10208277Y-9813984D02*
X10208277Y-9613984D01*
X10208277Y-9613984D02*
X10255896Y-9613984D01*
X10255896Y-9613984D02*
X10284467Y-9623508D01*
X10284467Y-9623508D02*
X10303515Y-9642555D01*
X10303515Y-9642555D02*
X10313039Y-9661603D01*
X10313039Y-9661603D02*
X10322563Y-9699698D01*
X10322563Y-9699698D02*
X10322563Y-9728270D01*
X10322563Y-9728270D02*
X10313039Y-9766365D01*
X10313039Y-9766365D02*
X10303515Y-9785412D01*
X10303515Y-9785412D02*
X10284467Y-9804460D01*
X10284467Y-9804460D02*
X10255896Y-9813984D01*
X10255896Y-9813984D02*
X10208277Y-9813984D01*
X10408277Y-9813984D02*
X10408277Y-9680650D01*
X10408277Y-9718746D02*
X10417801Y-9699698D01*
X10417801Y-9699698D02*
X10427324Y-9690174D01*
X10427324Y-9690174D02*
X10446372Y-9680650D01*
X10446372Y-9680650D02*
X10465420Y-9680650D01*
X10532086Y-9813984D02*
X10532086Y-9680650D01*
X10532086Y-9613984D02*
X10522563Y-9623508D01*
X10522563Y-9623508D02*
X10532086Y-9633031D01*
X10532086Y-9633031D02*
X10541610Y-9623508D01*
X10541610Y-9623508D02*
X10532086Y-9613984D01*
X10532086Y-9613984D02*
X10532086Y-9633031D01*
X10655896Y-9813984D02*
X10636848Y-9804460D01*
X10636848Y-9804460D02*
X10627324Y-9785412D01*
X10627324Y-9785412D02*
X10627324Y-9613984D01*
X10760658Y-9813984D02*
X10741610Y-9804460D01*
X10741610Y-9804460D02*
X10732086Y-9785412D01*
X10732086Y-9785412D02*
X10732086Y-9613984D01*
X10989229Y-9813984D02*
X10989229Y-9613984D01*
X10989229Y-9613984D02*
X11055896Y-9756841D01*
X11055896Y-9756841D02*
X11122563Y-9613984D01*
X11122563Y-9613984D02*
X11122563Y-9813984D01*
X11303515Y-9813984D02*
X11303515Y-9709222D01*
X11303515Y-9709222D02*
X11293991Y-9690174D01*
X11293991Y-9690174D02*
X11274943Y-9680650D01*
X11274943Y-9680650D02*
X11236848Y-9680650D01*
X11236848Y-9680650D02*
X11217801Y-9690174D01*
X11303515Y-9804460D02*
X11284467Y-9813984D01*
X11284467Y-9813984D02*
X11236848Y-9813984D01*
X11236848Y-9813984D02*
X11217801Y-9804460D01*
X11217801Y-9804460D02*
X11208277Y-9785412D01*
X11208277Y-9785412D02*
X11208277Y-9766365D01*
X11208277Y-9766365D02*
X11217801Y-9747317D01*
X11217801Y-9747317D02*
X11236848Y-9737793D01*
X11236848Y-9737793D02*
X11284467Y-9737793D01*
X11284467Y-9737793D02*
X11303515Y-9728270D01*
X11398753Y-9680650D02*
X11398753Y-9880650D01*
X11398753Y-9690174D02*
X11417801Y-9680650D01*
X11417801Y-9680650D02*
X11455896Y-9680650D01*
X11455896Y-9680650D02*
X11474943Y-9690174D01*
X11474943Y-9690174D02*
X11484467Y-9699698D01*
X11484467Y-9699698D02*
X11493991Y-9718746D01*
X11493991Y-9718746D02*
X11493991Y-9775889D01*
X11493991Y-9775889D02*
X11484467Y-9794936D01*
X11484467Y-9794936D02*
X11474943Y-9804460D01*
X11474943Y-9804460D02*
X11455896Y-9813984D01*
X11455896Y-9813984D02*
X11417801Y-9813984D01*
X11417801Y-9813984D02*
X11398753Y-9804460D01*
X11579705Y-9794936D02*
X11589229Y-9804460D01*
X11589229Y-9804460D02*
X11579705Y-9813984D01*
X11579705Y-9813984D02*
X11570182Y-9804460D01*
X11570182Y-9804460D02*
X11579705Y-9794936D01*
X11579705Y-9794936D02*
X11579705Y-9813984D01*
X11579705Y-9690174D02*
X11589229Y-9699698D01*
X11589229Y-9699698D02*
X11579705Y-9709222D01*
X11579705Y-9709222D02*
X11570182Y-9699698D01*
X11570182Y-9699698D02*
X11579705Y-9690174D01*
X11579705Y-9690174D02*
X11579705Y-9709222D01*
D12*
X9917500Y-10127500D02*
X9947500Y-10157500D01*
X9947500Y-10127500D02*
X9917500Y-10157500D01*
D11*
X10246372Y-10033984D02*
X10265420Y-10033984D01*
X10265420Y-10033984D02*
X10284467Y-10043508D01*
X10284467Y-10043508D02*
X10293991Y-10053031D01*
X10293991Y-10053031D02*
X10303515Y-10072079D01*
X10303515Y-10072079D02*
X10313039Y-10110174D01*
X10313039Y-10110174D02*
X10313039Y-10157793D01*
X10313039Y-10157793D02*
X10303515Y-10195889D01*
X10303515Y-10195889D02*
X10293991Y-10214936D01*
X10293991Y-10214936D02*
X10284467Y-10224460D01*
X10284467Y-10224460D02*
X10265420Y-10233984D01*
X10265420Y-10233984D02*
X10246372Y-10233984D01*
X10246372Y-10233984D02*
X10227324Y-10224460D01*
X10227324Y-10224460D02*
X10217801Y-10214936D01*
X10217801Y-10214936D02*
X10208277Y-10195889D01*
X10208277Y-10195889D02*
X10198753Y-10157793D01*
X10198753Y-10157793D02*
X10198753Y-10110174D01*
X10198753Y-10110174D02*
X10208277Y-10072079D01*
X10208277Y-10072079D02*
X10217801Y-10053031D01*
X10217801Y-10053031D02*
X10227324Y-10043508D01*
X10227324Y-10043508D02*
X10246372Y-10033984D01*
X10398753Y-10214936D02*
X10408277Y-10224460D01*
X10408277Y-10224460D02*
X10398753Y-10233984D01*
X10398753Y-10233984D02*
X10389229Y-10224460D01*
X10389229Y-10224460D02*
X10398753Y-10214936D01*
X10398753Y-10214936D02*
X10398753Y-10233984D01*
X10474944Y-10033984D02*
X10598753Y-10033984D01*
X10598753Y-10033984D02*
X10532086Y-10110174D01*
X10532086Y-10110174D02*
X10560658Y-10110174D01*
X10560658Y-10110174D02*
X10579705Y-10119698D01*
X10579705Y-10119698D02*
X10589229Y-10129222D01*
X10589229Y-10129222D02*
X10598753Y-10148270D01*
X10598753Y-10148270D02*
X10598753Y-10195889D01*
X10598753Y-10195889D02*
X10589229Y-10214936D01*
X10589229Y-10214936D02*
X10579705Y-10224460D01*
X10579705Y-10224460D02*
X10560658Y-10233984D01*
X10560658Y-10233984D02*
X10503515Y-10233984D01*
X10503515Y-10233984D02*
X10484467Y-10224460D01*
X10484467Y-10224460D02*
X10474944Y-10214936D01*
X10722563Y-10033984D02*
X10741610Y-10033984D01*
X10741610Y-10033984D02*
X10760658Y-10043508D01*
X10760658Y-10043508D02*
X10770182Y-10053031D01*
X10770182Y-10053031D02*
X10779705Y-10072079D01*
X10779705Y-10072079D02*
X10789229Y-10110174D01*
X10789229Y-10110174D02*
X10789229Y-10157793D01*
X10789229Y-10157793D02*
X10779705Y-10195889D01*
X10779705Y-10195889D02*
X10770182Y-10214936D01*
X10770182Y-10214936D02*
X10760658Y-10224460D01*
X10760658Y-10224460D02*
X10741610Y-10233984D01*
X10741610Y-10233984D02*
X10722563Y-10233984D01*
X10722563Y-10233984D02*
X10703515Y-10224460D01*
X10703515Y-10224460D02*
X10693991Y-10214936D01*
X10693991Y-10214936D02*
X10684467Y-10195889D01*
X10684467Y-10195889D02*
X10674944Y-10157793D01*
X10674944Y-10157793D02*
X10674944Y-10110174D01*
X10674944Y-10110174D02*
X10684467Y-10072079D01*
X10684467Y-10072079D02*
X10693991Y-10053031D01*
X10693991Y-10053031D02*
X10703515Y-10043508D01*
X10703515Y-10043508D02*
X10722563Y-10033984D01*
X10913039Y-10033984D02*
X10932086Y-10033984D01*
X10932086Y-10033984D02*
X10951134Y-10043508D01*
X10951134Y-10043508D02*
X10960658Y-10053031D01*
X10960658Y-10053031D02*
X10970182Y-10072079D01*
X10970182Y-10072079D02*
X10979705Y-10110174D01*
X10979705Y-10110174D02*
X10979705Y-10157793D01*
X10979705Y-10157793D02*
X10970182Y-10195889D01*
X10970182Y-10195889D02*
X10960658Y-10214936D01*
X10960658Y-10214936D02*
X10951134Y-10224460D01*
X10951134Y-10224460D02*
X10932086Y-10233984D01*
X10932086Y-10233984D02*
X10913039Y-10233984D01*
X10913039Y-10233984D02*
X10893991Y-10224460D01*
X10893991Y-10224460D02*
X10884467Y-10214936D01*
X10884467Y-10214936D02*
X10874944Y-10195889D01*
X10874944Y-10195889D02*
X10865420Y-10157793D01*
X10865420Y-10157793D02*
X10865420Y-10110174D01*
X10865420Y-10110174D02*
X10874944Y-10072079D01*
X10874944Y-10072079D02*
X10884467Y-10053031D01*
X10884467Y-10053031D02*
X10893991Y-10043508D01*
X10893991Y-10043508D02*
X10913039Y-10033984D01*
X11065420Y-10233984D02*
X11065420Y-10100650D01*
X11065420Y-10119698D02*
X11074944Y-10110174D01*
X11074944Y-10110174D02*
X11093991Y-10100650D01*
X11093991Y-10100650D02*
X11122563Y-10100650D01*
X11122563Y-10100650D02*
X11141610Y-10110174D01*
X11141610Y-10110174D02*
X11151134Y-10129222D01*
X11151134Y-10129222D02*
X11151134Y-10233984D01*
X11151134Y-10129222D02*
X11160658Y-10110174D01*
X11160658Y-10110174D02*
X11179705Y-10100650D01*
X11179705Y-10100650D02*
X11208277Y-10100650D01*
X11208277Y-10100650D02*
X11227324Y-10110174D01*
X11227324Y-10110174D02*
X11236848Y-10129222D01*
X11236848Y-10129222D02*
X11236848Y-10233984D01*
X11332086Y-10233984D02*
X11332086Y-10100650D01*
X11332086Y-10119698D02*
X11341610Y-10110174D01*
X11341610Y-10110174D02*
X11360658Y-10100650D01*
X11360658Y-10100650D02*
X11389229Y-10100650D01*
X11389229Y-10100650D02*
X11408277Y-10110174D01*
X11408277Y-10110174D02*
X11417801Y-10129222D01*
X11417801Y-10129222D02*
X11417801Y-10233984D01*
X11417801Y-10129222D02*
X11427324Y-10110174D01*
X11427324Y-10110174D02*
X11446372Y-10100650D01*
X11446372Y-10100650D02*
X11474943Y-10100650D01*
X11474943Y-10100650D02*
X11493991Y-10110174D01*
X11493991Y-10110174D02*
X11503515Y-10129222D01*
X11503515Y-10129222D02*
X11503515Y-10233984D01*
X11893991Y-10024460D02*
X11722563Y-10281603D01*
X12151134Y-10033984D02*
X12170182Y-10033984D01*
X12170182Y-10033984D02*
X12189229Y-10043508D01*
X12189229Y-10043508D02*
X12198753Y-10053031D01*
X12198753Y-10053031D02*
X12208277Y-10072079D01*
X12208277Y-10072079D02*
X12217801Y-10110174D01*
X12217801Y-10110174D02*
X12217801Y-10157793D01*
X12217801Y-10157793D02*
X12208277Y-10195889D01*
X12208277Y-10195889D02*
X12198753Y-10214936D01*
X12198753Y-10214936D02*
X12189229Y-10224460D01*
X12189229Y-10224460D02*
X12170182Y-10233984D01*
X12170182Y-10233984D02*
X12151134Y-10233984D01*
X12151134Y-10233984D02*
X12132086Y-10224460D01*
X12132086Y-10224460D02*
X12122563Y-10214936D01*
X12122563Y-10214936D02*
X12113039Y-10195889D01*
X12113039Y-10195889D02*
X12103515Y-10157793D01*
X12103515Y-10157793D02*
X12103515Y-10110174D01*
X12103515Y-10110174D02*
X12113039Y-10072079D01*
X12113039Y-10072079D02*
X12122563Y-10053031D01*
X12122563Y-10053031D02*
X12132086Y-10043508D01*
X12132086Y-10043508D02*
X12151134Y-10033984D01*
X12303515Y-10214936D02*
X12313039Y-10224460D01*
X12313039Y-10224460D02*
X12303515Y-10233984D01*
X12303515Y-10233984D02*
X12293991Y-10224460D01*
X12293991Y-10224460D02*
X12303515Y-10214936D01*
X12303515Y-10214936D02*
X12303515Y-10233984D01*
X12436848Y-10033984D02*
X12455896Y-10033984D01*
X12455896Y-10033984D02*
X12474944Y-10043508D01*
X12474944Y-10043508D02*
X12484467Y-10053031D01*
X12484467Y-10053031D02*
X12493991Y-10072079D01*
X12493991Y-10072079D02*
X12503515Y-10110174D01*
X12503515Y-10110174D02*
X12503515Y-10157793D01*
X12503515Y-10157793D02*
X12493991Y-10195889D01*
X12493991Y-10195889D02*
X12484467Y-10214936D01*
X12484467Y-10214936D02*
X12474944Y-10224460D01*
X12474944Y-10224460D02*
X12455896Y-10233984D01*
X12455896Y-10233984D02*
X12436848Y-10233984D01*
X12436848Y-10233984D02*
X12417801Y-10224460D01*
X12417801Y-10224460D02*
X12408277Y-10214936D01*
X12408277Y-10214936D02*
X12398753Y-10195889D01*
X12398753Y-10195889D02*
X12389229Y-10157793D01*
X12389229Y-10157793D02*
X12389229Y-10110174D01*
X12389229Y-10110174D02*
X12398753Y-10072079D01*
X12398753Y-10072079D02*
X12408277Y-10053031D01*
X12408277Y-10053031D02*
X12417801Y-10043508D01*
X12417801Y-10043508D02*
X12436848Y-10033984D01*
X12693991Y-10233984D02*
X12579706Y-10233984D01*
X12636848Y-10233984D02*
X12636848Y-10033984D01*
X12636848Y-10033984D02*
X12617801Y-10062555D01*
X12617801Y-10062555D02*
X12598753Y-10081603D01*
X12598753Y-10081603D02*
X12579706Y-10091127D01*
X12884467Y-10233984D02*
X12770182Y-10233984D01*
X12827325Y-10233984D02*
X12827325Y-10033984D01*
X12827325Y-10033984D02*
X12808277Y-10062555D01*
X12808277Y-10062555D02*
X12789229Y-10081603D01*
X12789229Y-10081603D02*
X12770182Y-10091127D01*
X12998753Y-10119698D02*
X12979706Y-10110174D01*
X12979706Y-10110174D02*
X12970182Y-10100650D01*
X12970182Y-10100650D02*
X12960658Y-10081603D01*
X12960658Y-10081603D02*
X12960658Y-10072079D01*
X12960658Y-10072079D02*
X12970182Y-10053031D01*
X12970182Y-10053031D02*
X12979706Y-10043508D01*
X12979706Y-10043508D02*
X12998753Y-10033984D01*
X12998753Y-10033984D02*
X13036848Y-10033984D01*
X13036848Y-10033984D02*
X13055896Y-10043508D01*
X13055896Y-10043508D02*
X13065420Y-10053031D01*
X13065420Y-10053031D02*
X13074944Y-10072079D01*
X13074944Y-10072079D02*
X13074944Y-10081603D01*
X13074944Y-10081603D02*
X13065420Y-10100650D01*
X13065420Y-10100650D02*
X13055896Y-10110174D01*
X13055896Y-10110174D02*
X13036848Y-10119698D01*
X13036848Y-10119698D02*
X12998753Y-10119698D01*
X12998753Y-10119698D02*
X12979706Y-10129222D01*
X12979706Y-10129222D02*
X12970182Y-10138746D01*
X12970182Y-10138746D02*
X12960658Y-10157793D01*
X12960658Y-10157793D02*
X12960658Y-10195889D01*
X12960658Y-10195889D02*
X12970182Y-10214936D01*
X12970182Y-10214936D02*
X12979706Y-10224460D01*
X12979706Y-10224460D02*
X12998753Y-10233984D01*
X12998753Y-10233984D02*
X13036848Y-10233984D01*
X13036848Y-10233984D02*
X13055896Y-10224460D01*
X13055896Y-10224460D02*
X13065420Y-10214936D01*
X13065420Y-10214936D02*
X13074944Y-10195889D01*
X13074944Y-10195889D02*
X13074944Y-10157793D01*
X13074944Y-10157793D02*
X13065420Y-10138746D01*
X13065420Y-10138746D02*
X13055896Y-10129222D01*
X13055896Y-10129222D02*
X13036848Y-10119698D01*
X13151134Y-10033984D02*
X13151134Y-10072079D01*
X13227325Y-10033984D02*
X13227325Y-10072079D01*
X13522563Y-10310174D02*
X13513039Y-10300650D01*
X13513039Y-10300650D02*
X13493991Y-10272079D01*
X13493991Y-10272079D02*
X13484468Y-10253031D01*
X13484468Y-10253031D02*
X13474944Y-10224460D01*
X13474944Y-10224460D02*
X13465420Y-10176841D01*
X13465420Y-10176841D02*
X13465420Y-10138746D01*
X13465420Y-10138746D02*
X13474944Y-10091127D01*
X13474944Y-10091127D02*
X13484468Y-10062555D01*
X13484468Y-10062555D02*
X13493991Y-10043508D01*
X13493991Y-10043508D02*
X13513039Y-10014936D01*
X13513039Y-10014936D02*
X13522563Y-10005412D01*
X13579706Y-10033984D02*
X13703515Y-10033984D01*
X13703515Y-10033984D02*
X13636848Y-10110174D01*
X13636848Y-10110174D02*
X13665420Y-10110174D01*
X13665420Y-10110174D02*
X13684468Y-10119698D01*
X13684468Y-10119698D02*
X13693991Y-10129222D01*
X13693991Y-10129222D02*
X13703515Y-10148270D01*
X13703515Y-10148270D02*
X13703515Y-10195889D01*
X13703515Y-10195889D02*
X13693991Y-10214936D01*
X13693991Y-10214936D02*
X13684468Y-10224460D01*
X13684468Y-10224460D02*
X13665420Y-10233984D01*
X13665420Y-10233984D02*
X13608277Y-10233984D01*
X13608277Y-10233984D02*
X13589229Y-10224460D01*
X13589229Y-10224460D02*
X13579706Y-10214936D01*
X13874944Y-10033984D02*
X13836848Y-10033984D01*
X13836848Y-10033984D02*
X13817801Y-10043508D01*
X13817801Y-10043508D02*
X13808277Y-10053031D01*
X13808277Y-10053031D02*
X13789229Y-10081603D01*
X13789229Y-10081603D02*
X13779706Y-10119698D01*
X13779706Y-10119698D02*
X13779706Y-10195889D01*
X13779706Y-10195889D02*
X13789229Y-10214936D01*
X13789229Y-10214936D02*
X13798753Y-10224460D01*
X13798753Y-10224460D02*
X13817801Y-10233984D01*
X13817801Y-10233984D02*
X13855896Y-10233984D01*
X13855896Y-10233984D02*
X13874944Y-10224460D01*
X13874944Y-10224460D02*
X13884468Y-10214936D01*
X13884468Y-10214936D02*
X13893991Y-10195889D01*
X13893991Y-10195889D02*
X13893991Y-10148270D01*
X13893991Y-10148270D02*
X13884468Y-10129222D01*
X13884468Y-10129222D02*
X13874944Y-10119698D01*
X13874944Y-10119698D02*
X13855896Y-10110174D01*
X13855896Y-10110174D02*
X13817801Y-10110174D01*
X13817801Y-10110174D02*
X13798753Y-10119698D01*
X13798753Y-10119698D02*
X13789229Y-10129222D01*
X13789229Y-10129222D02*
X13779706Y-10148270D01*
X14132087Y-10233984D02*
X14132087Y-10033984D01*
X14217801Y-10233984D02*
X14217801Y-10129222D01*
X14217801Y-10129222D02*
X14208277Y-10110174D01*
X14208277Y-10110174D02*
X14189230Y-10100650D01*
X14189230Y-10100650D02*
X14160658Y-10100650D01*
X14160658Y-10100650D02*
X14141610Y-10110174D01*
X14141610Y-10110174D02*
X14132087Y-10119698D01*
X14341610Y-10233984D02*
X14322563Y-10224460D01*
X14322563Y-10224460D02*
X14313039Y-10214936D01*
X14313039Y-10214936D02*
X14303515Y-10195889D01*
X14303515Y-10195889D02*
X14303515Y-10138746D01*
X14303515Y-10138746D02*
X14313039Y-10119698D01*
X14313039Y-10119698D02*
X14322563Y-10110174D01*
X14322563Y-10110174D02*
X14341610Y-10100650D01*
X14341610Y-10100650D02*
X14370182Y-10100650D01*
X14370182Y-10100650D02*
X14389230Y-10110174D01*
X14389230Y-10110174D02*
X14398753Y-10119698D01*
X14398753Y-10119698D02*
X14408277Y-10138746D01*
X14408277Y-10138746D02*
X14408277Y-10195889D01*
X14408277Y-10195889D02*
X14398753Y-10214936D01*
X14398753Y-10214936D02*
X14389230Y-10224460D01*
X14389230Y-10224460D02*
X14370182Y-10233984D01*
X14370182Y-10233984D02*
X14341610Y-10233984D01*
X14522563Y-10233984D02*
X14503515Y-10224460D01*
X14503515Y-10224460D02*
X14493991Y-10205412D01*
X14493991Y-10205412D02*
X14493991Y-10033984D01*
X14674944Y-10224460D02*
X14655896Y-10233984D01*
X14655896Y-10233984D02*
X14617801Y-10233984D01*
X14617801Y-10233984D02*
X14598753Y-10224460D01*
X14598753Y-10224460D02*
X14589230Y-10205412D01*
X14589230Y-10205412D02*
X14589230Y-10129222D01*
X14589230Y-10129222D02*
X14598753Y-10110174D01*
X14598753Y-10110174D02*
X14617801Y-10100650D01*
X14617801Y-10100650D02*
X14655896Y-10100650D01*
X14655896Y-10100650D02*
X14674944Y-10110174D01*
X14674944Y-10110174D02*
X14684468Y-10129222D01*
X14684468Y-10129222D02*
X14684468Y-10148270D01*
X14684468Y-10148270D02*
X14589230Y-10167317D01*
X14760658Y-10224460D02*
X14779706Y-10233984D01*
X14779706Y-10233984D02*
X14817801Y-10233984D01*
X14817801Y-10233984D02*
X14836849Y-10224460D01*
X14836849Y-10224460D02*
X14846372Y-10205412D01*
X14846372Y-10205412D02*
X14846372Y-10195889D01*
X14846372Y-10195889D02*
X14836849Y-10176841D01*
X14836849Y-10176841D02*
X14817801Y-10167317D01*
X14817801Y-10167317D02*
X14789230Y-10167317D01*
X14789230Y-10167317D02*
X14770182Y-10157793D01*
X14770182Y-10157793D02*
X14760658Y-10138746D01*
X14760658Y-10138746D02*
X14760658Y-10129222D01*
X14760658Y-10129222D02*
X14770182Y-10110174D01*
X14770182Y-10110174D02*
X14789230Y-10100650D01*
X14789230Y-10100650D02*
X14817801Y-10100650D01*
X14817801Y-10100650D02*
X14836849Y-10110174D01*
X14913039Y-10310174D02*
X14922563Y-10300650D01*
X14922563Y-10300650D02*
X14941611Y-10272079D01*
X14941611Y-10272079D02*
X14951134Y-10253031D01*
X14951134Y-10253031D02*
X14960658Y-10224460D01*
X14960658Y-10224460D02*
X14970182Y-10176841D01*
X14970182Y-10176841D02*
X14970182Y-10138746D01*
X14970182Y-10138746D02*
X14960658Y-10091127D01*
X14960658Y-10091127D02*
X14951134Y-10062555D01*
X14951134Y-10062555D02*
X14941611Y-10043508D01*
X14941611Y-10043508D02*
X14922563Y-10014936D01*
X14922563Y-10014936D02*
X14913039Y-10005412D01*
D12*
X9947500Y-10406500D02*
G75*
G02*
X9857500Y-10406500I-45000J0D01*
G01*
X9857500Y-10406500D02*
G75*
G02*
X9947500Y-10406500I45000J0D01*
G01*
D11*
X10246372Y-10297984D02*
X10265420Y-10297984D01*
X10265420Y-10297984D02*
X10284467Y-10307508D01*
X10284467Y-10307508D02*
X10293991Y-10317031D01*
X10293991Y-10317031D02*
X10303515Y-10336079D01*
X10303515Y-10336079D02*
X10313039Y-10374174D01*
X10313039Y-10374174D02*
X10313039Y-10421793D01*
X10313039Y-10421793D02*
X10303515Y-10459889D01*
X10303515Y-10459889D02*
X10293991Y-10478936D01*
X10293991Y-10478936D02*
X10284467Y-10488460D01*
X10284467Y-10488460D02*
X10265420Y-10497984D01*
X10265420Y-10497984D02*
X10246372Y-10497984D01*
X10246372Y-10497984D02*
X10227324Y-10488460D01*
X10227324Y-10488460D02*
X10217801Y-10478936D01*
X10217801Y-10478936D02*
X10208277Y-10459889D01*
X10208277Y-10459889D02*
X10198753Y-10421793D01*
X10198753Y-10421793D02*
X10198753Y-10374174D01*
X10198753Y-10374174D02*
X10208277Y-10336079D01*
X10208277Y-10336079D02*
X10217801Y-10317031D01*
X10217801Y-10317031D02*
X10227324Y-10307508D01*
X10227324Y-10307508D02*
X10246372Y-10297984D01*
X10398753Y-10478936D02*
X10408277Y-10488460D01*
X10408277Y-10488460D02*
X10398753Y-10497984D01*
X10398753Y-10497984D02*
X10389229Y-10488460D01*
X10389229Y-10488460D02*
X10398753Y-10478936D01*
X10398753Y-10478936D02*
X10398753Y-10497984D01*
X10503515Y-10497984D02*
X10541610Y-10497984D01*
X10541610Y-10497984D02*
X10560658Y-10488460D01*
X10560658Y-10488460D02*
X10570182Y-10478936D01*
X10570182Y-10478936D02*
X10589229Y-10450365D01*
X10589229Y-10450365D02*
X10598753Y-10412270D01*
X10598753Y-10412270D02*
X10598753Y-10336079D01*
X10598753Y-10336079D02*
X10589229Y-10317031D01*
X10589229Y-10317031D02*
X10579705Y-10307508D01*
X10579705Y-10307508D02*
X10560658Y-10297984D01*
X10560658Y-10297984D02*
X10522563Y-10297984D01*
X10522563Y-10297984D02*
X10503515Y-10307508D01*
X10503515Y-10307508D02*
X10493991Y-10317031D01*
X10493991Y-10317031D02*
X10484467Y-10336079D01*
X10484467Y-10336079D02*
X10484467Y-10383698D01*
X10484467Y-10383698D02*
X10493991Y-10402746D01*
X10493991Y-10402746D02*
X10503515Y-10412270D01*
X10503515Y-10412270D02*
X10522563Y-10421793D01*
X10522563Y-10421793D02*
X10560658Y-10421793D01*
X10560658Y-10421793D02*
X10579705Y-10412270D01*
X10579705Y-10412270D02*
X10589229Y-10402746D01*
X10589229Y-10402746D02*
X10598753Y-10383698D01*
X10722563Y-10297984D02*
X10741610Y-10297984D01*
X10741610Y-10297984D02*
X10760658Y-10307508D01*
X10760658Y-10307508D02*
X10770182Y-10317031D01*
X10770182Y-10317031D02*
X10779705Y-10336079D01*
X10779705Y-10336079D02*
X10789229Y-10374174D01*
X10789229Y-10374174D02*
X10789229Y-10421793D01*
X10789229Y-10421793D02*
X10779705Y-10459889D01*
X10779705Y-10459889D02*
X10770182Y-10478936D01*
X10770182Y-10478936D02*
X10760658Y-10488460D01*
X10760658Y-10488460D02*
X10741610Y-10497984D01*
X10741610Y-10497984D02*
X10722563Y-10497984D01*
X10722563Y-10497984D02*
X10703515Y-10488460D01*
X10703515Y-10488460D02*
X10693991Y-10478936D01*
X10693991Y-10478936D02*
X10684467Y-10459889D01*
X10684467Y-10459889D02*
X10674944Y-10421793D01*
X10674944Y-10421793D02*
X10674944Y-10374174D01*
X10674944Y-10374174D02*
X10684467Y-10336079D01*
X10684467Y-10336079D02*
X10693991Y-10317031D01*
X10693991Y-10317031D02*
X10703515Y-10307508D01*
X10703515Y-10307508D02*
X10722563Y-10297984D01*
X10913039Y-10297984D02*
X10932086Y-10297984D01*
X10932086Y-10297984D02*
X10951134Y-10307508D01*
X10951134Y-10307508D02*
X10960658Y-10317031D01*
X10960658Y-10317031D02*
X10970182Y-10336079D01*
X10970182Y-10336079D02*
X10979705Y-10374174D01*
X10979705Y-10374174D02*
X10979705Y-10421793D01*
X10979705Y-10421793D02*
X10970182Y-10459889D01*
X10970182Y-10459889D02*
X10960658Y-10478936D01*
X10960658Y-10478936D02*
X10951134Y-10488460D01*
X10951134Y-10488460D02*
X10932086Y-10497984D01*
X10932086Y-10497984D02*
X10913039Y-10497984D01*
X10913039Y-10497984D02*
X10893991Y-10488460D01*
X10893991Y-10488460D02*
X10884467Y-10478936D01*
X10884467Y-10478936D02*
X10874944Y-10459889D01*
X10874944Y-10459889D02*
X10865420Y-10421793D01*
X10865420Y-10421793D02*
X10865420Y-10374174D01*
X10865420Y-10374174D02*
X10874944Y-10336079D01*
X10874944Y-10336079D02*
X10884467Y-10317031D01*
X10884467Y-10317031D02*
X10893991Y-10307508D01*
X10893991Y-10307508D02*
X10913039Y-10297984D01*
X11065420Y-10497984D02*
X11065420Y-10364650D01*
X11065420Y-10383698D02*
X11074944Y-10374174D01*
X11074944Y-10374174D02*
X11093991Y-10364650D01*
X11093991Y-10364650D02*
X11122563Y-10364650D01*
X11122563Y-10364650D02*
X11141610Y-10374174D01*
X11141610Y-10374174D02*
X11151134Y-10393222D01*
X11151134Y-10393222D02*
X11151134Y-10497984D01*
X11151134Y-10393222D02*
X11160658Y-10374174D01*
X11160658Y-10374174D02*
X11179705Y-10364650D01*
X11179705Y-10364650D02*
X11208277Y-10364650D01*
X11208277Y-10364650D02*
X11227324Y-10374174D01*
X11227324Y-10374174D02*
X11236848Y-10393222D01*
X11236848Y-10393222D02*
X11236848Y-10497984D01*
X11332086Y-10497984D02*
X11332086Y-10364650D01*
X11332086Y-10383698D02*
X11341610Y-10374174D01*
X11341610Y-10374174D02*
X11360658Y-10364650D01*
X11360658Y-10364650D02*
X11389229Y-10364650D01*
X11389229Y-10364650D02*
X11408277Y-10374174D01*
X11408277Y-10374174D02*
X11417801Y-10393222D01*
X11417801Y-10393222D02*
X11417801Y-10497984D01*
X11417801Y-10393222D02*
X11427324Y-10374174D01*
X11427324Y-10374174D02*
X11446372Y-10364650D01*
X11446372Y-10364650D02*
X11474943Y-10364650D01*
X11474943Y-10364650D02*
X11493991Y-10374174D01*
X11493991Y-10374174D02*
X11503515Y-10393222D01*
X11503515Y-10393222D02*
X11503515Y-10497984D01*
X11893991Y-10288460D02*
X11722563Y-10545603D01*
X12151134Y-10297984D02*
X12170182Y-10297984D01*
X12170182Y-10297984D02*
X12189229Y-10307508D01*
X12189229Y-10307508D02*
X12198753Y-10317031D01*
X12198753Y-10317031D02*
X12208277Y-10336079D01*
X12208277Y-10336079D02*
X12217801Y-10374174D01*
X12217801Y-10374174D02*
X12217801Y-10421793D01*
X12217801Y-10421793D02*
X12208277Y-10459889D01*
X12208277Y-10459889D02*
X12198753Y-10478936D01*
X12198753Y-10478936D02*
X12189229Y-10488460D01*
X12189229Y-10488460D02*
X12170182Y-10497984D01*
X12170182Y-10497984D02*
X12151134Y-10497984D01*
X12151134Y-10497984D02*
X12132086Y-10488460D01*
X12132086Y-10488460D02*
X12122563Y-10478936D01*
X12122563Y-10478936D02*
X12113039Y-10459889D01*
X12113039Y-10459889D02*
X12103515Y-10421793D01*
X12103515Y-10421793D02*
X12103515Y-10374174D01*
X12103515Y-10374174D02*
X12113039Y-10336079D01*
X12113039Y-10336079D02*
X12122563Y-10317031D01*
X12122563Y-10317031D02*
X12132086Y-10307508D01*
X12132086Y-10307508D02*
X12151134Y-10297984D01*
X12303515Y-10478936D02*
X12313039Y-10488460D01*
X12313039Y-10488460D02*
X12303515Y-10497984D01*
X12303515Y-10497984D02*
X12293991Y-10488460D01*
X12293991Y-10488460D02*
X12303515Y-10478936D01*
X12303515Y-10478936D02*
X12303515Y-10497984D01*
X12436848Y-10297984D02*
X12455896Y-10297984D01*
X12455896Y-10297984D02*
X12474944Y-10307508D01*
X12474944Y-10307508D02*
X12484467Y-10317031D01*
X12484467Y-10317031D02*
X12493991Y-10336079D01*
X12493991Y-10336079D02*
X12503515Y-10374174D01*
X12503515Y-10374174D02*
X12503515Y-10421793D01*
X12503515Y-10421793D02*
X12493991Y-10459889D01*
X12493991Y-10459889D02*
X12484467Y-10478936D01*
X12484467Y-10478936D02*
X12474944Y-10488460D01*
X12474944Y-10488460D02*
X12455896Y-10497984D01*
X12455896Y-10497984D02*
X12436848Y-10497984D01*
X12436848Y-10497984D02*
X12417801Y-10488460D01*
X12417801Y-10488460D02*
X12408277Y-10478936D01*
X12408277Y-10478936D02*
X12398753Y-10459889D01*
X12398753Y-10459889D02*
X12389229Y-10421793D01*
X12389229Y-10421793D02*
X12389229Y-10374174D01*
X12389229Y-10374174D02*
X12398753Y-10336079D01*
X12398753Y-10336079D02*
X12408277Y-10317031D01*
X12408277Y-10317031D02*
X12417801Y-10307508D01*
X12417801Y-10307508D02*
X12436848Y-10297984D01*
X12570182Y-10297984D02*
X12693991Y-10297984D01*
X12693991Y-10297984D02*
X12627325Y-10374174D01*
X12627325Y-10374174D02*
X12655896Y-10374174D01*
X12655896Y-10374174D02*
X12674944Y-10383698D01*
X12674944Y-10383698D02*
X12684467Y-10393222D01*
X12684467Y-10393222D02*
X12693991Y-10412270D01*
X12693991Y-10412270D02*
X12693991Y-10459889D01*
X12693991Y-10459889D02*
X12684467Y-10478936D01*
X12684467Y-10478936D02*
X12674944Y-10488460D01*
X12674944Y-10488460D02*
X12655896Y-10497984D01*
X12655896Y-10497984D02*
X12598753Y-10497984D01*
X12598753Y-10497984D02*
X12579706Y-10488460D01*
X12579706Y-10488460D02*
X12570182Y-10478936D01*
X12874944Y-10297984D02*
X12779706Y-10297984D01*
X12779706Y-10297984D02*
X12770182Y-10393222D01*
X12770182Y-10393222D02*
X12779706Y-10383698D01*
X12779706Y-10383698D02*
X12798753Y-10374174D01*
X12798753Y-10374174D02*
X12846372Y-10374174D01*
X12846372Y-10374174D02*
X12865420Y-10383698D01*
X12865420Y-10383698D02*
X12874944Y-10393222D01*
X12874944Y-10393222D02*
X12884467Y-10412270D01*
X12884467Y-10412270D02*
X12884467Y-10459889D01*
X12884467Y-10459889D02*
X12874944Y-10478936D01*
X12874944Y-10478936D02*
X12865420Y-10488460D01*
X12865420Y-10488460D02*
X12846372Y-10497984D01*
X12846372Y-10497984D02*
X12798753Y-10497984D01*
X12798753Y-10497984D02*
X12779706Y-10488460D01*
X12779706Y-10488460D02*
X12770182Y-10478936D01*
X13055896Y-10364650D02*
X13055896Y-10497984D01*
X13008277Y-10288460D02*
X12960658Y-10431317D01*
X12960658Y-10431317D02*
X13084467Y-10431317D01*
X13151134Y-10297984D02*
X13151134Y-10336079D01*
X13227325Y-10297984D02*
X13227325Y-10336079D01*
X13522563Y-10574174D02*
X13513039Y-10564650D01*
X13513039Y-10564650D02*
X13493991Y-10536079D01*
X13493991Y-10536079D02*
X13484468Y-10517031D01*
X13484468Y-10517031D02*
X13474944Y-10488460D01*
X13474944Y-10488460D02*
X13465420Y-10440841D01*
X13465420Y-10440841D02*
X13465420Y-10402746D01*
X13465420Y-10402746D02*
X13474944Y-10355127D01*
X13474944Y-10355127D02*
X13484468Y-10326555D01*
X13484468Y-10326555D02*
X13493991Y-10307508D01*
X13493991Y-10307508D02*
X13513039Y-10278936D01*
X13513039Y-10278936D02*
X13522563Y-10269412D01*
X13589229Y-10317031D02*
X13598753Y-10307508D01*
X13598753Y-10307508D02*
X13617801Y-10297984D01*
X13617801Y-10297984D02*
X13665420Y-10297984D01*
X13665420Y-10297984D02*
X13684468Y-10307508D01*
X13684468Y-10307508D02*
X13693991Y-10317031D01*
X13693991Y-10317031D02*
X13703515Y-10336079D01*
X13703515Y-10336079D02*
X13703515Y-10355127D01*
X13703515Y-10355127D02*
X13693991Y-10383698D01*
X13693991Y-10383698D02*
X13579706Y-10497984D01*
X13579706Y-10497984D02*
X13703515Y-10497984D01*
X13941610Y-10497984D02*
X13941610Y-10297984D01*
X14027325Y-10497984D02*
X14027325Y-10393222D01*
X14027325Y-10393222D02*
X14017801Y-10374174D01*
X14017801Y-10374174D02*
X13998753Y-10364650D01*
X13998753Y-10364650D02*
X13970182Y-10364650D01*
X13970182Y-10364650D02*
X13951134Y-10374174D01*
X13951134Y-10374174D02*
X13941610Y-10383698D01*
X14151134Y-10497984D02*
X14132087Y-10488460D01*
X14132087Y-10488460D02*
X14122563Y-10478936D01*
X14122563Y-10478936D02*
X14113039Y-10459889D01*
X14113039Y-10459889D02*
X14113039Y-10402746D01*
X14113039Y-10402746D02*
X14122563Y-10383698D01*
X14122563Y-10383698D02*
X14132087Y-10374174D01*
X14132087Y-10374174D02*
X14151134Y-10364650D01*
X14151134Y-10364650D02*
X14179706Y-10364650D01*
X14179706Y-10364650D02*
X14198753Y-10374174D01*
X14198753Y-10374174D02*
X14208277Y-10383698D01*
X14208277Y-10383698D02*
X14217801Y-10402746D01*
X14217801Y-10402746D02*
X14217801Y-10459889D01*
X14217801Y-10459889D02*
X14208277Y-10478936D01*
X14208277Y-10478936D02*
X14198753Y-10488460D01*
X14198753Y-10488460D02*
X14179706Y-10497984D01*
X14179706Y-10497984D02*
X14151134Y-10497984D01*
X14332087Y-10497984D02*
X14313039Y-10488460D01*
X14313039Y-10488460D02*
X14303515Y-10469412D01*
X14303515Y-10469412D02*
X14303515Y-10297984D01*
X14484468Y-10488460D02*
X14465420Y-10497984D01*
X14465420Y-10497984D02*
X14427325Y-10497984D01*
X14427325Y-10497984D02*
X14408277Y-10488460D01*
X14408277Y-10488460D02*
X14398753Y-10469412D01*
X14398753Y-10469412D02*
X14398753Y-10393222D01*
X14398753Y-10393222D02*
X14408277Y-10374174D01*
X14408277Y-10374174D02*
X14427325Y-10364650D01*
X14427325Y-10364650D02*
X14465420Y-10364650D01*
X14465420Y-10364650D02*
X14484468Y-10374174D01*
X14484468Y-10374174D02*
X14493991Y-10393222D01*
X14493991Y-10393222D02*
X14493991Y-10412270D01*
X14493991Y-10412270D02*
X14398753Y-10431317D01*
X14570182Y-10488460D02*
X14589230Y-10497984D01*
X14589230Y-10497984D02*
X14627325Y-10497984D01*
X14627325Y-10497984D02*
X14646372Y-10488460D01*
X14646372Y-10488460D02*
X14655896Y-10469412D01*
X14655896Y-10469412D02*
X14655896Y-10459889D01*
X14655896Y-10459889D02*
X14646372Y-10440841D01*
X14646372Y-10440841D02*
X14627325Y-10431317D01*
X14627325Y-10431317D02*
X14598753Y-10431317D01*
X14598753Y-10431317D02*
X14579706Y-10421793D01*
X14579706Y-10421793D02*
X14570182Y-10402746D01*
X14570182Y-10402746D02*
X14570182Y-10393222D01*
X14570182Y-10393222D02*
X14579706Y-10374174D01*
X14579706Y-10374174D02*
X14598753Y-10364650D01*
X14598753Y-10364650D02*
X14627325Y-10364650D01*
X14627325Y-10364650D02*
X14646372Y-10374174D01*
X14722563Y-10574174D02*
X14732087Y-10564650D01*
X14732087Y-10564650D02*
X14751134Y-10536079D01*
X14751134Y-10536079D02*
X14760658Y-10517031D01*
X14760658Y-10517031D02*
X14770182Y-10488460D01*
X14770182Y-10488460D02*
X14779706Y-10440841D01*
X14779706Y-10440841D02*
X14779706Y-10402746D01*
X14779706Y-10402746D02*
X14770182Y-10355127D01*
X14770182Y-10355127D02*
X14760658Y-10326555D01*
X14760658Y-10326555D02*
X14751134Y-10307508D01*
X14751134Y-10307508D02*
X14732087Y-10278936D01*
X14732087Y-10278936D02*
X14722563Y-10269412D01*
D12*
X9897500Y-10620500D02*
X9897500Y-10720500D01*
X9847500Y-10670500D02*
X9947500Y-10670500D01*
D11*
X10313039Y-10761984D02*
X10198753Y-10761984D01*
X10255896Y-10761984D02*
X10255896Y-10561984D01*
X10255896Y-10561984D02*
X10236848Y-10590555D01*
X10236848Y-10590555D02*
X10217801Y-10609603D01*
X10217801Y-10609603D02*
X10198753Y-10619127D01*
X10398753Y-10742936D02*
X10408277Y-10752460D01*
X10408277Y-10752460D02*
X10398753Y-10761984D01*
X10398753Y-10761984D02*
X10389229Y-10752460D01*
X10389229Y-10752460D02*
X10398753Y-10742936D01*
X10398753Y-10742936D02*
X10398753Y-10761984D01*
X10532086Y-10561984D02*
X10551134Y-10561984D01*
X10551134Y-10561984D02*
X10570182Y-10571508D01*
X10570182Y-10571508D02*
X10579705Y-10581031D01*
X10579705Y-10581031D02*
X10589229Y-10600079D01*
X10589229Y-10600079D02*
X10598753Y-10638174D01*
X10598753Y-10638174D02*
X10598753Y-10685793D01*
X10598753Y-10685793D02*
X10589229Y-10723889D01*
X10589229Y-10723889D02*
X10579705Y-10742936D01*
X10579705Y-10742936D02*
X10570182Y-10752460D01*
X10570182Y-10752460D02*
X10551134Y-10761984D01*
X10551134Y-10761984D02*
X10532086Y-10761984D01*
X10532086Y-10761984D02*
X10513039Y-10752460D01*
X10513039Y-10752460D02*
X10503515Y-10742936D01*
X10503515Y-10742936D02*
X10493991Y-10723889D01*
X10493991Y-10723889D02*
X10484467Y-10685793D01*
X10484467Y-10685793D02*
X10484467Y-10638174D01*
X10484467Y-10638174D02*
X10493991Y-10600079D01*
X10493991Y-10600079D02*
X10503515Y-10581031D01*
X10503515Y-10581031D02*
X10513039Y-10571508D01*
X10513039Y-10571508D02*
X10532086Y-10561984D01*
X10722563Y-10561984D02*
X10741610Y-10561984D01*
X10741610Y-10561984D02*
X10760658Y-10571508D01*
X10760658Y-10571508D02*
X10770182Y-10581031D01*
X10770182Y-10581031D02*
X10779705Y-10600079D01*
X10779705Y-10600079D02*
X10789229Y-10638174D01*
X10789229Y-10638174D02*
X10789229Y-10685793D01*
X10789229Y-10685793D02*
X10779705Y-10723889D01*
X10779705Y-10723889D02*
X10770182Y-10742936D01*
X10770182Y-10742936D02*
X10760658Y-10752460D01*
X10760658Y-10752460D02*
X10741610Y-10761984D01*
X10741610Y-10761984D02*
X10722563Y-10761984D01*
X10722563Y-10761984D02*
X10703515Y-10752460D01*
X10703515Y-10752460D02*
X10693991Y-10742936D01*
X10693991Y-10742936D02*
X10684467Y-10723889D01*
X10684467Y-10723889D02*
X10674944Y-10685793D01*
X10674944Y-10685793D02*
X10674944Y-10638174D01*
X10674944Y-10638174D02*
X10684467Y-10600079D01*
X10684467Y-10600079D02*
X10693991Y-10581031D01*
X10693991Y-10581031D02*
X10703515Y-10571508D01*
X10703515Y-10571508D02*
X10722563Y-10561984D01*
X10913039Y-10561984D02*
X10932086Y-10561984D01*
X10932086Y-10561984D02*
X10951134Y-10571508D01*
X10951134Y-10571508D02*
X10960658Y-10581031D01*
X10960658Y-10581031D02*
X10970182Y-10600079D01*
X10970182Y-10600079D02*
X10979705Y-10638174D01*
X10979705Y-10638174D02*
X10979705Y-10685793D01*
X10979705Y-10685793D02*
X10970182Y-10723889D01*
X10970182Y-10723889D02*
X10960658Y-10742936D01*
X10960658Y-10742936D02*
X10951134Y-10752460D01*
X10951134Y-10752460D02*
X10932086Y-10761984D01*
X10932086Y-10761984D02*
X10913039Y-10761984D01*
X10913039Y-10761984D02*
X10893991Y-10752460D01*
X10893991Y-10752460D02*
X10884467Y-10742936D01*
X10884467Y-10742936D02*
X10874944Y-10723889D01*
X10874944Y-10723889D02*
X10865420Y-10685793D01*
X10865420Y-10685793D02*
X10865420Y-10638174D01*
X10865420Y-10638174D02*
X10874944Y-10600079D01*
X10874944Y-10600079D02*
X10884467Y-10581031D01*
X10884467Y-10581031D02*
X10893991Y-10571508D01*
X10893991Y-10571508D02*
X10913039Y-10561984D01*
X11065420Y-10761984D02*
X11065420Y-10628650D01*
X11065420Y-10647698D02*
X11074944Y-10638174D01*
X11074944Y-10638174D02*
X11093991Y-10628650D01*
X11093991Y-10628650D02*
X11122563Y-10628650D01*
X11122563Y-10628650D02*
X11141610Y-10638174D01*
X11141610Y-10638174D02*
X11151134Y-10657222D01*
X11151134Y-10657222D02*
X11151134Y-10761984D01*
X11151134Y-10657222D02*
X11160658Y-10638174D01*
X11160658Y-10638174D02*
X11179705Y-10628650D01*
X11179705Y-10628650D02*
X11208277Y-10628650D01*
X11208277Y-10628650D02*
X11227324Y-10638174D01*
X11227324Y-10638174D02*
X11236848Y-10657222D01*
X11236848Y-10657222D02*
X11236848Y-10761984D01*
X11332086Y-10761984D02*
X11332086Y-10628650D01*
X11332086Y-10647698D02*
X11341610Y-10638174D01*
X11341610Y-10638174D02*
X11360658Y-10628650D01*
X11360658Y-10628650D02*
X11389229Y-10628650D01*
X11389229Y-10628650D02*
X11408277Y-10638174D01*
X11408277Y-10638174D02*
X11417801Y-10657222D01*
X11417801Y-10657222D02*
X11417801Y-10761984D01*
X11417801Y-10657222D02*
X11427324Y-10638174D01*
X11427324Y-10638174D02*
X11446372Y-10628650D01*
X11446372Y-10628650D02*
X11474943Y-10628650D01*
X11474943Y-10628650D02*
X11493991Y-10638174D01*
X11493991Y-10638174D02*
X11503515Y-10657222D01*
X11503515Y-10657222D02*
X11503515Y-10761984D01*
X11893991Y-10552460D02*
X11722563Y-10809603D01*
X12151134Y-10561984D02*
X12170182Y-10561984D01*
X12170182Y-10561984D02*
X12189229Y-10571508D01*
X12189229Y-10571508D02*
X12198753Y-10581031D01*
X12198753Y-10581031D02*
X12208277Y-10600079D01*
X12208277Y-10600079D02*
X12217801Y-10638174D01*
X12217801Y-10638174D02*
X12217801Y-10685793D01*
X12217801Y-10685793D02*
X12208277Y-10723889D01*
X12208277Y-10723889D02*
X12198753Y-10742936D01*
X12198753Y-10742936D02*
X12189229Y-10752460D01*
X12189229Y-10752460D02*
X12170182Y-10761984D01*
X12170182Y-10761984D02*
X12151134Y-10761984D01*
X12151134Y-10761984D02*
X12132086Y-10752460D01*
X12132086Y-10752460D02*
X12122563Y-10742936D01*
X12122563Y-10742936D02*
X12113039Y-10723889D01*
X12113039Y-10723889D02*
X12103515Y-10685793D01*
X12103515Y-10685793D02*
X12103515Y-10638174D01*
X12103515Y-10638174D02*
X12113039Y-10600079D01*
X12113039Y-10600079D02*
X12122563Y-10581031D01*
X12122563Y-10581031D02*
X12132086Y-10571508D01*
X12132086Y-10571508D02*
X12151134Y-10561984D01*
X12303515Y-10742936D02*
X12313039Y-10752460D01*
X12313039Y-10752460D02*
X12303515Y-10761984D01*
X12303515Y-10761984D02*
X12293991Y-10752460D01*
X12293991Y-10752460D02*
X12303515Y-10742936D01*
X12303515Y-10742936D02*
X12303515Y-10761984D01*
X12436848Y-10561984D02*
X12455896Y-10561984D01*
X12455896Y-10561984D02*
X12474944Y-10571508D01*
X12474944Y-10571508D02*
X12484467Y-10581031D01*
X12484467Y-10581031D02*
X12493991Y-10600079D01*
X12493991Y-10600079D02*
X12503515Y-10638174D01*
X12503515Y-10638174D02*
X12503515Y-10685793D01*
X12503515Y-10685793D02*
X12493991Y-10723889D01*
X12493991Y-10723889D02*
X12484467Y-10742936D01*
X12484467Y-10742936D02*
X12474944Y-10752460D01*
X12474944Y-10752460D02*
X12455896Y-10761984D01*
X12455896Y-10761984D02*
X12436848Y-10761984D01*
X12436848Y-10761984D02*
X12417801Y-10752460D01*
X12417801Y-10752460D02*
X12408277Y-10742936D01*
X12408277Y-10742936D02*
X12398753Y-10723889D01*
X12398753Y-10723889D02*
X12389229Y-10685793D01*
X12389229Y-10685793D02*
X12389229Y-10638174D01*
X12389229Y-10638174D02*
X12398753Y-10600079D01*
X12398753Y-10600079D02*
X12408277Y-10581031D01*
X12408277Y-10581031D02*
X12417801Y-10571508D01*
X12417801Y-10571508D02*
X12436848Y-10561984D01*
X12570182Y-10561984D02*
X12693991Y-10561984D01*
X12693991Y-10561984D02*
X12627325Y-10638174D01*
X12627325Y-10638174D02*
X12655896Y-10638174D01*
X12655896Y-10638174D02*
X12674944Y-10647698D01*
X12674944Y-10647698D02*
X12684467Y-10657222D01*
X12684467Y-10657222D02*
X12693991Y-10676270D01*
X12693991Y-10676270D02*
X12693991Y-10723889D01*
X12693991Y-10723889D02*
X12684467Y-10742936D01*
X12684467Y-10742936D02*
X12674944Y-10752460D01*
X12674944Y-10752460D02*
X12655896Y-10761984D01*
X12655896Y-10761984D02*
X12598753Y-10761984D01*
X12598753Y-10761984D02*
X12579706Y-10752460D01*
X12579706Y-10752460D02*
X12570182Y-10742936D01*
X12789229Y-10761984D02*
X12827325Y-10761984D01*
X12827325Y-10761984D02*
X12846372Y-10752460D01*
X12846372Y-10752460D02*
X12855896Y-10742936D01*
X12855896Y-10742936D02*
X12874944Y-10714365D01*
X12874944Y-10714365D02*
X12884467Y-10676270D01*
X12884467Y-10676270D02*
X12884467Y-10600079D01*
X12884467Y-10600079D02*
X12874944Y-10581031D01*
X12874944Y-10581031D02*
X12865420Y-10571508D01*
X12865420Y-10571508D02*
X12846372Y-10561984D01*
X12846372Y-10561984D02*
X12808277Y-10561984D01*
X12808277Y-10561984D02*
X12789229Y-10571508D01*
X12789229Y-10571508D02*
X12779706Y-10581031D01*
X12779706Y-10581031D02*
X12770182Y-10600079D01*
X12770182Y-10600079D02*
X12770182Y-10647698D01*
X12770182Y-10647698D02*
X12779706Y-10666746D01*
X12779706Y-10666746D02*
X12789229Y-10676270D01*
X12789229Y-10676270D02*
X12808277Y-10685793D01*
X12808277Y-10685793D02*
X12846372Y-10685793D01*
X12846372Y-10685793D02*
X12865420Y-10676270D01*
X12865420Y-10676270D02*
X12874944Y-10666746D01*
X12874944Y-10666746D02*
X12884467Y-10647698D01*
X13055896Y-10628650D02*
X13055896Y-10761984D01*
X13008277Y-10552460D02*
X12960658Y-10695317D01*
X12960658Y-10695317D02*
X13084467Y-10695317D01*
X13151134Y-10561984D02*
X13151134Y-10600079D01*
X13227325Y-10561984D02*
X13227325Y-10600079D01*
X13522563Y-10838174D02*
X13513039Y-10828650D01*
X13513039Y-10828650D02*
X13493991Y-10800079D01*
X13493991Y-10800079D02*
X13484468Y-10781031D01*
X13484468Y-10781031D02*
X13474944Y-10752460D01*
X13474944Y-10752460D02*
X13465420Y-10704841D01*
X13465420Y-10704841D02*
X13465420Y-10666746D01*
X13465420Y-10666746D02*
X13474944Y-10619127D01*
X13474944Y-10619127D02*
X13484468Y-10590555D01*
X13484468Y-10590555D02*
X13493991Y-10571508D01*
X13493991Y-10571508D02*
X13513039Y-10542936D01*
X13513039Y-10542936D02*
X13522563Y-10533412D01*
X13589229Y-10581031D02*
X13598753Y-10571508D01*
X13598753Y-10571508D02*
X13617801Y-10561984D01*
X13617801Y-10561984D02*
X13665420Y-10561984D01*
X13665420Y-10561984D02*
X13684468Y-10571508D01*
X13684468Y-10571508D02*
X13693991Y-10581031D01*
X13693991Y-10581031D02*
X13703515Y-10600079D01*
X13703515Y-10600079D02*
X13703515Y-10619127D01*
X13703515Y-10619127D02*
X13693991Y-10647698D01*
X13693991Y-10647698D02*
X13579706Y-10761984D01*
X13579706Y-10761984D02*
X13703515Y-10761984D01*
X13874944Y-10628650D02*
X13874944Y-10761984D01*
X13827325Y-10552460D02*
X13779706Y-10695317D01*
X13779706Y-10695317D02*
X13903515Y-10695317D01*
X14132087Y-10761984D02*
X14132087Y-10561984D01*
X14217801Y-10761984D02*
X14217801Y-10657222D01*
X14217801Y-10657222D02*
X14208277Y-10638174D01*
X14208277Y-10638174D02*
X14189230Y-10628650D01*
X14189230Y-10628650D02*
X14160658Y-10628650D01*
X14160658Y-10628650D02*
X14141610Y-10638174D01*
X14141610Y-10638174D02*
X14132087Y-10647698D01*
X14341610Y-10761984D02*
X14322563Y-10752460D01*
X14322563Y-10752460D02*
X14313039Y-10742936D01*
X14313039Y-10742936D02*
X14303515Y-10723889D01*
X14303515Y-10723889D02*
X14303515Y-10666746D01*
X14303515Y-10666746D02*
X14313039Y-10647698D01*
X14313039Y-10647698D02*
X14322563Y-10638174D01*
X14322563Y-10638174D02*
X14341610Y-10628650D01*
X14341610Y-10628650D02*
X14370182Y-10628650D01*
X14370182Y-10628650D02*
X14389230Y-10638174D01*
X14389230Y-10638174D02*
X14398753Y-10647698D01*
X14398753Y-10647698D02*
X14408277Y-10666746D01*
X14408277Y-10666746D02*
X14408277Y-10723889D01*
X14408277Y-10723889D02*
X14398753Y-10742936D01*
X14398753Y-10742936D02*
X14389230Y-10752460D01*
X14389230Y-10752460D02*
X14370182Y-10761984D01*
X14370182Y-10761984D02*
X14341610Y-10761984D01*
X14522563Y-10761984D02*
X14503515Y-10752460D01*
X14503515Y-10752460D02*
X14493991Y-10733412D01*
X14493991Y-10733412D02*
X14493991Y-10561984D01*
X14674944Y-10752460D02*
X14655896Y-10761984D01*
X14655896Y-10761984D02*
X14617801Y-10761984D01*
X14617801Y-10761984D02*
X14598753Y-10752460D01*
X14598753Y-10752460D02*
X14589230Y-10733412D01*
X14589230Y-10733412D02*
X14589230Y-10657222D01*
X14589230Y-10657222D02*
X14598753Y-10638174D01*
X14598753Y-10638174D02*
X14617801Y-10628650D01*
X14617801Y-10628650D02*
X14655896Y-10628650D01*
X14655896Y-10628650D02*
X14674944Y-10638174D01*
X14674944Y-10638174D02*
X14684468Y-10657222D01*
X14684468Y-10657222D02*
X14684468Y-10676270D01*
X14684468Y-10676270D02*
X14589230Y-10695317D01*
X14760658Y-10752460D02*
X14779706Y-10761984D01*
X14779706Y-10761984D02*
X14817801Y-10761984D01*
X14817801Y-10761984D02*
X14836849Y-10752460D01*
X14836849Y-10752460D02*
X14846372Y-10733412D01*
X14846372Y-10733412D02*
X14846372Y-10723889D01*
X14846372Y-10723889D02*
X14836849Y-10704841D01*
X14836849Y-10704841D02*
X14817801Y-10695317D01*
X14817801Y-10695317D02*
X14789230Y-10695317D01*
X14789230Y-10695317D02*
X14770182Y-10685793D01*
X14770182Y-10685793D02*
X14760658Y-10666746D01*
X14760658Y-10666746D02*
X14760658Y-10657222D01*
X14760658Y-10657222D02*
X14770182Y-10638174D01*
X14770182Y-10638174D02*
X14789230Y-10628650D01*
X14789230Y-10628650D02*
X14817801Y-10628650D01*
X14817801Y-10628650D02*
X14836849Y-10638174D01*
X14913039Y-10838174D02*
X14922563Y-10828650D01*
X14922563Y-10828650D02*
X14941611Y-10800079D01*
X14941611Y-10800079D02*
X14951134Y-10781031D01*
X14951134Y-10781031D02*
X14960658Y-10752460D01*
X14960658Y-10752460D02*
X14970182Y-10704841D01*
X14970182Y-10704841D02*
X14970182Y-10666746D01*
X14970182Y-10666746D02*
X14960658Y-10619127D01*
X14960658Y-10619127D02*
X14951134Y-10590555D01*
X14951134Y-10590555D02*
X14941611Y-10571508D01*
X14941611Y-10571508D02*
X14922563Y-10542936D01*
X14922563Y-10542936D02*
X14913039Y-10533412D01*
X9918211Y-11005211D02*
X9918211Y-10863789D01*
X9776789Y-10863789D01*
X9776789Y-11005211D01*
X9918211Y-11005211D01*
X10198753Y-10845031D02*
X10208277Y-10835508D01*
X10208277Y-10835508D02*
X10227324Y-10825984D01*
X10227324Y-10825984D02*
X10274944Y-10825984D01*
X10274944Y-10825984D02*
X10293991Y-10835508D01*
X10293991Y-10835508D02*
X10303515Y-10845031D01*
X10303515Y-10845031D02*
X10313039Y-10864079D01*
X10313039Y-10864079D02*
X10313039Y-10883127D01*
X10313039Y-10883127D02*
X10303515Y-10911698D01*
X10303515Y-10911698D02*
X10189229Y-11025984D01*
X10189229Y-11025984D02*
X10313039Y-11025984D01*
X10398753Y-11006936D02*
X10408277Y-11016460D01*
X10408277Y-11016460D02*
X10398753Y-11025984D01*
X10398753Y-11025984D02*
X10389229Y-11016460D01*
X10389229Y-11016460D02*
X10398753Y-11006936D01*
X10398753Y-11006936D02*
X10398753Y-11025984D01*
X10474944Y-10825984D02*
X10598753Y-10825984D01*
X10598753Y-10825984D02*
X10532086Y-10902174D01*
X10532086Y-10902174D02*
X10560658Y-10902174D01*
X10560658Y-10902174D02*
X10579705Y-10911698D01*
X10579705Y-10911698D02*
X10589229Y-10921222D01*
X10589229Y-10921222D02*
X10598753Y-10940270D01*
X10598753Y-10940270D02*
X10598753Y-10987889D01*
X10598753Y-10987889D02*
X10589229Y-11006936D01*
X10589229Y-11006936D02*
X10579705Y-11016460D01*
X10579705Y-11016460D02*
X10560658Y-11025984D01*
X10560658Y-11025984D02*
X10503515Y-11025984D01*
X10503515Y-11025984D02*
X10484467Y-11016460D01*
X10484467Y-11016460D02*
X10474944Y-11006936D01*
X10722563Y-10825984D02*
X10741610Y-10825984D01*
X10741610Y-10825984D02*
X10760658Y-10835508D01*
X10760658Y-10835508D02*
X10770182Y-10845031D01*
X10770182Y-10845031D02*
X10779705Y-10864079D01*
X10779705Y-10864079D02*
X10789229Y-10902174D01*
X10789229Y-10902174D02*
X10789229Y-10949793D01*
X10789229Y-10949793D02*
X10779705Y-10987889D01*
X10779705Y-10987889D02*
X10770182Y-11006936D01*
X10770182Y-11006936D02*
X10760658Y-11016460D01*
X10760658Y-11016460D02*
X10741610Y-11025984D01*
X10741610Y-11025984D02*
X10722563Y-11025984D01*
X10722563Y-11025984D02*
X10703515Y-11016460D01*
X10703515Y-11016460D02*
X10693991Y-11006936D01*
X10693991Y-11006936D02*
X10684467Y-10987889D01*
X10684467Y-10987889D02*
X10674944Y-10949793D01*
X10674944Y-10949793D02*
X10674944Y-10902174D01*
X10674944Y-10902174D02*
X10684467Y-10864079D01*
X10684467Y-10864079D02*
X10693991Y-10845031D01*
X10693991Y-10845031D02*
X10703515Y-10835508D01*
X10703515Y-10835508D02*
X10722563Y-10825984D01*
X10913039Y-10825984D02*
X10932086Y-10825984D01*
X10932086Y-10825984D02*
X10951134Y-10835508D01*
X10951134Y-10835508D02*
X10960658Y-10845031D01*
X10960658Y-10845031D02*
X10970182Y-10864079D01*
X10970182Y-10864079D02*
X10979705Y-10902174D01*
X10979705Y-10902174D02*
X10979705Y-10949793D01*
X10979705Y-10949793D02*
X10970182Y-10987889D01*
X10970182Y-10987889D02*
X10960658Y-11006936D01*
X10960658Y-11006936D02*
X10951134Y-11016460D01*
X10951134Y-11016460D02*
X10932086Y-11025984D01*
X10932086Y-11025984D02*
X10913039Y-11025984D01*
X10913039Y-11025984D02*
X10893991Y-11016460D01*
X10893991Y-11016460D02*
X10884467Y-11006936D01*
X10884467Y-11006936D02*
X10874944Y-10987889D01*
X10874944Y-10987889D02*
X10865420Y-10949793D01*
X10865420Y-10949793D02*
X10865420Y-10902174D01*
X10865420Y-10902174D02*
X10874944Y-10864079D01*
X10874944Y-10864079D02*
X10884467Y-10845031D01*
X10884467Y-10845031D02*
X10893991Y-10835508D01*
X10893991Y-10835508D02*
X10913039Y-10825984D01*
X11065420Y-11025984D02*
X11065420Y-10892650D01*
X11065420Y-10911698D02*
X11074944Y-10902174D01*
X11074944Y-10902174D02*
X11093991Y-10892650D01*
X11093991Y-10892650D02*
X11122563Y-10892650D01*
X11122563Y-10892650D02*
X11141610Y-10902174D01*
X11141610Y-10902174D02*
X11151134Y-10921222D01*
X11151134Y-10921222D02*
X11151134Y-11025984D01*
X11151134Y-10921222D02*
X11160658Y-10902174D01*
X11160658Y-10902174D02*
X11179705Y-10892650D01*
X11179705Y-10892650D02*
X11208277Y-10892650D01*
X11208277Y-10892650D02*
X11227324Y-10902174D01*
X11227324Y-10902174D02*
X11236848Y-10921222D01*
X11236848Y-10921222D02*
X11236848Y-11025984D01*
X11332086Y-11025984D02*
X11332086Y-10892650D01*
X11332086Y-10911698D02*
X11341610Y-10902174D01*
X11341610Y-10902174D02*
X11360658Y-10892650D01*
X11360658Y-10892650D02*
X11389229Y-10892650D01*
X11389229Y-10892650D02*
X11408277Y-10902174D01*
X11408277Y-10902174D02*
X11417801Y-10921222D01*
X11417801Y-10921222D02*
X11417801Y-11025984D01*
X11417801Y-10921222D02*
X11427324Y-10902174D01*
X11427324Y-10902174D02*
X11446372Y-10892650D01*
X11446372Y-10892650D02*
X11474943Y-10892650D01*
X11474943Y-10892650D02*
X11493991Y-10902174D01*
X11493991Y-10902174D02*
X11503515Y-10921222D01*
X11503515Y-10921222D02*
X11503515Y-11025984D01*
X11893991Y-10816460D02*
X11722563Y-11073603D01*
X12151134Y-10825984D02*
X12170182Y-10825984D01*
X12170182Y-10825984D02*
X12189229Y-10835508D01*
X12189229Y-10835508D02*
X12198753Y-10845031D01*
X12198753Y-10845031D02*
X12208277Y-10864079D01*
X12208277Y-10864079D02*
X12217801Y-10902174D01*
X12217801Y-10902174D02*
X12217801Y-10949793D01*
X12217801Y-10949793D02*
X12208277Y-10987889D01*
X12208277Y-10987889D02*
X12198753Y-11006936D01*
X12198753Y-11006936D02*
X12189229Y-11016460D01*
X12189229Y-11016460D02*
X12170182Y-11025984D01*
X12170182Y-11025984D02*
X12151134Y-11025984D01*
X12151134Y-11025984D02*
X12132086Y-11016460D01*
X12132086Y-11016460D02*
X12122563Y-11006936D01*
X12122563Y-11006936D02*
X12113039Y-10987889D01*
X12113039Y-10987889D02*
X12103515Y-10949793D01*
X12103515Y-10949793D02*
X12103515Y-10902174D01*
X12103515Y-10902174D02*
X12113039Y-10864079D01*
X12113039Y-10864079D02*
X12122563Y-10845031D01*
X12122563Y-10845031D02*
X12132086Y-10835508D01*
X12132086Y-10835508D02*
X12151134Y-10825984D01*
X12303515Y-11006936D02*
X12313039Y-11016460D01*
X12313039Y-11016460D02*
X12303515Y-11025984D01*
X12303515Y-11025984D02*
X12293991Y-11016460D01*
X12293991Y-11016460D02*
X12303515Y-11006936D01*
X12303515Y-11006936D02*
X12303515Y-11025984D01*
X12436848Y-10825984D02*
X12455896Y-10825984D01*
X12455896Y-10825984D02*
X12474944Y-10835508D01*
X12474944Y-10835508D02*
X12484467Y-10845031D01*
X12484467Y-10845031D02*
X12493991Y-10864079D01*
X12493991Y-10864079D02*
X12503515Y-10902174D01*
X12503515Y-10902174D02*
X12503515Y-10949793D01*
X12503515Y-10949793D02*
X12493991Y-10987889D01*
X12493991Y-10987889D02*
X12484467Y-11006936D01*
X12484467Y-11006936D02*
X12474944Y-11016460D01*
X12474944Y-11016460D02*
X12455896Y-11025984D01*
X12455896Y-11025984D02*
X12436848Y-11025984D01*
X12436848Y-11025984D02*
X12417801Y-11016460D01*
X12417801Y-11016460D02*
X12408277Y-11006936D01*
X12408277Y-11006936D02*
X12398753Y-10987889D01*
X12398753Y-10987889D02*
X12389229Y-10949793D01*
X12389229Y-10949793D02*
X12389229Y-10902174D01*
X12389229Y-10902174D02*
X12398753Y-10864079D01*
X12398753Y-10864079D02*
X12408277Y-10845031D01*
X12408277Y-10845031D02*
X12417801Y-10835508D01*
X12417801Y-10835508D02*
X12436848Y-10825984D01*
X12598753Y-11025984D02*
X12636848Y-11025984D01*
X12636848Y-11025984D02*
X12655896Y-11016460D01*
X12655896Y-11016460D02*
X12665420Y-11006936D01*
X12665420Y-11006936D02*
X12684467Y-10978365D01*
X12684467Y-10978365D02*
X12693991Y-10940270D01*
X12693991Y-10940270D02*
X12693991Y-10864079D01*
X12693991Y-10864079D02*
X12684467Y-10845031D01*
X12684467Y-10845031D02*
X12674944Y-10835508D01*
X12674944Y-10835508D02*
X12655896Y-10825984D01*
X12655896Y-10825984D02*
X12617801Y-10825984D01*
X12617801Y-10825984D02*
X12598753Y-10835508D01*
X12598753Y-10835508D02*
X12589229Y-10845031D01*
X12589229Y-10845031D02*
X12579706Y-10864079D01*
X12579706Y-10864079D02*
X12579706Y-10911698D01*
X12579706Y-10911698D02*
X12589229Y-10930746D01*
X12589229Y-10930746D02*
X12598753Y-10940270D01*
X12598753Y-10940270D02*
X12617801Y-10949793D01*
X12617801Y-10949793D02*
X12655896Y-10949793D01*
X12655896Y-10949793D02*
X12674944Y-10940270D01*
X12674944Y-10940270D02*
X12684467Y-10930746D01*
X12684467Y-10930746D02*
X12693991Y-10911698D01*
X12817801Y-10825984D02*
X12836848Y-10825984D01*
X12836848Y-10825984D02*
X12855896Y-10835508D01*
X12855896Y-10835508D02*
X12865420Y-10845031D01*
X12865420Y-10845031D02*
X12874944Y-10864079D01*
X12874944Y-10864079D02*
X12884467Y-10902174D01*
X12884467Y-10902174D02*
X12884467Y-10949793D01*
X12884467Y-10949793D02*
X12874944Y-10987889D01*
X12874944Y-10987889D02*
X12865420Y-11006936D01*
X12865420Y-11006936D02*
X12855896Y-11016460D01*
X12855896Y-11016460D02*
X12836848Y-11025984D01*
X12836848Y-11025984D02*
X12817801Y-11025984D01*
X12817801Y-11025984D02*
X12798753Y-11016460D01*
X12798753Y-11016460D02*
X12789229Y-11006936D01*
X12789229Y-11006936D02*
X12779706Y-10987889D01*
X12779706Y-10987889D02*
X12770182Y-10949793D01*
X12770182Y-10949793D02*
X12770182Y-10902174D01*
X12770182Y-10902174D02*
X12779706Y-10864079D01*
X12779706Y-10864079D02*
X12789229Y-10845031D01*
X12789229Y-10845031D02*
X12798753Y-10835508D01*
X12798753Y-10835508D02*
X12817801Y-10825984D01*
X13055896Y-10825984D02*
X13017801Y-10825984D01*
X13017801Y-10825984D02*
X12998753Y-10835508D01*
X12998753Y-10835508D02*
X12989229Y-10845031D01*
X12989229Y-10845031D02*
X12970182Y-10873603D01*
X12970182Y-10873603D02*
X12960658Y-10911698D01*
X12960658Y-10911698D02*
X12960658Y-10987889D01*
X12960658Y-10987889D02*
X12970182Y-11006936D01*
X12970182Y-11006936D02*
X12979706Y-11016460D01*
X12979706Y-11016460D02*
X12998753Y-11025984D01*
X12998753Y-11025984D02*
X13036848Y-11025984D01*
X13036848Y-11025984D02*
X13055896Y-11016460D01*
X13055896Y-11016460D02*
X13065420Y-11006936D01*
X13065420Y-11006936D02*
X13074944Y-10987889D01*
X13074944Y-10987889D02*
X13074944Y-10940270D01*
X13074944Y-10940270D02*
X13065420Y-10921222D01*
X13065420Y-10921222D02*
X13055896Y-10911698D01*
X13055896Y-10911698D02*
X13036848Y-10902174D01*
X13036848Y-10902174D02*
X12998753Y-10902174D01*
X12998753Y-10902174D02*
X12979706Y-10911698D01*
X12979706Y-10911698D02*
X12970182Y-10921222D01*
X12970182Y-10921222D02*
X12960658Y-10940270D01*
X13151134Y-10825984D02*
X13151134Y-10864079D01*
X13227325Y-10825984D02*
X13227325Y-10864079D01*
X13522563Y-11102174D02*
X13513039Y-11092650D01*
X13513039Y-11092650D02*
X13493991Y-11064079D01*
X13493991Y-11064079D02*
X13484468Y-11045031D01*
X13484468Y-11045031D02*
X13474944Y-11016460D01*
X13474944Y-11016460D02*
X13465420Y-10968841D01*
X13465420Y-10968841D02*
X13465420Y-10930746D01*
X13465420Y-10930746D02*
X13474944Y-10883127D01*
X13474944Y-10883127D02*
X13484468Y-10854555D01*
X13484468Y-10854555D02*
X13493991Y-10835508D01*
X13493991Y-10835508D02*
X13513039Y-10806936D01*
X13513039Y-10806936D02*
X13522563Y-10797412D01*
X13589229Y-10845031D02*
X13598753Y-10835508D01*
X13598753Y-10835508D02*
X13617801Y-10825984D01*
X13617801Y-10825984D02*
X13665420Y-10825984D01*
X13665420Y-10825984D02*
X13684468Y-10835508D01*
X13684468Y-10835508D02*
X13693991Y-10845031D01*
X13693991Y-10845031D02*
X13703515Y-10864079D01*
X13703515Y-10864079D02*
X13703515Y-10883127D01*
X13703515Y-10883127D02*
X13693991Y-10911698D01*
X13693991Y-10911698D02*
X13579706Y-11025984D01*
X13579706Y-11025984D02*
X13703515Y-11025984D01*
X13941610Y-11025984D02*
X13941610Y-10825984D01*
X14027325Y-11025984D02*
X14027325Y-10921222D01*
X14027325Y-10921222D02*
X14017801Y-10902174D01*
X14017801Y-10902174D02*
X13998753Y-10892650D01*
X13998753Y-10892650D02*
X13970182Y-10892650D01*
X13970182Y-10892650D02*
X13951134Y-10902174D01*
X13951134Y-10902174D02*
X13941610Y-10911698D01*
X14151134Y-11025984D02*
X14132087Y-11016460D01*
X14132087Y-11016460D02*
X14122563Y-11006936D01*
X14122563Y-11006936D02*
X14113039Y-10987889D01*
X14113039Y-10987889D02*
X14113039Y-10930746D01*
X14113039Y-10930746D02*
X14122563Y-10911698D01*
X14122563Y-10911698D02*
X14132087Y-10902174D01*
X14132087Y-10902174D02*
X14151134Y-10892650D01*
X14151134Y-10892650D02*
X14179706Y-10892650D01*
X14179706Y-10892650D02*
X14198753Y-10902174D01*
X14198753Y-10902174D02*
X14208277Y-10911698D01*
X14208277Y-10911698D02*
X14217801Y-10930746D01*
X14217801Y-10930746D02*
X14217801Y-10987889D01*
X14217801Y-10987889D02*
X14208277Y-11006936D01*
X14208277Y-11006936D02*
X14198753Y-11016460D01*
X14198753Y-11016460D02*
X14179706Y-11025984D01*
X14179706Y-11025984D02*
X14151134Y-11025984D01*
X14332087Y-11025984D02*
X14313039Y-11016460D01*
X14313039Y-11016460D02*
X14303515Y-10997412D01*
X14303515Y-10997412D02*
X14303515Y-10825984D01*
X14484468Y-11016460D02*
X14465420Y-11025984D01*
X14465420Y-11025984D02*
X14427325Y-11025984D01*
X14427325Y-11025984D02*
X14408277Y-11016460D01*
X14408277Y-11016460D02*
X14398753Y-10997412D01*
X14398753Y-10997412D02*
X14398753Y-10921222D01*
X14398753Y-10921222D02*
X14408277Y-10902174D01*
X14408277Y-10902174D02*
X14427325Y-10892650D01*
X14427325Y-10892650D02*
X14465420Y-10892650D01*
X14465420Y-10892650D02*
X14484468Y-10902174D01*
X14484468Y-10902174D02*
X14493991Y-10921222D01*
X14493991Y-10921222D02*
X14493991Y-10940270D01*
X14493991Y-10940270D02*
X14398753Y-10959317D01*
X14570182Y-11016460D02*
X14589230Y-11025984D01*
X14589230Y-11025984D02*
X14627325Y-11025984D01*
X14627325Y-11025984D02*
X14646372Y-11016460D01*
X14646372Y-11016460D02*
X14655896Y-10997412D01*
X14655896Y-10997412D02*
X14655896Y-10987889D01*
X14655896Y-10987889D02*
X14646372Y-10968841D01*
X14646372Y-10968841D02*
X14627325Y-10959317D01*
X14627325Y-10959317D02*
X14598753Y-10959317D01*
X14598753Y-10959317D02*
X14579706Y-10949793D01*
X14579706Y-10949793D02*
X14570182Y-10930746D01*
X14570182Y-10930746D02*
X14570182Y-10921222D01*
X14570182Y-10921222D02*
X14579706Y-10902174D01*
X14579706Y-10902174D02*
X14598753Y-10892650D01*
X14598753Y-10892650D02*
X14627325Y-10892650D01*
X14627325Y-10892650D02*
X14646372Y-10902174D01*
X14722563Y-11102174D02*
X14732087Y-11092650D01*
X14732087Y-11092650D02*
X14751134Y-11064079D01*
X14751134Y-11064079D02*
X14760658Y-11045031D01*
X14760658Y-11045031D02*
X14770182Y-11016460D01*
X14770182Y-11016460D02*
X14779706Y-10968841D01*
X14779706Y-10968841D02*
X14779706Y-10930746D01*
X14779706Y-10930746D02*
X14770182Y-10883127D01*
X14770182Y-10883127D02*
X14760658Y-10854555D01*
X14760658Y-10854555D02*
X14751134Y-10835508D01*
X14751134Y-10835508D02*
X14732087Y-10806936D01*
X14732087Y-10806936D02*
X14722563Y-10797412D01*
X9847500Y-11354500D02*
X9947500Y-11254500D01*
X9847500Y-11154500D01*
X9747500Y-11254500D01*
X9847500Y-11354500D01*
X10189229Y-11145984D02*
X10313039Y-11145984D01*
X10313039Y-11145984D02*
X10246372Y-11222174D01*
X10246372Y-11222174D02*
X10274944Y-11222174D01*
X10274944Y-11222174D02*
X10293991Y-11231698D01*
X10293991Y-11231698D02*
X10303515Y-11241222D01*
X10303515Y-11241222D02*
X10313039Y-11260269D01*
X10313039Y-11260269D02*
X10313039Y-11307888D01*
X10313039Y-11307888D02*
X10303515Y-11326936D01*
X10303515Y-11326936D02*
X10293991Y-11336460D01*
X10293991Y-11336460D02*
X10274944Y-11345984D01*
X10274944Y-11345984D02*
X10217801Y-11345984D01*
X10217801Y-11345984D02*
X10198753Y-11336460D01*
X10198753Y-11336460D02*
X10189229Y-11326936D01*
X10398753Y-11326936D02*
X10408277Y-11336460D01*
X10408277Y-11336460D02*
X10398753Y-11345984D01*
X10398753Y-11345984D02*
X10389229Y-11336460D01*
X10389229Y-11336460D02*
X10398753Y-11326936D01*
X10398753Y-11326936D02*
X10398753Y-11345984D01*
X10484467Y-11165031D02*
X10493991Y-11155508D01*
X10493991Y-11155508D02*
X10513039Y-11145984D01*
X10513039Y-11145984D02*
X10560658Y-11145984D01*
X10560658Y-11145984D02*
X10579705Y-11155508D01*
X10579705Y-11155508D02*
X10589229Y-11165031D01*
X10589229Y-11165031D02*
X10598753Y-11184079D01*
X10598753Y-11184079D02*
X10598753Y-11203127D01*
X10598753Y-11203127D02*
X10589229Y-11231698D01*
X10589229Y-11231698D02*
X10474944Y-11345984D01*
X10474944Y-11345984D02*
X10598753Y-11345984D01*
X10722563Y-11145984D02*
X10741610Y-11145984D01*
X10741610Y-11145984D02*
X10760658Y-11155508D01*
X10760658Y-11155508D02*
X10770182Y-11165031D01*
X10770182Y-11165031D02*
X10779705Y-11184079D01*
X10779705Y-11184079D02*
X10789229Y-11222174D01*
X10789229Y-11222174D02*
X10789229Y-11269793D01*
X10789229Y-11269793D02*
X10779705Y-11307888D01*
X10779705Y-11307888D02*
X10770182Y-11326936D01*
X10770182Y-11326936D02*
X10760658Y-11336460D01*
X10760658Y-11336460D02*
X10741610Y-11345984D01*
X10741610Y-11345984D02*
X10722563Y-11345984D01*
X10722563Y-11345984D02*
X10703515Y-11336460D01*
X10703515Y-11336460D02*
X10693991Y-11326936D01*
X10693991Y-11326936D02*
X10684467Y-11307888D01*
X10684467Y-11307888D02*
X10674944Y-11269793D01*
X10674944Y-11269793D02*
X10674944Y-11222174D01*
X10674944Y-11222174D02*
X10684467Y-11184079D01*
X10684467Y-11184079D02*
X10693991Y-11165031D01*
X10693991Y-11165031D02*
X10703515Y-11155508D01*
X10703515Y-11155508D02*
X10722563Y-11145984D01*
X10913039Y-11145984D02*
X10932086Y-11145984D01*
X10932086Y-11145984D02*
X10951134Y-11155508D01*
X10951134Y-11155508D02*
X10960658Y-11165031D01*
X10960658Y-11165031D02*
X10970182Y-11184079D01*
X10970182Y-11184079D02*
X10979705Y-11222174D01*
X10979705Y-11222174D02*
X10979705Y-11269793D01*
X10979705Y-11269793D02*
X10970182Y-11307888D01*
X10970182Y-11307888D02*
X10960658Y-11326936D01*
X10960658Y-11326936D02*
X10951134Y-11336460D01*
X10951134Y-11336460D02*
X10932086Y-11345984D01*
X10932086Y-11345984D02*
X10913039Y-11345984D01*
X10913039Y-11345984D02*
X10893991Y-11336460D01*
X10893991Y-11336460D02*
X10884467Y-11326936D01*
X10884467Y-11326936D02*
X10874944Y-11307888D01*
X10874944Y-11307888D02*
X10865420Y-11269793D01*
X10865420Y-11269793D02*
X10865420Y-11222174D01*
X10865420Y-11222174D02*
X10874944Y-11184079D01*
X10874944Y-11184079D02*
X10884467Y-11165031D01*
X10884467Y-11165031D02*
X10893991Y-11155508D01*
X10893991Y-11155508D02*
X10913039Y-11145984D01*
X11065420Y-11345984D02*
X11065420Y-11212650D01*
X11065420Y-11231698D02*
X11074944Y-11222174D01*
X11074944Y-11222174D02*
X11093991Y-11212650D01*
X11093991Y-11212650D02*
X11122563Y-11212650D01*
X11122563Y-11212650D02*
X11141610Y-11222174D01*
X11141610Y-11222174D02*
X11151134Y-11241222D01*
X11151134Y-11241222D02*
X11151134Y-11345984D01*
X11151134Y-11241222D02*
X11160658Y-11222174D01*
X11160658Y-11222174D02*
X11179705Y-11212650D01*
X11179705Y-11212650D02*
X11208277Y-11212650D01*
X11208277Y-11212650D02*
X11227324Y-11222174D01*
X11227324Y-11222174D02*
X11236848Y-11241222D01*
X11236848Y-11241222D02*
X11236848Y-11345984D01*
X11332086Y-11345984D02*
X11332086Y-11212650D01*
X11332086Y-11231698D02*
X11341610Y-11222174D01*
X11341610Y-11222174D02*
X11360658Y-11212650D01*
X11360658Y-11212650D02*
X11389229Y-11212650D01*
X11389229Y-11212650D02*
X11408277Y-11222174D01*
X11408277Y-11222174D02*
X11417801Y-11241222D01*
X11417801Y-11241222D02*
X11417801Y-11345984D01*
X11417801Y-11241222D02*
X11427324Y-11222174D01*
X11427324Y-11222174D02*
X11446372Y-11212650D01*
X11446372Y-11212650D02*
X11474943Y-11212650D01*
X11474943Y-11212650D02*
X11493991Y-11222174D01*
X11493991Y-11222174D02*
X11503515Y-11241222D01*
X11503515Y-11241222D02*
X11503515Y-11345984D01*
X11893991Y-11136460D02*
X11722563Y-11393603D01*
X12151134Y-11145984D02*
X12170182Y-11145984D01*
X12170182Y-11145984D02*
X12189229Y-11155508D01*
X12189229Y-11155508D02*
X12198753Y-11165031D01*
X12198753Y-11165031D02*
X12208277Y-11184079D01*
X12208277Y-11184079D02*
X12217801Y-11222174D01*
X12217801Y-11222174D02*
X12217801Y-11269793D01*
X12217801Y-11269793D02*
X12208277Y-11307888D01*
X12208277Y-11307888D02*
X12198753Y-11326936D01*
X12198753Y-11326936D02*
X12189229Y-11336460D01*
X12189229Y-11336460D02*
X12170182Y-11345984D01*
X12170182Y-11345984D02*
X12151134Y-11345984D01*
X12151134Y-11345984D02*
X12132086Y-11336460D01*
X12132086Y-11336460D02*
X12122563Y-11326936D01*
X12122563Y-11326936D02*
X12113039Y-11307888D01*
X12113039Y-11307888D02*
X12103515Y-11269793D01*
X12103515Y-11269793D02*
X12103515Y-11222174D01*
X12103515Y-11222174D02*
X12113039Y-11184079D01*
X12113039Y-11184079D02*
X12122563Y-11165031D01*
X12122563Y-11165031D02*
X12132086Y-11155508D01*
X12132086Y-11155508D02*
X12151134Y-11145984D01*
X12303515Y-11326936D02*
X12313039Y-11336460D01*
X12313039Y-11336460D02*
X12303515Y-11345984D01*
X12303515Y-11345984D02*
X12293991Y-11336460D01*
X12293991Y-11336460D02*
X12303515Y-11326936D01*
X12303515Y-11326936D02*
X12303515Y-11345984D01*
X12503515Y-11345984D02*
X12389229Y-11345984D01*
X12446372Y-11345984D02*
X12446372Y-11145984D01*
X12446372Y-11145984D02*
X12427325Y-11174555D01*
X12427325Y-11174555D02*
X12408277Y-11193603D01*
X12408277Y-11193603D02*
X12389229Y-11203127D01*
X12579706Y-11165031D02*
X12589229Y-11155508D01*
X12589229Y-11155508D02*
X12608277Y-11145984D01*
X12608277Y-11145984D02*
X12655896Y-11145984D01*
X12655896Y-11145984D02*
X12674944Y-11155508D01*
X12674944Y-11155508D02*
X12684467Y-11165031D01*
X12684467Y-11165031D02*
X12693991Y-11184079D01*
X12693991Y-11184079D02*
X12693991Y-11203127D01*
X12693991Y-11203127D02*
X12684467Y-11231698D01*
X12684467Y-11231698D02*
X12570182Y-11345984D01*
X12570182Y-11345984D02*
X12693991Y-11345984D01*
X12865420Y-11145984D02*
X12827325Y-11145984D01*
X12827325Y-11145984D02*
X12808277Y-11155508D01*
X12808277Y-11155508D02*
X12798753Y-11165031D01*
X12798753Y-11165031D02*
X12779706Y-11193603D01*
X12779706Y-11193603D02*
X12770182Y-11231698D01*
X12770182Y-11231698D02*
X12770182Y-11307888D01*
X12770182Y-11307888D02*
X12779706Y-11326936D01*
X12779706Y-11326936D02*
X12789229Y-11336460D01*
X12789229Y-11336460D02*
X12808277Y-11345984D01*
X12808277Y-11345984D02*
X12846372Y-11345984D01*
X12846372Y-11345984D02*
X12865420Y-11336460D01*
X12865420Y-11336460D02*
X12874944Y-11326936D01*
X12874944Y-11326936D02*
X12884467Y-11307888D01*
X12884467Y-11307888D02*
X12884467Y-11260269D01*
X12884467Y-11260269D02*
X12874944Y-11241222D01*
X12874944Y-11241222D02*
X12865420Y-11231698D01*
X12865420Y-11231698D02*
X12846372Y-11222174D01*
X12846372Y-11222174D02*
X12808277Y-11222174D01*
X12808277Y-11222174D02*
X12789229Y-11231698D01*
X12789229Y-11231698D02*
X12779706Y-11241222D01*
X12779706Y-11241222D02*
X12770182Y-11260269D01*
X13008277Y-11145984D02*
X13027325Y-11145984D01*
X13027325Y-11145984D02*
X13046372Y-11155508D01*
X13046372Y-11155508D02*
X13055896Y-11165031D01*
X13055896Y-11165031D02*
X13065420Y-11184079D01*
X13065420Y-11184079D02*
X13074944Y-11222174D01*
X13074944Y-11222174D02*
X13074944Y-11269793D01*
X13074944Y-11269793D02*
X13065420Y-11307888D01*
X13065420Y-11307888D02*
X13055896Y-11326936D01*
X13055896Y-11326936D02*
X13046372Y-11336460D01*
X13046372Y-11336460D02*
X13027325Y-11345984D01*
X13027325Y-11345984D02*
X13008277Y-11345984D01*
X13008277Y-11345984D02*
X12989229Y-11336460D01*
X12989229Y-11336460D02*
X12979706Y-11326936D01*
X12979706Y-11326936D02*
X12970182Y-11307888D01*
X12970182Y-11307888D02*
X12960658Y-11269793D01*
X12960658Y-11269793D02*
X12960658Y-11222174D01*
X12960658Y-11222174D02*
X12970182Y-11184079D01*
X12970182Y-11184079D02*
X12979706Y-11165031D01*
X12979706Y-11165031D02*
X12989229Y-11155508D01*
X12989229Y-11155508D02*
X13008277Y-11145984D01*
X13151134Y-11145984D02*
X13151134Y-11184079D01*
X13227325Y-11145984D02*
X13227325Y-11184079D01*
X13522563Y-11422174D02*
X13513039Y-11412650D01*
X13513039Y-11412650D02*
X13493991Y-11384079D01*
X13493991Y-11384079D02*
X13484468Y-11365031D01*
X13484468Y-11365031D02*
X13474944Y-11336460D01*
X13474944Y-11336460D02*
X13465420Y-11288841D01*
X13465420Y-11288841D02*
X13465420Y-11250746D01*
X13465420Y-11250746D02*
X13474944Y-11203127D01*
X13474944Y-11203127D02*
X13484468Y-11174555D01*
X13484468Y-11174555D02*
X13493991Y-11155508D01*
X13493991Y-11155508D02*
X13513039Y-11126936D01*
X13513039Y-11126936D02*
X13522563Y-11117412D01*
X13579706Y-11145984D02*
X13703515Y-11145984D01*
X13703515Y-11145984D02*
X13636848Y-11222174D01*
X13636848Y-11222174D02*
X13665420Y-11222174D01*
X13665420Y-11222174D02*
X13684468Y-11231698D01*
X13684468Y-11231698D02*
X13693991Y-11241222D01*
X13693991Y-11241222D02*
X13703515Y-11260269D01*
X13703515Y-11260269D02*
X13703515Y-11307888D01*
X13703515Y-11307888D02*
X13693991Y-11326936D01*
X13693991Y-11326936D02*
X13684468Y-11336460D01*
X13684468Y-11336460D02*
X13665420Y-11345984D01*
X13665420Y-11345984D02*
X13608277Y-11345984D01*
X13608277Y-11345984D02*
X13589229Y-11336460D01*
X13589229Y-11336460D02*
X13579706Y-11326936D01*
X13941610Y-11345984D02*
X13941610Y-11145984D01*
X14027325Y-11345984D02*
X14027325Y-11241222D01*
X14027325Y-11241222D02*
X14017801Y-11222174D01*
X14017801Y-11222174D02*
X13998753Y-11212650D01*
X13998753Y-11212650D02*
X13970182Y-11212650D01*
X13970182Y-11212650D02*
X13951134Y-11222174D01*
X13951134Y-11222174D02*
X13941610Y-11231698D01*
X14151134Y-11345984D02*
X14132087Y-11336460D01*
X14132087Y-11336460D02*
X14122563Y-11326936D01*
X14122563Y-11326936D02*
X14113039Y-11307888D01*
X14113039Y-11307888D02*
X14113039Y-11250746D01*
X14113039Y-11250746D02*
X14122563Y-11231698D01*
X14122563Y-11231698D02*
X14132087Y-11222174D01*
X14132087Y-11222174D02*
X14151134Y-11212650D01*
X14151134Y-11212650D02*
X14179706Y-11212650D01*
X14179706Y-11212650D02*
X14198753Y-11222174D01*
X14198753Y-11222174D02*
X14208277Y-11231698D01*
X14208277Y-11231698D02*
X14217801Y-11250746D01*
X14217801Y-11250746D02*
X14217801Y-11307888D01*
X14217801Y-11307888D02*
X14208277Y-11326936D01*
X14208277Y-11326936D02*
X14198753Y-11336460D01*
X14198753Y-11336460D02*
X14179706Y-11345984D01*
X14179706Y-11345984D02*
X14151134Y-11345984D01*
X14332087Y-11345984D02*
X14313039Y-11336460D01*
X14313039Y-11336460D02*
X14303515Y-11317412D01*
X14303515Y-11317412D02*
X14303515Y-11145984D01*
X14484468Y-11336460D02*
X14465420Y-11345984D01*
X14465420Y-11345984D02*
X14427325Y-11345984D01*
X14427325Y-11345984D02*
X14408277Y-11336460D01*
X14408277Y-11336460D02*
X14398753Y-11317412D01*
X14398753Y-11317412D02*
X14398753Y-11241222D01*
X14398753Y-11241222D02*
X14408277Y-11222174D01*
X14408277Y-11222174D02*
X14427325Y-11212650D01*
X14427325Y-11212650D02*
X14465420Y-11212650D01*
X14465420Y-11212650D02*
X14484468Y-11222174D01*
X14484468Y-11222174D02*
X14493991Y-11241222D01*
X14493991Y-11241222D02*
X14493991Y-11260269D01*
X14493991Y-11260269D02*
X14398753Y-11279317D01*
X14570182Y-11336460D02*
X14589230Y-11345984D01*
X14589230Y-11345984D02*
X14627325Y-11345984D01*
X14627325Y-11345984D02*
X14646372Y-11336460D01*
X14646372Y-11336460D02*
X14655896Y-11317412D01*
X14655896Y-11317412D02*
X14655896Y-11307888D01*
X14655896Y-11307888D02*
X14646372Y-11288841D01*
X14646372Y-11288841D02*
X14627325Y-11279317D01*
X14627325Y-11279317D02*
X14598753Y-11279317D01*
X14598753Y-11279317D02*
X14579706Y-11269793D01*
X14579706Y-11269793D02*
X14570182Y-11250746D01*
X14570182Y-11250746D02*
X14570182Y-11241222D01*
X14570182Y-11241222D02*
X14579706Y-11222174D01*
X14579706Y-11222174D02*
X14598753Y-11212650D01*
X14598753Y-11212650D02*
X14627325Y-11212650D01*
X14627325Y-11212650D02*
X14646372Y-11222174D01*
X14722563Y-11422174D02*
X14732087Y-11412650D01*
X14732087Y-11412650D02*
X14751134Y-11384079D01*
X14751134Y-11384079D02*
X14760658Y-11365031D01*
X14760658Y-11365031D02*
X14770182Y-11336460D01*
X14770182Y-11336460D02*
X14779706Y-11288841D01*
X14779706Y-11288841D02*
X14779706Y-11250746D01*
X14779706Y-11250746D02*
X14770182Y-11203127D01*
X14770182Y-11203127D02*
X14760658Y-11174555D01*
X14760658Y-11174555D02*
X14751134Y-11155508D01*
X14751134Y-11155508D02*
X14732087Y-11126936D01*
X14732087Y-11126936D02*
X14722563Y-11117412D01*
M02*
