%TF.GenerationSoftware,KiCad,Pcbnew,10.0.0*%
%TF.CreationDate,2026-04-26T15:23:30-05:00*%
%TF.ProjectId,Atmega328_Coursera,41746d65-6761-4333-9238-5f436f757273,rev?*%
%TF.SameCoordinates,Original*%
%TF.FileFunction,Copper,L2,Bot*%
%TF.FilePolarity,Positive*%
%FSLAX46Y46*%
G04 Gerber Fmt 4.6, Leading zero omitted, Abs format (unit mm)*
G04 Created by KiCad (PCBNEW 10.0.0) date 2026-04-26 15:23:30*
%MOMM*%
%LPD*%
G01*
G04 APERTURE LIST*
%TA.AperFunction,ComponentPad*%
%ADD10C,3.000000*%
%TD*%
%TA.AperFunction,ComponentPad*%
%ADD11C,3.600000*%
%TD*%
%TA.AperFunction,ConnectorPad*%
%ADD12C,6.400000*%
%TD*%
%TA.AperFunction,ComponentPad*%
%ADD13R,1.700000X1.700000*%
%TD*%
%TA.AperFunction,ComponentPad*%
%ADD14C,1.700000*%
%TD*%
%TA.AperFunction,ViaPad*%
%ADD15C,0.600000*%
%TD*%
%TA.AperFunction,Conductor*%
%ADD16C,0.200000*%
%TD*%
G04 APERTURE END LIST*
D10*
%TO.P,J1,SH,Shield_SH*%
%TO.N,GNDD*%
X104000000Y-68430000D03*
X104000000Y-81570000D03*
%TD*%
D11*
%TO.P,H1,1,1_1*%
%TO.N,GNDD*%
X103000000Y-57000000D03*
D12*
X103000000Y-57000000D03*
%TD*%
D11*
%TO.P,H3,1,1_1*%
%TO.N,GNDD*%
X154000000Y-91500000D03*
D12*
X154000000Y-91500000D03*
%TD*%
D13*
%TO.P,J2,1,Pin_1_1*%
%TO.N,/PB2*%
X153416000Y-85852000D03*
D14*
%TO.P,J2,2,Pin_2_2*%
%TO.N,/PB3*%
X153416000Y-83312000D03*
%TO.P,J2,3,Pin_3_3*%
%TO.N,/PB4*%
X153416000Y-80772000D03*
%TO.P,J2,4,Pin_4_4*%
%TO.N,/PB5*%
X153416000Y-78232000D03*
%TO.P,J2,5,Pin_5_5*%
%TO.N,/PD0*%
X153416000Y-75692000D03*
%TO.P,J2,6,Pin_6_6*%
%TO.N,/PD1*%
X153416000Y-73152000D03*
%TO.P,J2,7,Pin_7_7*%
%TO.N,/PD2*%
X153416000Y-70612000D03*
%TO.P,J2,8,Pin_8_8*%
%TO.N,/PD3*%
X153416000Y-68072000D03*
%TO.P,J2,9,Pin_9_9*%
%TO.N,/PD4*%
X153416000Y-65532000D03*
%TO.P,J2,10,Pin_10_10*%
%TO.N,/PD5*%
X153416000Y-62992000D03*
%TD*%
D11*
%TO.P,H2,1,1_1*%
%TO.N,GNDD*%
X103000000Y-91500000D03*
D12*
X103000000Y-91500000D03*
%TD*%
D11*
%TO.P,H5,1,1_1*%
%TO.N,GNDD*%
X154000000Y-57000000D03*
D12*
X154000000Y-57000000D03*
%TD*%
D13*
%TO.P,J3,1,Pin_1_1*%
%TO.N,/AREF*%
X122174000Y-90678000D03*
D14*
%TO.P,J3,2,Pin_2_2*%
%TO.N,/ADC6*%
X124714000Y-90678000D03*
%TO.P,J3,3,Pin_3_3*%
%TO.N,/ADC7*%
X127254000Y-90678000D03*
%TO.P,J3,4,Pin_4_4*%
%TO.N,GNDD*%
X129794000Y-90678000D03*
%TO.P,J3,5,Pin_5_5*%
%TO.N,5VD*%
X132334000Y-90678000D03*
%TO.P,J3,6,Pin_6_6*%
%TO.N,3V3D*%
X134874000Y-90678000D03*
%TO.P,J3,7,Pin_7_7*%
%TO.N,/PC0*%
X137414000Y-90678000D03*
%TO.P,J3,8,Pin_8_8*%
%TO.N,/PC1*%
X139954000Y-90678000D03*
%TO.P,J3,9,Pin_9_9*%
%TO.N,/PC2*%
X142494000Y-90678000D03*
%TO.P,J3,10,Pin_10_10*%
%TO.N,/PC3*%
X145034000Y-90678000D03*
%TD*%
D15*
%TO.N,GNDD*%
X123500000Y-62500000D03*
X131600000Y-72200000D03*
X138600000Y-58600000D03*
X120000000Y-58000000D03*
X114600000Y-88800000D03*
X126400000Y-70850000D03*
X129800000Y-58600000D03*
X120000000Y-61000000D03*
X119126000Y-88674000D03*
X133200000Y-72200000D03*
X109982000Y-78486000D03*
X123886000Y-81788000D03*
X129794000Y-88646000D03*
X132400000Y-80400000D03*
X123886000Y-84074000D03*
X111500000Y-60500000D03*
%TO.N,3V3D*%
X132000000Y-69000000D03*
X127800000Y-68600000D03*
%TO.N,5VD*%
X110000000Y-71600000D03*
X118600000Y-76800000D03*
%TO.N,/PB2*%
X129540000Y-76200000D03*
%TO.N,/PB3*%
X129400000Y-77000000D03*
X146000000Y-83200000D03*
%TO.N,/PB4*%
X129200000Y-77800000D03*
X139800000Y-80600000D03*
%TO.N,/PB5*%
X141300200Y-80086200D03*
X129200000Y-80600000D03*
%TO.N,/PD5*%
X129350000Y-73000000D03*
%TO.N,Net-(U1-~{RESET}{slash}PC6)*%
X123800000Y-76800000D03*
X134798000Y-74600000D03*
%TO.N,/ADC6*%
X130810000Y-83312000D03*
%TO.N,/AREF*%
X129692400Y-85699600D03*
X127792565Y-87177965D03*
%TO.N,/ADC7*%
X133223000Y-83439000D03*
%TD*%
%TO.N,3V3D*%
D16*
X127800000Y-68600000D02*
X131600000Y-68600000D01*
X131600000Y-68600000D02*
X132000000Y-69000000D01*
%TO.N,5VD*%
X115200000Y-76800000D02*
X118600000Y-76800000D01*
X110000000Y-71600000D02*
X115200000Y-76800000D01*
%TO.N,/PB2*%
X143764000Y-76200000D02*
X129540000Y-76200000D01*
X153416000Y-85852000D02*
X143764000Y-76200000D01*
%TO.N,/PB3*%
X139600000Y-76800000D02*
X129600000Y-76800000D01*
X129600000Y-76800000D02*
X129400000Y-77000000D01*
X146000000Y-83200000D02*
X139600000Y-76800000D01*
%TO.N,/PB4*%
X137000000Y-77800000D02*
X139800000Y-80600000D01*
X129200000Y-77800000D02*
X137000000Y-77800000D01*
%TO.N,/PB5*%
X139700000Y-81686400D02*
X141300200Y-80086200D01*
X129200000Y-80600000D02*
X130286400Y-81686400D01*
X130286400Y-81686400D02*
X139700000Y-81686400D01*
%TO.N,/PD5*%
X129350000Y-73000000D02*
X135026000Y-73000000D01*
X145288000Y-71120000D02*
X153416000Y-62992000D01*
X135026000Y-73000000D02*
X136906000Y-71120000D01*
X136906000Y-71120000D02*
X145288000Y-71120000D01*
%TO.N,Net-(U1-~{RESET}{slash}PC6)*%
X126200000Y-75600000D02*
X125000000Y-76800000D01*
X134798000Y-74600000D02*
X133798000Y-75600000D01*
X125000000Y-76800000D02*
X123800000Y-76800000D01*
X133798000Y-75600000D02*
X126200000Y-75600000D01*
%TO.N,/ADC6*%
X124714000Y-89408000D02*
X124714000Y-90678000D01*
X130810000Y-83312000D02*
X124714000Y-89408000D01*
%TO.N,/AREF*%
X129692400Y-85699600D02*
X128214035Y-87177965D01*
X128214035Y-87177965D02*
X127792565Y-87177965D01*
%TO.N,/ADC7*%
X127254000Y-89475919D02*
X128811960Y-87917960D01*
X129099920Y-87630000D02*
X133223000Y-83506920D01*
X128811960Y-87917960D02*
X129099918Y-87630000D01*
X127254000Y-90678000D02*
X127254000Y-89475919D01*
X133223000Y-83506920D02*
X133223000Y-83439000D01*
X129099918Y-87630000D02*
X129099920Y-87630000D01*
%TD*%
%TA.AperFunction,Conductor*%
%TO.N,GNDD*%
G36*
X156942539Y-54020185D02*
G01*
X156988294Y-54072989D01*
X156999500Y-54124500D01*
X156999500Y-94375500D01*
X156979815Y-94442539D01*
X156927011Y-94488294D01*
X156875500Y-94499500D01*
X100124500Y-94499500D01*
X100057461Y-94479815D01*
X100011706Y-94427011D01*
X100000500Y-94375500D01*
X100000500Y-89780135D01*
X120823500Y-89780135D01*
X120823500Y-91575870D01*
X120823501Y-91575876D01*
X120829908Y-91635483D01*
X120880202Y-91770328D01*
X120880206Y-91770335D01*
X120966452Y-91885544D01*
X120966455Y-91885547D01*
X121081664Y-91971793D01*
X121081671Y-91971797D01*
X121216517Y-92022091D01*
X121216516Y-92022091D01*
X121223444Y-92022835D01*
X121276127Y-92028500D01*
X123071872Y-92028499D01*
X123131483Y-92022091D01*
X123266331Y-91971796D01*
X123381546Y-91885546D01*
X123467796Y-91770331D01*
X123516810Y-91638916D01*
X123558681Y-91582984D01*
X123624145Y-91558566D01*
X123692418Y-91573417D01*
X123720673Y-91594569D01*
X123834213Y-91708109D01*
X124006179Y-91833048D01*
X124006181Y-91833049D01*
X124006184Y-91833051D01*
X124195588Y-91929557D01*
X124397757Y-91995246D01*
X124607713Y-92028500D01*
X124607714Y-92028500D01*
X124820286Y-92028500D01*
X124820287Y-92028500D01*
X125030243Y-91995246D01*
X125232412Y-91929557D01*
X125421816Y-91833051D01*
X125508138Y-91770335D01*
X125593786Y-91708109D01*
X125593788Y-91708106D01*
X125593792Y-91708104D01*
X125744104Y-91557792D01*
X125744106Y-91557788D01*
X125744109Y-91557786D01*
X125869048Y-91385820D01*
X125869047Y-91385820D01*
X125869051Y-91385816D01*
X125873514Y-91377054D01*
X125921488Y-91326259D01*
X125989308Y-91309463D01*
X126055444Y-91331999D01*
X126094486Y-91377056D01*
X126098951Y-91385820D01*
X126223890Y-91557786D01*
X126374213Y-91708109D01*
X126546179Y-91833048D01*
X126546181Y-91833049D01*
X126546184Y-91833051D01*
X126735588Y-91929557D01*
X126937757Y-91995246D01*
X127147713Y-92028500D01*
X127147714Y-92028500D01*
X127360286Y-92028500D01*
X127360287Y-92028500D01*
X127570243Y-91995246D01*
X127772412Y-91929557D01*
X127961816Y-91833051D01*
X128048138Y-91770335D01*
X128133786Y-91708109D01*
X128133788Y-91708106D01*
X128133792Y-91708104D01*
X128284104Y-91557792D01*
X128284106Y-91557788D01*
X128284109Y-91557786D01*
X128369890Y-91439717D01*
X128409051Y-91385816D01*
X128413793Y-91376508D01*
X128461763Y-91325711D01*
X128529583Y-91308911D01*
X128595719Y-91331445D01*
X128634763Y-91376500D01*
X128639373Y-91385547D01*
X128678728Y-91439716D01*
X129311037Y-90807408D01*
X129328075Y-90870993D01*
X129393901Y-90985007D01*
X129486993Y-91078099D01*
X129601007Y-91143925D01*
X129664590Y-91160962D01*
X129032282Y-91793269D01*
X129032282Y-91793270D01*
X129086449Y-91832624D01*
X129275782Y-91929095D01*
X129477870Y-91994757D01*
X129687754Y-92028000D01*
X129900246Y-92028000D01*
X130110127Y-91994757D01*
X130110130Y-91994757D01*
X130312217Y-91929095D01*
X130501554Y-91832622D01*
X130555716Y-91793270D01*
X130555717Y-91793270D01*
X129923408Y-91160962D01*
X129986993Y-91143925D01*
X130101007Y-91078099D01*
X130194099Y-90985007D01*
X130259925Y-90870993D01*
X130276962Y-90807409D01*
X130909270Y-91439717D01*
X130909270Y-91439716D01*
X130948622Y-91385555D01*
X130953232Y-91376507D01*
X131001205Y-91325709D01*
X131069025Y-91308912D01*
X131135161Y-91331447D01*
X131174204Y-91376504D01*
X131178949Y-91385817D01*
X131303890Y-91557786D01*
X131454213Y-91708109D01*
X131626179Y-91833048D01*
X131626181Y-91833049D01*
X131626184Y-91833051D01*
X131815588Y-91929557D01*
X132017757Y-91995246D01*
X132227713Y-92028500D01*
X132227714Y-92028500D01*
X132440286Y-92028500D01*
X132440287Y-92028500D01*
X132650243Y-91995246D01*
X132852412Y-91929557D01*
X133041816Y-91833051D01*
X133128138Y-91770335D01*
X133213786Y-91708109D01*
X133213788Y-91708106D01*
X133213792Y-91708104D01*
X133364104Y-91557792D01*
X133364106Y-91557788D01*
X133364109Y-91557786D01*
X133489048Y-91385820D01*
X133489047Y-91385820D01*
X133489051Y-91385816D01*
X133493514Y-91377054D01*
X133541488Y-91326259D01*
X133609308Y-91309463D01*
X133675444Y-91331999D01*
X133714486Y-91377056D01*
X133718951Y-91385820D01*
X133843890Y-91557786D01*
X133994213Y-91708109D01*
X134166179Y-91833048D01*
X134166181Y-91833049D01*
X134166184Y-91833051D01*
X134355588Y-91929557D01*
X134557757Y-91995246D01*
X134767713Y-92028500D01*
X134767714Y-92028500D01*
X134980286Y-92028500D01*
X134980287Y-92028500D01*
X135190243Y-91995246D01*
X135392412Y-91929557D01*
X135581816Y-91833051D01*
X135668138Y-91770335D01*
X135753786Y-91708109D01*
X135753788Y-91708106D01*
X135753792Y-91708104D01*
X135904104Y-91557792D01*
X135904106Y-91557788D01*
X135904109Y-91557786D01*
X136029048Y-91385820D01*
X136029047Y-91385820D01*
X136029051Y-91385816D01*
X136033514Y-91377054D01*
X136081488Y-91326259D01*
X136149308Y-91309463D01*
X136215444Y-91331999D01*
X136254486Y-91377056D01*
X136258951Y-91385820D01*
X136383890Y-91557786D01*
X136534213Y-91708109D01*
X136706179Y-91833048D01*
X136706181Y-91833049D01*
X136706184Y-91833051D01*
X136895588Y-91929557D01*
X137097757Y-91995246D01*
X137307713Y-92028500D01*
X137307714Y-92028500D01*
X137520286Y-92028500D01*
X137520287Y-92028500D01*
X137730243Y-91995246D01*
X137932412Y-91929557D01*
X138121816Y-91833051D01*
X138208138Y-91770335D01*
X138293786Y-91708109D01*
X138293788Y-91708106D01*
X138293792Y-91708104D01*
X138444104Y-91557792D01*
X138444106Y-91557788D01*
X138444109Y-91557786D01*
X138569048Y-91385820D01*
X138569047Y-91385820D01*
X138569051Y-91385816D01*
X138573514Y-91377054D01*
X138621488Y-91326259D01*
X138689308Y-91309463D01*
X138755444Y-91331999D01*
X138794486Y-91377056D01*
X138798951Y-91385820D01*
X138923890Y-91557786D01*
X139074213Y-91708109D01*
X139246179Y-91833048D01*
X139246181Y-91833049D01*
X139246184Y-91833051D01*
X139435588Y-91929557D01*
X139637757Y-91995246D01*
X139847713Y-92028500D01*
X139847714Y-92028500D01*
X140060286Y-92028500D01*
X140060287Y-92028500D01*
X140270243Y-91995246D01*
X140472412Y-91929557D01*
X140661816Y-91833051D01*
X140748138Y-91770335D01*
X140833786Y-91708109D01*
X140833788Y-91708106D01*
X140833792Y-91708104D01*
X140984104Y-91557792D01*
X140984106Y-91557788D01*
X140984109Y-91557786D01*
X141109048Y-91385820D01*
X141109047Y-91385820D01*
X141109051Y-91385816D01*
X141113514Y-91377054D01*
X141161488Y-91326259D01*
X141229308Y-91309463D01*
X141295444Y-91331999D01*
X141334486Y-91377056D01*
X141338951Y-91385820D01*
X141463890Y-91557786D01*
X141614213Y-91708109D01*
X141786179Y-91833048D01*
X141786181Y-91833049D01*
X141786184Y-91833051D01*
X141975588Y-91929557D01*
X142177757Y-91995246D01*
X142387713Y-92028500D01*
X142387714Y-92028500D01*
X142600286Y-92028500D01*
X142600287Y-92028500D01*
X142810243Y-91995246D01*
X143012412Y-91929557D01*
X143201816Y-91833051D01*
X143288138Y-91770335D01*
X143373786Y-91708109D01*
X143373788Y-91708106D01*
X143373792Y-91708104D01*
X143524104Y-91557792D01*
X143524106Y-91557788D01*
X143524109Y-91557786D01*
X143649048Y-91385820D01*
X143649047Y-91385820D01*
X143649051Y-91385816D01*
X143653514Y-91377054D01*
X143701488Y-91326259D01*
X143769308Y-91309463D01*
X143835444Y-91331999D01*
X143874486Y-91377056D01*
X143878951Y-91385820D01*
X144003890Y-91557786D01*
X144154213Y-91708109D01*
X144326179Y-91833048D01*
X144326181Y-91833049D01*
X144326184Y-91833051D01*
X144515588Y-91929557D01*
X144717757Y-91995246D01*
X144927713Y-92028500D01*
X144927714Y-92028500D01*
X145140286Y-92028500D01*
X145140287Y-92028500D01*
X145350243Y-91995246D01*
X145552412Y-91929557D01*
X145741816Y-91833051D01*
X145828138Y-91770335D01*
X145913786Y-91708109D01*
X145913788Y-91708106D01*
X145913792Y-91708104D01*
X146064104Y-91557792D01*
X146064106Y-91557788D01*
X146064109Y-91557786D01*
X146189048Y-91385820D01*
X146189047Y-91385820D01*
X146189051Y-91385816D01*
X146285557Y-91196412D01*
X146351246Y-90994243D01*
X146384500Y-90784287D01*
X146384500Y-90571713D01*
X146351246Y-90361757D01*
X146285557Y-90159588D01*
X146189051Y-89970184D01*
X146189049Y-89970181D01*
X146189048Y-89970179D01*
X146064109Y-89798213D01*
X145913786Y-89647890D01*
X145741820Y-89522951D01*
X145552414Y-89426444D01*
X145552413Y-89426443D01*
X145552412Y-89426443D01*
X145350243Y-89360754D01*
X145350241Y-89360753D01*
X145350240Y-89360753D01*
X145188957Y-89335208D01*
X145140287Y-89327500D01*
X144927713Y-89327500D01*
X144879042Y-89335208D01*
X144717760Y-89360753D01*
X144515585Y-89426444D01*
X144326179Y-89522951D01*
X144154213Y-89647890D01*
X144003890Y-89798213D01*
X143878949Y-89970182D01*
X143874484Y-89978946D01*
X143826509Y-90029742D01*
X143758688Y-90046536D01*
X143692553Y-90023998D01*
X143653516Y-89978946D01*
X143649050Y-89970182D01*
X143524109Y-89798213D01*
X143373786Y-89647890D01*
X143201820Y-89522951D01*
X143012414Y-89426444D01*
X143012413Y-89426443D01*
X143012412Y-89426443D01*
X142810243Y-89360754D01*
X142810241Y-89360753D01*
X142810240Y-89360753D01*
X142648957Y-89335208D01*
X142600287Y-89327500D01*
X142387713Y-89327500D01*
X142339042Y-89335208D01*
X142177760Y-89360753D01*
X141975585Y-89426444D01*
X141786179Y-89522951D01*
X141614213Y-89647890D01*
X141463890Y-89798213D01*
X141338949Y-89970182D01*
X141334484Y-89978946D01*
X141286509Y-90029742D01*
X141218688Y-90046536D01*
X141152553Y-90023998D01*
X141113516Y-89978946D01*
X141109050Y-89970182D01*
X140984109Y-89798213D01*
X140833786Y-89647890D01*
X140661820Y-89522951D01*
X140472414Y-89426444D01*
X140472413Y-89426443D01*
X140472412Y-89426443D01*
X140270243Y-89360754D01*
X140270241Y-89360753D01*
X140270240Y-89360753D01*
X140108957Y-89335208D01*
X140060287Y-89327500D01*
X139847713Y-89327500D01*
X139799042Y-89335208D01*
X139637760Y-89360753D01*
X139435585Y-89426444D01*
X139246179Y-89522951D01*
X139074213Y-89647890D01*
X138923890Y-89798213D01*
X138798949Y-89970182D01*
X138794484Y-89978946D01*
X138746509Y-90029742D01*
X138678688Y-90046536D01*
X138612553Y-90023998D01*
X138573516Y-89978946D01*
X138569050Y-89970182D01*
X138444109Y-89798213D01*
X138293786Y-89647890D01*
X138121820Y-89522951D01*
X137932414Y-89426444D01*
X137932413Y-89426443D01*
X137932412Y-89426443D01*
X137730243Y-89360754D01*
X137730241Y-89360753D01*
X137730240Y-89360753D01*
X137568957Y-89335208D01*
X137520287Y-89327500D01*
X137307713Y-89327500D01*
X137259042Y-89335208D01*
X137097760Y-89360753D01*
X136895585Y-89426444D01*
X136706179Y-89522951D01*
X136534213Y-89647890D01*
X136383890Y-89798213D01*
X136258949Y-89970182D01*
X136254484Y-89978946D01*
X136206509Y-90029742D01*
X136138688Y-90046536D01*
X136072553Y-90023998D01*
X136033516Y-89978946D01*
X136029050Y-89970182D01*
X135904109Y-89798213D01*
X135753786Y-89647890D01*
X135581820Y-89522951D01*
X135392414Y-89426444D01*
X135392413Y-89426443D01*
X135392412Y-89426443D01*
X135190243Y-89360754D01*
X135190241Y-89360753D01*
X135190240Y-89360753D01*
X135028957Y-89335208D01*
X134980287Y-89327500D01*
X134767713Y-89327500D01*
X134719042Y-89335208D01*
X134557760Y-89360753D01*
X134355585Y-89426444D01*
X134166179Y-89522951D01*
X133994213Y-89647890D01*
X133843890Y-89798213D01*
X133718949Y-89970182D01*
X133714484Y-89978946D01*
X133666509Y-90029742D01*
X133598688Y-90046536D01*
X133532553Y-90023998D01*
X133493516Y-89978946D01*
X133489050Y-89970182D01*
X133364109Y-89798213D01*
X133213786Y-89647890D01*
X133041820Y-89522951D01*
X132852414Y-89426444D01*
X132852413Y-89426443D01*
X132852412Y-89426443D01*
X132650243Y-89360754D01*
X132650241Y-89360753D01*
X132650240Y-89360753D01*
X132488957Y-89335208D01*
X132440287Y-89327500D01*
X132227713Y-89327500D01*
X132179042Y-89335208D01*
X132017760Y-89360753D01*
X131815585Y-89426444D01*
X131626179Y-89522951D01*
X131454213Y-89647890D01*
X131303890Y-89798213D01*
X131178949Y-89970182D01*
X131174202Y-89979499D01*
X131126227Y-90030293D01*
X131058405Y-90047087D01*
X130992271Y-90024548D01*
X130953234Y-89979495D01*
X130948626Y-89970452D01*
X130909270Y-89916282D01*
X130909269Y-89916282D01*
X130276962Y-90548590D01*
X130259925Y-90485007D01*
X130194099Y-90370993D01*
X130101007Y-90277901D01*
X129986993Y-90212075D01*
X129923409Y-90195037D01*
X130555716Y-89562728D01*
X130501550Y-89523375D01*
X130312217Y-89426904D01*
X130110129Y-89361242D01*
X129900246Y-89328000D01*
X129687754Y-89328000D01*
X129477872Y-89361242D01*
X129477869Y-89361242D01*
X129275782Y-89426904D01*
X129086439Y-89523380D01*
X129032282Y-89562727D01*
X129032282Y-89562728D01*
X129664591Y-90195037D01*
X129601007Y-90212075D01*
X129486993Y-90277901D01*
X129393901Y-90370993D01*
X129328075Y-90485007D01*
X129311037Y-90548591D01*
X128678728Y-89916282D01*
X128678727Y-89916282D01*
X128639380Y-89970440D01*
X128639376Y-89970446D01*
X128634760Y-89979505D01*
X128586781Y-90030297D01*
X128518959Y-90047087D01*
X128452826Y-90024543D01*
X128413794Y-89979493D01*
X128409051Y-89970184D01*
X128409049Y-89970181D01*
X128409048Y-89970179D01*
X128284109Y-89798213D01*
X128184309Y-89698413D01*
X128133792Y-89647896D01*
X128126895Y-89642885D01*
X128120623Y-89636819D01*
X128107499Y-89613709D01*
X128091272Y-89592661D01*
X128090511Y-89583798D01*
X128086119Y-89576063D01*
X128087572Y-89549524D01*
X128085301Y-89523047D01*
X128089452Y-89515180D01*
X128089939Y-89506298D01*
X128105509Y-89484757D01*
X128117914Y-89461255D01*
X128119068Y-89460085D01*
X129170466Y-88408687D01*
X129170476Y-88408680D01*
X129458418Y-88120734D01*
X129458417Y-88120734D01*
X129468630Y-88110522D01*
X129468636Y-88110520D01*
X129580440Y-87998716D01*
X129580441Y-87998713D01*
X133322450Y-84256704D01*
X133383769Y-84223222D01*
X133385757Y-84222807D01*
X133456497Y-84208737D01*
X133602179Y-84148394D01*
X133733289Y-84060789D01*
X133844789Y-83949289D01*
X133932394Y-83818179D01*
X133992737Y-83672497D01*
X134023500Y-83517842D01*
X134023500Y-83360158D01*
X134023500Y-83360155D01*
X134023499Y-83360153D01*
X134011004Y-83297339D01*
X133992737Y-83205503D01*
X133969713Y-83149917D01*
X133932397Y-83059827D01*
X133932390Y-83059814D01*
X133844789Y-82928711D01*
X133844786Y-82928707D01*
X133733292Y-82817213D01*
X133733288Y-82817210D01*
X133602185Y-82729609D01*
X133602172Y-82729602D01*
X133456501Y-82669264D01*
X133456489Y-82669261D01*
X133301845Y-82638500D01*
X133301842Y-82638500D01*
X133144158Y-82638500D01*
X133144155Y-82638500D01*
X132989510Y-82669261D01*
X132989498Y-82669264D01*
X132843827Y-82729602D01*
X132843814Y-82729609D01*
X132712711Y-82817210D01*
X132712707Y-82817213D01*
X132601213Y-82928707D01*
X132601210Y-82928711D01*
X132513609Y-83059814D01*
X132513602Y-83059827D01*
X132453264Y-83205498D01*
X132453261Y-83205510D01*
X132422500Y-83360153D01*
X132422500Y-83406822D01*
X132402815Y-83473861D01*
X132386181Y-83494503D01*
X130572107Y-85308576D01*
X130510784Y-85342061D01*
X130441092Y-85337077D01*
X130385159Y-85295205D01*
X130381324Y-85289785D01*
X130314192Y-85189315D01*
X130314186Y-85189307D01*
X130202692Y-85077813D01*
X130202688Y-85077810D01*
X130142927Y-85037879D01*
X130098122Y-84984267D01*
X130089415Y-84914942D01*
X130119569Y-84851915D01*
X130124116Y-84847117D01*
X130824662Y-84146572D01*
X130885983Y-84113089D01*
X130888150Y-84112638D01*
X130946085Y-84101113D01*
X131043497Y-84081737D01*
X131189179Y-84021394D01*
X131320289Y-83933789D01*
X131431789Y-83822289D01*
X131519394Y-83691179D01*
X131579737Y-83545497D01*
X131610500Y-83390842D01*
X131610500Y-83233158D01*
X131610500Y-83233155D01*
X131610499Y-83233153D01*
X131604998Y-83205498D01*
X131579737Y-83078503D01*
X131545463Y-82995757D01*
X131519397Y-82932827D01*
X131519390Y-82932814D01*
X131431789Y-82801711D01*
X131431786Y-82801707D01*
X131320292Y-82690213D01*
X131320288Y-82690210D01*
X131189185Y-82602609D01*
X131189172Y-82602602D01*
X131043501Y-82542264D01*
X131043491Y-82542261D01*
X130994503Y-82532517D01*
X130932592Y-82500132D01*
X130898018Y-82439416D01*
X130901758Y-82369647D01*
X130942625Y-82312975D01*
X131007643Y-82287393D01*
X131018695Y-82286900D01*
X139613331Y-82286900D01*
X139613347Y-82286901D01*
X139620943Y-82286901D01*
X139779054Y-82286901D01*
X139779057Y-82286901D01*
X139931785Y-82245977D01*
X139981904Y-82217039D01*
X140068716Y-82166920D01*
X140180520Y-82055116D01*
X140180520Y-82055114D01*
X140190728Y-82044907D01*
X140190729Y-82044904D01*
X141314864Y-80920771D01*
X141376185Y-80887288D01*
X141378352Y-80886837D01*
X141379041Y-80886700D01*
X141379042Y-80886700D01*
X141533697Y-80855937D01*
X141679379Y-80795594D01*
X141810489Y-80707989D01*
X141921989Y-80596489D01*
X142009594Y-80465379D01*
X142057653Y-80349353D01*
X142101491Y-80294954D01*
X142167785Y-80272888D01*
X142235484Y-80290167D01*
X142259893Y-80309128D01*
X145165425Y-83214660D01*
X145198910Y-83275983D01*
X145199361Y-83278149D01*
X145230261Y-83433491D01*
X145230264Y-83433501D01*
X145290602Y-83579172D01*
X145290609Y-83579185D01*
X145378210Y-83710288D01*
X145378213Y-83710292D01*
X145489707Y-83821786D01*
X145489711Y-83821789D01*
X145620814Y-83909390D01*
X145620827Y-83909397D01*
X145766498Y-83969735D01*
X145766503Y-83969737D01*
X145921153Y-84000499D01*
X145921156Y-84000500D01*
X145921158Y-84000500D01*
X146078844Y-84000500D01*
X146078845Y-84000499D01*
X146233497Y-83969737D01*
X146379179Y-83909394D01*
X146510289Y-83821789D01*
X146621789Y-83710289D01*
X146709394Y-83579179D01*
X146713197Y-83569999D01*
X146744468Y-83494503D01*
X146769737Y-83433497D01*
X146800500Y-83278842D01*
X146800500Y-83121158D01*
X146800500Y-83121155D01*
X146800499Y-83121153D01*
X146788298Y-83059814D01*
X146769737Y-82966503D01*
X146754082Y-82928707D01*
X146709397Y-82820827D01*
X146709390Y-82820814D01*
X146621789Y-82689711D01*
X146621786Y-82689707D01*
X146510292Y-82578213D01*
X146510288Y-82578210D01*
X146379185Y-82490609D01*
X146379172Y-82490602D01*
X146233501Y-82430264D01*
X146233491Y-82430261D01*
X146078151Y-82399362D01*
X146016241Y-82366977D01*
X146014662Y-82365426D01*
X143356250Y-79707014D01*
X140661415Y-77012180D01*
X140627931Y-76950858D01*
X140632915Y-76881166D01*
X140674787Y-76825233D01*
X140740251Y-76800816D01*
X140749097Y-76800500D01*
X143463903Y-76800500D01*
X143530942Y-76820185D01*
X143551584Y-76836819D01*
X152029181Y-85314416D01*
X152062666Y-85375739D01*
X152065500Y-85402097D01*
X152065500Y-86749870D01*
X152065501Y-86749876D01*
X152071908Y-86809483D01*
X152122202Y-86944328D01*
X152122206Y-86944335D01*
X152208452Y-87059544D01*
X152208455Y-87059547D01*
X152323664Y-87145793D01*
X152323671Y-87145797D01*
X152458517Y-87196091D01*
X152458516Y-87196091D01*
X152465444Y-87196835D01*
X152518127Y-87202500D01*
X154313872Y-87202499D01*
X154373483Y-87196091D01*
X154508331Y-87145796D01*
X154623546Y-87059546D01*
X154709796Y-86944331D01*
X154760091Y-86809483D01*
X154766500Y-86749873D01*
X154766499Y-84954128D01*
X154760091Y-84894517D01*
X154744201Y-84851915D01*
X154709797Y-84759671D01*
X154709793Y-84759664D01*
X154623547Y-84644455D01*
X154623544Y-84644452D01*
X154508335Y-84558206D01*
X154508328Y-84558202D01*
X154376917Y-84509189D01*
X154320983Y-84467318D01*
X154296566Y-84401853D01*
X154311418Y-84333580D01*
X154332563Y-84305332D01*
X154446104Y-84191792D01*
X154571051Y-84019816D01*
X154667557Y-83830412D01*
X154733246Y-83628243D01*
X154766500Y-83418287D01*
X154766500Y-83205713D01*
X154733246Y-82995757D01*
X154667557Y-82793588D01*
X154571051Y-82604184D01*
X154571049Y-82604181D01*
X154571048Y-82604179D01*
X154446109Y-82432213D01*
X154295786Y-82281890D01*
X154123820Y-82156951D01*
X154123115Y-82156591D01*
X154115054Y-82152485D01*
X154064259Y-82104512D01*
X154047463Y-82036692D01*
X154069999Y-81970556D01*
X154115054Y-81931515D01*
X154123816Y-81927051D01*
X154244607Y-81839292D01*
X154295786Y-81802109D01*
X154295788Y-81802106D01*
X154295792Y-81802104D01*
X154446104Y-81651792D01*
X154446106Y-81651788D01*
X154446109Y-81651786D01*
X154571048Y-81479820D01*
X154571047Y-81479820D01*
X154571051Y-81479816D01*
X154667557Y-81290412D01*
X154733246Y-81088243D01*
X154766500Y-80878287D01*
X154766500Y-80665713D01*
X154733246Y-80455757D01*
X154667557Y-80253588D01*
X154571051Y-80064184D01*
X154571049Y-80064181D01*
X154571048Y-80064179D01*
X154446109Y-79892213D01*
X154295786Y-79741890D01*
X154123820Y-79616951D01*
X154123115Y-79616591D01*
X154115054Y-79612485D01*
X154064259Y-79564512D01*
X154047463Y-79496692D01*
X154069999Y-79430556D01*
X154115054Y-79391515D01*
X154123816Y-79387051D01*
X154220973Y-79316463D01*
X154295786Y-79262109D01*
X154295788Y-79262106D01*
X154295792Y-79262104D01*
X154446104Y-79111792D01*
X154446106Y-79111788D01*
X154446109Y-79111786D01*
X154571048Y-78939820D01*
X154571047Y-78939820D01*
X154571051Y-78939816D01*
X154667557Y-78750412D01*
X154733246Y-78548243D01*
X154766500Y-78338287D01*
X154766500Y-78125713D01*
X154733246Y-77915757D01*
X154667557Y-77713588D01*
X154571051Y-77524184D01*
X154571049Y-77524181D01*
X154571048Y-77524179D01*
X154446109Y-77352213D01*
X154295786Y-77201890D01*
X154123820Y-77076951D01*
X154123115Y-77076591D01*
X154115054Y-77072485D01*
X154064259Y-77024512D01*
X154047463Y-76956692D01*
X154069999Y-76890556D01*
X154115054Y-76851515D01*
X154123816Y-76847051D01*
X154160794Y-76820185D01*
X154295786Y-76722109D01*
X154295788Y-76722106D01*
X154295792Y-76722104D01*
X154446104Y-76571792D01*
X154446106Y-76571788D01*
X154446109Y-76571786D01*
X154571048Y-76399820D01*
X154571047Y-76399820D01*
X154571051Y-76399816D01*
X154667557Y-76210412D01*
X154733246Y-76008243D01*
X154766500Y-75798287D01*
X154766500Y-75585713D01*
X154733246Y-75375757D01*
X154667557Y-75173588D01*
X154571051Y-74984184D01*
X154571049Y-74984181D01*
X154571048Y-74984179D01*
X154446109Y-74812213D01*
X154295786Y-74661890D01*
X154123820Y-74536951D01*
X154123115Y-74536591D01*
X154115054Y-74532485D01*
X154064259Y-74484512D01*
X154047463Y-74416692D01*
X154069999Y-74350556D01*
X154115054Y-74311515D01*
X154123816Y-74307051D01*
X154145789Y-74291086D01*
X154295786Y-74182109D01*
X154295788Y-74182106D01*
X154295792Y-74182104D01*
X154446104Y-74031792D01*
X154446106Y-74031788D01*
X154446109Y-74031786D01*
X154571048Y-73859820D01*
X154571047Y-73859820D01*
X154571051Y-73859816D01*
X154667557Y-73670412D01*
X154733246Y-73468243D01*
X154766500Y-73258287D01*
X154766500Y-73045713D01*
X154733246Y-72835757D01*
X154667557Y-72633588D01*
X154571051Y-72444184D01*
X154571049Y-72444181D01*
X154571048Y-72444179D01*
X154446109Y-72272213D01*
X154295786Y-72121890D01*
X154123820Y-71996951D01*
X154123115Y-71996591D01*
X154115054Y-71992485D01*
X154064259Y-71944512D01*
X154047463Y-71876692D01*
X154069999Y-71810556D01*
X154115054Y-71771515D01*
X154123816Y-71767051D01*
X154187887Y-71720501D01*
X154295786Y-71642109D01*
X154295788Y-71642106D01*
X154295792Y-71642104D01*
X154446104Y-71491792D01*
X154446106Y-71491788D01*
X154446109Y-71491786D01*
X154571048Y-71319820D01*
X154571047Y-71319820D01*
X154571051Y-71319816D01*
X154667557Y-71130412D01*
X154733246Y-70928243D01*
X154766500Y-70718287D01*
X154766500Y-70505713D01*
X154733246Y-70295757D01*
X154667557Y-70093588D01*
X154571051Y-69904184D01*
X154571049Y-69904181D01*
X154571048Y-69904179D01*
X154446109Y-69732213D01*
X154295786Y-69581890D01*
X154123820Y-69456951D01*
X154123115Y-69456591D01*
X154115054Y-69452485D01*
X154064259Y-69404512D01*
X154047463Y-69336692D01*
X154069999Y-69270556D01*
X154115054Y-69231515D01*
X154123816Y-69227051D01*
X154189712Y-69179175D01*
X154295786Y-69102109D01*
X154295788Y-69102106D01*
X154295792Y-69102104D01*
X154446104Y-68951792D01*
X154446106Y-68951788D01*
X154446109Y-68951786D01*
X154571048Y-68779820D01*
X154571047Y-68779820D01*
X154571051Y-68779816D01*
X154667557Y-68590412D01*
X154733246Y-68388243D01*
X154766500Y-68178287D01*
X154766500Y-67965713D01*
X154733246Y-67755757D01*
X154667557Y-67553588D01*
X154571051Y-67364184D01*
X154571049Y-67364181D01*
X154571048Y-67364179D01*
X154446109Y-67192213D01*
X154295786Y-67041890D01*
X154123820Y-66916951D01*
X154123115Y-66916591D01*
X154115054Y-66912485D01*
X154064259Y-66864512D01*
X154047463Y-66796692D01*
X154069999Y-66730556D01*
X154115054Y-66691515D01*
X154123816Y-66687051D01*
X154199032Y-66632404D01*
X154295786Y-66562109D01*
X154295788Y-66562106D01*
X154295792Y-66562104D01*
X154446104Y-66411792D01*
X154446106Y-66411788D01*
X154446109Y-66411786D01*
X154571048Y-66239820D01*
X154571047Y-66239820D01*
X154571051Y-66239816D01*
X154667557Y-66050412D01*
X154733246Y-65848243D01*
X154766500Y-65638287D01*
X154766500Y-65425713D01*
X154733246Y-65215757D01*
X154667557Y-65013588D01*
X154571051Y-64824184D01*
X154571049Y-64824181D01*
X154571048Y-64824179D01*
X154446109Y-64652213D01*
X154295786Y-64501890D01*
X154123820Y-64376951D01*
X154123115Y-64376591D01*
X154115054Y-64372485D01*
X154064259Y-64324512D01*
X154047463Y-64256692D01*
X154069999Y-64190556D01*
X154115054Y-64151515D01*
X154123816Y-64147051D01*
X154145789Y-64131086D01*
X154295786Y-64022109D01*
X154295788Y-64022106D01*
X154295792Y-64022104D01*
X154446104Y-63871792D01*
X154446106Y-63871788D01*
X154446109Y-63871786D01*
X154571048Y-63699820D01*
X154571047Y-63699820D01*
X154571051Y-63699816D01*
X154667557Y-63510412D01*
X154733246Y-63308243D01*
X154766500Y-63098287D01*
X154766500Y-62885713D01*
X154733246Y-62675757D01*
X154667557Y-62473588D01*
X154571051Y-62284184D01*
X154571049Y-62284181D01*
X154571048Y-62284179D01*
X154446109Y-62112213D01*
X154295786Y-61961890D01*
X154123820Y-61836951D01*
X153934414Y-61740444D01*
X153934413Y-61740443D01*
X153934412Y-61740443D01*
X153732243Y-61674754D01*
X153732241Y-61674753D01*
X153732240Y-61674753D01*
X153570957Y-61649208D01*
X153522287Y-61641500D01*
X153309713Y-61641500D01*
X153261042Y-61649208D01*
X153099760Y-61674753D01*
X152897585Y-61740444D01*
X152708179Y-61836951D01*
X152536213Y-61961890D01*
X152385890Y-62112213D01*
X152260951Y-62284179D01*
X152164444Y-62473585D01*
X152098753Y-62675760D01*
X152065500Y-62885713D01*
X152065500Y-63098286D01*
X152098754Y-63308244D01*
X152098754Y-63308247D01*
X152112491Y-63350523D01*
X152114486Y-63420364D01*
X152082241Y-63476522D01*
X145075584Y-70483181D01*
X145014261Y-70516666D01*
X144987903Y-70519500D01*
X136826940Y-70519500D01*
X136786019Y-70530464D01*
X136786019Y-70530465D01*
X136748751Y-70540451D01*
X136674214Y-70560423D01*
X136674209Y-70560426D01*
X136537290Y-70639475D01*
X136537282Y-70639481D01*
X136425478Y-70751286D01*
X134813584Y-72363181D01*
X134752261Y-72396666D01*
X134725903Y-72399500D01*
X129929766Y-72399500D01*
X129862727Y-72379815D01*
X129860875Y-72378602D01*
X129729185Y-72290609D01*
X129729172Y-72290602D01*
X129583501Y-72230264D01*
X129583489Y-72230261D01*
X129428845Y-72199500D01*
X129428842Y-72199500D01*
X129271158Y-72199500D01*
X129271155Y-72199500D01*
X129116510Y-72230261D01*
X129116498Y-72230264D01*
X128970827Y-72290602D01*
X128970814Y-72290609D01*
X128839711Y-72378210D01*
X128839707Y-72378213D01*
X128728213Y-72489707D01*
X128728210Y-72489711D01*
X128640609Y-72620814D01*
X128640602Y-72620827D01*
X128580264Y-72766498D01*
X128580261Y-72766510D01*
X128549500Y-72921153D01*
X128549500Y-73078846D01*
X128580261Y-73233489D01*
X128580264Y-73233501D01*
X128640602Y-73379172D01*
X128640609Y-73379185D01*
X128728210Y-73510288D01*
X128728213Y-73510292D01*
X128839707Y-73621786D01*
X128839711Y-73621789D01*
X128970814Y-73709390D01*
X128970827Y-73709397D01*
X129049894Y-73742147D01*
X129116503Y-73769737D01*
X129244619Y-73795221D01*
X129271153Y-73800499D01*
X129271156Y-73800500D01*
X129271158Y-73800500D01*
X129428844Y-73800500D01*
X129428845Y-73800499D01*
X129583497Y-73769737D01*
X129729179Y-73709394D01*
X129787520Y-73670412D01*
X129860875Y-73621398D01*
X129927553Y-73600520D01*
X129929766Y-73600500D01*
X134495810Y-73600500D01*
X134562849Y-73620185D01*
X134608604Y-73672989D01*
X134618548Y-73742147D01*
X134589523Y-73805703D01*
X134543262Y-73839061D01*
X134418827Y-73890602D01*
X134418814Y-73890609D01*
X134287711Y-73978210D01*
X134287707Y-73978213D01*
X134176213Y-74089707D01*
X134176210Y-74089711D01*
X134088609Y-74220814D01*
X134088602Y-74220827D01*
X134028264Y-74366498D01*
X134028261Y-74366508D01*
X133997362Y-74521849D01*
X133964977Y-74583759D01*
X133963426Y-74585338D01*
X133585584Y-74963181D01*
X133524261Y-74996666D01*
X133497903Y-74999500D01*
X126279057Y-74999500D01*
X126120942Y-74999500D01*
X125968215Y-75040423D01*
X125944322Y-75054218D01*
X125887803Y-75086849D01*
X125831285Y-75119479D01*
X125831282Y-75119481D01*
X125719478Y-75231286D01*
X124787584Y-76163181D01*
X124726261Y-76196666D01*
X124699903Y-76199500D01*
X124379766Y-76199500D01*
X124312727Y-76179815D01*
X124310875Y-76178602D01*
X124179185Y-76090609D01*
X124179172Y-76090602D01*
X124033501Y-76030264D01*
X124033489Y-76030261D01*
X123878845Y-75999500D01*
X123878842Y-75999500D01*
X123721158Y-75999500D01*
X123721155Y-75999500D01*
X123566510Y-76030261D01*
X123566498Y-76030264D01*
X123420827Y-76090602D01*
X123420814Y-76090609D01*
X123289711Y-76178210D01*
X123289707Y-76178213D01*
X123178213Y-76289707D01*
X123178210Y-76289711D01*
X123090609Y-76420814D01*
X123090602Y-76420827D01*
X123030264Y-76566498D01*
X123030261Y-76566510D01*
X122999500Y-76721153D01*
X122999500Y-76878846D01*
X123030261Y-77033489D01*
X123030264Y-77033501D01*
X123090602Y-77179172D01*
X123090609Y-77179185D01*
X123178210Y-77310288D01*
X123178213Y-77310292D01*
X123289707Y-77421786D01*
X123289711Y-77421789D01*
X123420814Y-77509390D01*
X123420827Y-77509397D01*
X123558683Y-77566498D01*
X123566503Y-77569737D01*
X123721153Y-77600499D01*
X123721156Y-77600500D01*
X123721158Y-77600500D01*
X123878844Y-77600500D01*
X123878845Y-77600499D01*
X124033497Y-77569737D01*
X124179179Y-77509394D01*
X124221425Y-77481166D01*
X124310875Y-77421398D01*
X124377553Y-77400520D01*
X124379766Y-77400500D01*
X124913331Y-77400500D01*
X124913347Y-77400501D01*
X124920943Y-77400501D01*
X125079054Y-77400501D01*
X125079057Y-77400501D01*
X125231785Y-77359577D01*
X125301233Y-77319481D01*
X125368716Y-77280520D01*
X125480520Y-77168716D01*
X125480520Y-77168714D01*
X125490724Y-77158511D01*
X125490727Y-77158506D01*
X126412416Y-76236819D01*
X126473739Y-76203334D01*
X126500097Y-76200500D01*
X128622152Y-76200500D01*
X128689191Y-76220185D01*
X128734946Y-76272989D01*
X128743769Y-76300309D01*
X128770681Y-76435605D01*
X128764454Y-76505196D01*
X128752167Y-76528686D01*
X128690608Y-76620816D01*
X128690602Y-76620827D01*
X128630264Y-76766498D01*
X128630261Y-76766510D01*
X128599500Y-76921153D01*
X128599500Y-77078846D01*
X128618022Y-77171963D01*
X128611795Y-77241555D01*
X128584091Y-77283831D01*
X128578208Y-77289714D01*
X128490609Y-77420814D01*
X128490602Y-77420827D01*
X128430264Y-77566498D01*
X128430261Y-77566510D01*
X128399500Y-77721153D01*
X128399500Y-77878846D01*
X128430261Y-78033489D01*
X128430264Y-78033501D01*
X128490602Y-78179172D01*
X128490609Y-78179185D01*
X128578210Y-78310288D01*
X128578213Y-78310292D01*
X128689707Y-78421786D01*
X128689711Y-78421789D01*
X128820814Y-78509390D01*
X128820827Y-78509397D01*
X128914611Y-78548243D01*
X128966503Y-78569737D01*
X129121153Y-78600499D01*
X129121156Y-78600500D01*
X129121158Y-78600500D01*
X129278844Y-78600500D01*
X129278845Y-78600499D01*
X129433497Y-78569737D01*
X129579179Y-78509394D01*
X129579185Y-78509390D01*
X129710875Y-78421398D01*
X129777553Y-78400520D01*
X129779766Y-78400500D01*
X136699903Y-78400500D01*
X136766942Y-78420185D01*
X136787584Y-78436819D01*
X138965425Y-80614660D01*
X138998910Y-80675983D01*
X138999361Y-80678149D01*
X139030261Y-80833491D01*
X139030264Y-80833501D01*
X139063793Y-80914448D01*
X139071262Y-80983918D01*
X139039986Y-81046397D01*
X138979897Y-81082048D01*
X138949232Y-81085900D01*
X130586498Y-81085900D01*
X130519459Y-81066215D01*
X130498817Y-81049581D01*
X130034573Y-80585337D01*
X130001088Y-80524014D01*
X130000637Y-80521847D01*
X129987635Y-80456483D01*
X129969737Y-80366503D01*
X129960264Y-80343633D01*
X129909397Y-80220827D01*
X129909390Y-80220814D01*
X129821789Y-80089711D01*
X129821786Y-80089707D01*
X129710292Y-79978213D01*
X129710288Y-79978210D01*
X129579185Y-79890609D01*
X129579172Y-79890602D01*
X129433501Y-79830264D01*
X129433489Y-79830261D01*
X129278845Y-79799500D01*
X129278842Y-79799500D01*
X129121158Y-79799500D01*
X129121155Y-79799500D01*
X128966510Y-79830261D01*
X128966498Y-79830264D01*
X128820827Y-79890602D01*
X128820814Y-79890609D01*
X128689711Y-79978210D01*
X128689707Y-79978213D01*
X128578213Y-80089707D01*
X128578210Y-80089711D01*
X128490609Y-80220814D01*
X128490602Y-80220827D01*
X128430264Y-80366498D01*
X128430261Y-80366510D01*
X128399500Y-80521153D01*
X128399500Y-80678846D01*
X128430261Y-80833489D01*
X128430264Y-80833501D01*
X128490602Y-80979172D01*
X128490609Y-80979185D01*
X128578210Y-81110288D01*
X128578213Y-81110292D01*
X128689707Y-81221786D01*
X128689711Y-81221789D01*
X128820814Y-81309390D01*
X128820827Y-81309397D01*
X128966498Y-81369735D01*
X128966503Y-81369737D01*
X129031147Y-81382595D01*
X129121849Y-81400638D01*
X129183760Y-81433023D01*
X129185336Y-81434571D01*
X129917684Y-82166920D01*
X129917686Y-82166921D01*
X129917690Y-82166924D01*
X130054609Y-82245973D01*
X130054616Y-82245977D01*
X130207343Y-82286901D01*
X130207345Y-82286901D01*
X130373054Y-82286901D01*
X130373070Y-82286900D01*
X130601305Y-82286900D01*
X130668344Y-82306585D01*
X130714099Y-82359389D01*
X130724043Y-82428547D01*
X130695018Y-82492103D01*
X130636240Y-82529877D01*
X130625497Y-82532517D01*
X130576508Y-82542261D01*
X130576498Y-82542264D01*
X130430827Y-82602602D01*
X130430814Y-82602609D01*
X130299711Y-82690210D01*
X130299707Y-82690213D01*
X130188213Y-82801707D01*
X130188210Y-82801711D01*
X130100609Y-82932814D01*
X130100602Y-82932827D01*
X130040264Y-83078498D01*
X130040261Y-83078508D01*
X130009361Y-83233850D01*
X129976976Y-83295761D01*
X129975425Y-83297339D01*
X124233481Y-89039282D01*
X124233480Y-89039284D01*
X124194269Y-89107201D01*
X124183361Y-89126094D01*
X124183359Y-89126096D01*
X124154425Y-89176209D01*
X124154424Y-89176210D01*
X124138544Y-89235472D01*
X124113499Y-89328943D01*
X124113499Y-89328945D01*
X124113499Y-89392281D01*
X124093814Y-89459320D01*
X124045796Y-89502765D01*
X124006180Y-89522950D01*
X123834215Y-89647889D01*
X123720673Y-89761431D01*
X123659350Y-89794915D01*
X123589658Y-89789931D01*
X123533725Y-89748059D01*
X123516810Y-89717082D01*
X123467797Y-89585671D01*
X123467793Y-89585664D01*
X123381547Y-89470455D01*
X123381544Y-89470452D01*
X123266335Y-89384206D01*
X123266328Y-89384202D01*
X123131482Y-89333908D01*
X123131483Y-89333908D01*
X123071883Y-89327501D01*
X123071881Y-89327500D01*
X123071873Y-89327500D01*
X123071864Y-89327500D01*
X121276129Y-89327500D01*
X121276123Y-89327501D01*
X121216516Y-89333908D01*
X121081671Y-89384202D01*
X121081664Y-89384206D01*
X120966455Y-89470452D01*
X120966452Y-89470455D01*
X120880206Y-89585664D01*
X120880202Y-89585671D01*
X120829908Y-89720517D01*
X120823501Y-89780116D01*
X120823500Y-89780135D01*
X100000500Y-89780135D01*
X100000500Y-81438905D01*
X102000000Y-81438905D01*
X102000000Y-81701094D01*
X102034220Y-81961009D01*
X102034222Y-81961020D01*
X102102075Y-82214255D01*
X102202404Y-82456471D01*
X102202409Y-82456482D01*
X102333488Y-82683516D01*
X102333494Y-82683524D01*
X102420080Y-82796365D01*
X103027912Y-82188532D01*
X103122829Y-82319175D01*
X103250825Y-82447171D01*
X103381465Y-82542086D01*
X102773633Y-83149917D01*
X102773633Y-83149918D01*
X102886475Y-83236505D01*
X102886483Y-83236511D01*
X103113517Y-83367590D01*
X103113528Y-83367595D01*
X103355744Y-83467924D01*
X103608979Y-83535777D01*
X103608990Y-83535779D01*
X103868905Y-83569999D01*
X103868920Y-83570000D01*
X104131080Y-83570000D01*
X104131094Y-83569999D01*
X104391009Y-83535779D01*
X104391020Y-83535777D01*
X104644255Y-83467924D01*
X104886471Y-83367595D01*
X104886482Y-83367590D01*
X105113516Y-83236511D01*
X105113534Y-83236499D01*
X105226365Y-83149919D01*
X105226365Y-83149917D01*
X104618534Y-82542086D01*
X104749175Y-82447171D01*
X104877171Y-82319175D01*
X104972086Y-82188534D01*
X105579917Y-82796365D01*
X105579919Y-82796365D01*
X105666499Y-82683534D01*
X105666511Y-82683516D01*
X105797590Y-82456482D01*
X105797595Y-82456471D01*
X105897924Y-82214255D01*
X105965777Y-81961020D01*
X105965779Y-81961009D01*
X105999999Y-81701094D01*
X106000000Y-81701080D01*
X106000000Y-81438919D01*
X105999999Y-81438905D01*
X105965779Y-81178990D01*
X105965777Y-81178979D01*
X105897924Y-80925744D01*
X105797595Y-80683528D01*
X105797590Y-80683517D01*
X105666511Y-80456483D01*
X105666505Y-80456475D01*
X105579918Y-80343633D01*
X105579917Y-80343633D01*
X104972085Y-80951465D01*
X104877171Y-80820825D01*
X104749175Y-80692829D01*
X104618532Y-80597912D01*
X105226365Y-79990080D01*
X105113524Y-79903494D01*
X105113516Y-79903488D01*
X104886482Y-79772409D01*
X104886471Y-79772404D01*
X104644255Y-79672075D01*
X104391020Y-79604222D01*
X104391009Y-79604220D01*
X104131094Y-79570000D01*
X103868905Y-79570000D01*
X103608990Y-79604220D01*
X103608979Y-79604222D01*
X103355744Y-79672075D01*
X103113528Y-79772404D01*
X103113517Y-79772409D01*
X102886471Y-79903496D01*
X102773633Y-79990079D01*
X102773633Y-79990080D01*
X103381466Y-80597913D01*
X103250825Y-80692829D01*
X103122829Y-80820825D01*
X103027913Y-80951466D01*
X102420080Y-80343633D01*
X102420079Y-80343633D01*
X102333496Y-80456471D01*
X102202409Y-80683517D01*
X102202404Y-80683528D01*
X102102075Y-80925744D01*
X102034222Y-81178979D01*
X102034220Y-81178990D01*
X102000000Y-81438905D01*
X100000500Y-81438905D01*
X100000500Y-71521153D01*
X109199500Y-71521153D01*
X109199500Y-71678846D01*
X109230261Y-71833489D01*
X109230264Y-71833501D01*
X109290602Y-71979172D01*
X109290609Y-71979185D01*
X109378210Y-72110288D01*
X109378213Y-72110292D01*
X109489707Y-72221786D01*
X109489711Y-72221789D01*
X109620814Y-72309390D01*
X109620827Y-72309397D01*
X109750675Y-72363181D01*
X109766503Y-72369737D01*
X109831147Y-72382595D01*
X109921849Y-72400638D01*
X109983760Y-72433023D01*
X109985338Y-72434573D01*
X114831284Y-77280520D01*
X114831286Y-77280521D01*
X114831290Y-77280524D01*
X114968209Y-77359573D01*
X114968212Y-77359575D01*
X114968216Y-77359577D01*
X115120943Y-77400501D01*
X115120945Y-77400501D01*
X115286654Y-77400501D01*
X115286670Y-77400500D01*
X118020234Y-77400500D01*
X118087273Y-77420185D01*
X118089125Y-77421398D01*
X118220814Y-77509390D01*
X118220827Y-77509397D01*
X118358683Y-77566498D01*
X118366503Y-77569737D01*
X118521153Y-77600499D01*
X118521156Y-77600500D01*
X118521158Y-77600500D01*
X118678844Y-77600500D01*
X118678845Y-77600499D01*
X118833497Y-77569737D01*
X118979179Y-77509394D01*
X119110289Y-77421789D01*
X119221789Y-77310289D01*
X119309394Y-77179179D01*
X119369737Y-77033497D01*
X119400500Y-76878842D01*
X119400500Y-76721158D01*
X119400500Y-76721155D01*
X119400499Y-76721153D01*
X119380543Y-76620827D01*
X119369737Y-76566503D01*
X119314645Y-76433497D01*
X119309397Y-76420827D01*
X119309390Y-76420814D01*
X119221789Y-76289711D01*
X119221786Y-76289707D01*
X119110292Y-76178213D01*
X119110288Y-76178210D01*
X118979185Y-76090609D01*
X118979172Y-76090602D01*
X118833501Y-76030264D01*
X118833489Y-76030261D01*
X118678845Y-75999500D01*
X118678842Y-75999500D01*
X118521158Y-75999500D01*
X118521155Y-75999500D01*
X118366510Y-76030261D01*
X118366498Y-76030264D01*
X118220827Y-76090602D01*
X118220814Y-76090609D01*
X118089125Y-76178602D01*
X118022447Y-76199480D01*
X118020234Y-76199500D01*
X115500098Y-76199500D01*
X115433059Y-76179815D01*
X115412417Y-76163181D01*
X110834573Y-71585337D01*
X110801088Y-71524014D01*
X110800637Y-71521847D01*
X110794659Y-71491792D01*
X110769737Y-71366503D01*
X110769735Y-71366498D01*
X110709397Y-71220827D01*
X110709390Y-71220814D01*
X110621789Y-71089711D01*
X110621786Y-71089707D01*
X110510292Y-70978213D01*
X110510288Y-70978210D01*
X110379185Y-70890609D01*
X110379172Y-70890602D01*
X110233501Y-70830264D01*
X110233489Y-70830261D01*
X110078845Y-70799500D01*
X110078842Y-70799500D01*
X109921158Y-70799500D01*
X109921155Y-70799500D01*
X109766510Y-70830261D01*
X109766498Y-70830264D01*
X109620827Y-70890602D01*
X109620814Y-70890609D01*
X109489711Y-70978210D01*
X109489707Y-70978213D01*
X109378213Y-71089707D01*
X109378210Y-71089711D01*
X109290609Y-71220814D01*
X109290602Y-71220827D01*
X109230264Y-71366498D01*
X109230261Y-71366510D01*
X109199500Y-71521153D01*
X100000500Y-71521153D01*
X100000500Y-68298905D01*
X102000000Y-68298905D01*
X102000000Y-68561094D01*
X102034220Y-68821009D01*
X102034222Y-68821020D01*
X102102075Y-69074255D01*
X102202404Y-69316471D01*
X102202409Y-69316482D01*
X102333488Y-69543516D01*
X102333494Y-69543524D01*
X102420080Y-69656365D01*
X103027912Y-69048532D01*
X103122829Y-69179175D01*
X103250825Y-69307171D01*
X103381465Y-69402086D01*
X102773633Y-70009917D01*
X102773633Y-70009918D01*
X102886475Y-70096505D01*
X102886483Y-70096511D01*
X103113517Y-70227590D01*
X103113528Y-70227595D01*
X103355744Y-70327924D01*
X103608979Y-70395777D01*
X103608990Y-70395779D01*
X103868905Y-70429999D01*
X103868920Y-70430000D01*
X104131080Y-70430000D01*
X104131094Y-70429999D01*
X104391009Y-70395779D01*
X104391020Y-70395777D01*
X104644255Y-70327924D01*
X104886471Y-70227595D01*
X104886482Y-70227590D01*
X105113516Y-70096511D01*
X105113534Y-70096499D01*
X105226365Y-70009919D01*
X105226365Y-70009917D01*
X104618534Y-69402086D01*
X104749175Y-69307171D01*
X104877171Y-69179175D01*
X104972086Y-69048534D01*
X105579917Y-69656365D01*
X105579919Y-69656365D01*
X105666499Y-69543534D01*
X105666511Y-69543516D01*
X105797590Y-69316482D01*
X105797595Y-69316471D01*
X105897924Y-69074255D01*
X105965777Y-68821020D01*
X105965779Y-68821009D01*
X105999999Y-68561094D01*
X106000000Y-68561080D01*
X106000000Y-68521153D01*
X126999500Y-68521153D01*
X126999500Y-68678846D01*
X127030261Y-68833489D01*
X127030264Y-68833501D01*
X127090602Y-68979172D01*
X127090609Y-68979185D01*
X127178210Y-69110288D01*
X127178213Y-69110292D01*
X127289707Y-69221786D01*
X127289711Y-69221789D01*
X127420814Y-69309390D01*
X127420827Y-69309397D01*
X127544065Y-69360443D01*
X127566503Y-69369737D01*
X127721153Y-69400499D01*
X127721156Y-69400500D01*
X127721158Y-69400500D01*
X127878844Y-69400500D01*
X127878845Y-69400499D01*
X128033497Y-69369737D01*
X128162067Y-69316482D01*
X128179172Y-69309397D01*
X128179172Y-69309396D01*
X128179179Y-69309394D01*
X128295735Y-69231514D01*
X128310875Y-69221398D01*
X128377553Y-69200520D01*
X128379766Y-69200500D01*
X131133741Y-69200500D01*
X131200780Y-69220185D01*
X131246535Y-69272989D01*
X131248302Y-69277048D01*
X131290602Y-69379172D01*
X131290609Y-69379185D01*
X131378210Y-69510288D01*
X131378213Y-69510292D01*
X131489707Y-69621786D01*
X131489711Y-69621789D01*
X131620814Y-69709390D01*
X131620827Y-69709397D01*
X131675911Y-69732213D01*
X131766503Y-69769737D01*
X131921153Y-69800499D01*
X131921156Y-69800500D01*
X131921158Y-69800500D01*
X132078844Y-69800500D01*
X132078845Y-69800499D01*
X132233497Y-69769737D01*
X132379179Y-69709394D01*
X132510289Y-69621789D01*
X132621789Y-69510289D01*
X132709394Y-69379179D01*
X132769737Y-69233497D01*
X132800500Y-69078842D01*
X132800500Y-68921158D01*
X132800500Y-68921155D01*
X132800499Y-68921153D01*
X132769738Y-68766510D01*
X132769737Y-68766503D01*
X132733427Y-68678842D01*
X132709397Y-68620827D01*
X132709390Y-68620814D01*
X132621789Y-68489711D01*
X132621786Y-68489707D01*
X132510292Y-68378213D01*
X132510288Y-68378210D01*
X132379185Y-68290609D01*
X132379172Y-68290602D01*
X132233501Y-68230264D01*
X132233491Y-68230261D01*
X132078151Y-68199362D01*
X132029185Y-68177865D01*
X132021446Y-68172210D01*
X131968716Y-68119480D01*
X131881904Y-68069360D01*
X131831785Y-68040423D01*
X131679057Y-67999499D01*
X131520943Y-67999499D01*
X131513347Y-67999499D01*
X131513331Y-67999500D01*
X128379766Y-67999500D01*
X128312727Y-67979815D01*
X128310875Y-67978602D01*
X128179185Y-67890609D01*
X128179172Y-67890602D01*
X128033501Y-67830264D01*
X128033489Y-67830261D01*
X127878845Y-67799500D01*
X127878842Y-67799500D01*
X127721158Y-67799500D01*
X127721155Y-67799500D01*
X127566510Y-67830261D01*
X127566498Y-67830264D01*
X127420827Y-67890602D01*
X127420814Y-67890609D01*
X127289711Y-67978210D01*
X127289707Y-67978213D01*
X127178213Y-68089707D01*
X127178210Y-68089711D01*
X127090609Y-68220814D01*
X127090602Y-68220827D01*
X127030264Y-68366498D01*
X127030261Y-68366510D01*
X126999500Y-68521153D01*
X106000000Y-68521153D01*
X106000000Y-68298919D01*
X105999999Y-68298905D01*
X105965779Y-68038990D01*
X105965777Y-68038979D01*
X105897924Y-67785744D01*
X105797595Y-67543528D01*
X105797590Y-67543517D01*
X105666511Y-67316483D01*
X105666505Y-67316475D01*
X105579918Y-67203633D01*
X105579917Y-67203633D01*
X104972085Y-67811465D01*
X104877171Y-67680825D01*
X104749175Y-67552829D01*
X104618532Y-67457912D01*
X105226365Y-66850080D01*
X105113524Y-66763494D01*
X105113516Y-66763488D01*
X104886482Y-66632409D01*
X104886471Y-66632404D01*
X104644255Y-66532075D01*
X104391020Y-66464222D01*
X104391009Y-66464220D01*
X104131094Y-66430000D01*
X103868905Y-66430000D01*
X103608990Y-66464220D01*
X103608979Y-66464222D01*
X103355744Y-66532075D01*
X103113528Y-66632404D01*
X103113517Y-66632409D01*
X102886471Y-66763496D01*
X102773633Y-66850079D01*
X102773633Y-66850080D01*
X103381466Y-67457913D01*
X103250825Y-67552829D01*
X103122829Y-67680825D01*
X103027913Y-67811466D01*
X102420080Y-67203633D01*
X102420079Y-67203633D01*
X102333496Y-67316471D01*
X102202409Y-67543517D01*
X102202404Y-67543528D01*
X102102075Y-67785744D01*
X102034222Y-68038979D01*
X102034220Y-68038990D01*
X102000000Y-68298905D01*
X100000500Y-68298905D01*
X100000500Y-54124500D01*
X100020185Y-54057461D01*
X100072989Y-54011706D01*
X100124500Y-54000500D01*
X156875500Y-54000500D01*
X156942539Y-54020185D01*
G37*
%TD.AperFunction*%
%TD*%
M02*
