%TF.GenerationSoftware,KiCad,Pcbnew,10.0.0*%
%TF.CreationDate,2026-05-07T17:00:01-05:00*%
%TF.ProjectId,Atmega328_Coursera,41746d65-6761-4333-9238-5f436f757273,rev?*%
%TF.SameCoordinates,Original*%
%TF.FileFunction,Legend,Top*%
%TF.FilePolarity,Positive*%
%FSLAX46Y46*%
G04 Gerber Fmt 4.6, Leading zero omitted, Abs format (unit mm)*
G04 Created by KiCad (PCBNEW 10.0.0) date 2026-05-07 17:00:01*
%MOMM*%
%LPD*%
G01*
G04 APERTURE LIST*
%ADD10C,0.100000*%
%ADD11C,0.150000*%
%ADD12C,0.120000*%
G04 APERTURE END LIST*
D10*
X115853884Y-70697419D02*
X115853884Y-69697419D01*
X116425312Y-70697419D02*
X115996741Y-70125990D01*
X116425312Y-69697419D02*
X115853884Y-70268847D01*
D11*
X124033333Y-71504819D02*
X123700000Y-71028628D01*
X123461905Y-71504819D02*
X123461905Y-70504819D01*
X123461905Y-70504819D02*
X123842857Y-70504819D01*
X123842857Y-70504819D02*
X123938095Y-70552438D01*
X123938095Y-70552438D02*
X123985714Y-70600057D01*
X123985714Y-70600057D02*
X124033333Y-70695295D01*
X124033333Y-70695295D02*
X124033333Y-70838152D01*
X124033333Y-70838152D02*
X123985714Y-70933390D01*
X123985714Y-70933390D02*
X123938095Y-70981009D01*
X123938095Y-70981009D02*
X123842857Y-71028628D01*
X123842857Y-71028628D02*
X123461905Y-71028628D01*
X124938095Y-70504819D02*
X124461905Y-70504819D01*
X124461905Y-70504819D02*
X124414286Y-70981009D01*
X124414286Y-70981009D02*
X124461905Y-70933390D01*
X124461905Y-70933390D02*
X124557143Y-70885771D01*
X124557143Y-70885771D02*
X124795238Y-70885771D01*
X124795238Y-70885771D02*
X124890476Y-70933390D01*
X124890476Y-70933390D02*
X124938095Y-70981009D01*
X124938095Y-70981009D02*
X124985714Y-71076247D01*
X124985714Y-71076247D02*
X124985714Y-71314342D01*
X124985714Y-71314342D02*
X124938095Y-71409580D01*
X124938095Y-71409580D02*
X124890476Y-71457200D01*
X124890476Y-71457200D02*
X124795238Y-71504819D01*
X124795238Y-71504819D02*
X124557143Y-71504819D01*
X124557143Y-71504819D02*
X124461905Y-71457200D01*
X124461905Y-71457200D02*
X124414286Y-71409580D01*
X122788095Y-56204819D02*
X122788095Y-57014342D01*
X122788095Y-57014342D02*
X122835714Y-57109580D01*
X122835714Y-57109580D02*
X122883333Y-57157200D01*
X122883333Y-57157200D02*
X122978571Y-57204819D01*
X122978571Y-57204819D02*
X123169047Y-57204819D01*
X123169047Y-57204819D02*
X123264285Y-57157200D01*
X123264285Y-57157200D02*
X123311904Y-57109580D01*
X123311904Y-57109580D02*
X123359523Y-57014342D01*
X123359523Y-57014342D02*
X123359523Y-56204819D01*
X124359523Y-57204819D02*
X123788095Y-57204819D01*
X124073809Y-57204819D02*
X124073809Y-56204819D01*
X124073809Y-56204819D02*
X123978571Y-56347676D01*
X123978571Y-56347676D02*
X123883333Y-56442914D01*
X123883333Y-56442914D02*
X123788095Y-56490533D01*
X118536905Y-68029819D02*
X118536905Y-67029819D01*
X118536905Y-67029819D02*
X118775000Y-67029819D01*
X118775000Y-67029819D02*
X118917857Y-67077438D01*
X118917857Y-67077438D02*
X119013095Y-67172676D01*
X119013095Y-67172676D02*
X119060714Y-67267914D01*
X119060714Y-67267914D02*
X119108333Y-67458390D01*
X119108333Y-67458390D02*
X119108333Y-67601247D01*
X119108333Y-67601247D02*
X119060714Y-67791723D01*
X119060714Y-67791723D02*
X119013095Y-67886961D01*
X119013095Y-67886961D02*
X118917857Y-67982200D01*
X118917857Y-67982200D02*
X118775000Y-68029819D01*
X118775000Y-68029819D02*
X118536905Y-68029819D01*
X119441667Y-67029819D02*
X120060714Y-67029819D01*
X120060714Y-67029819D02*
X119727381Y-67410771D01*
X119727381Y-67410771D02*
X119870238Y-67410771D01*
X119870238Y-67410771D02*
X119965476Y-67458390D01*
X119965476Y-67458390D02*
X120013095Y-67506009D01*
X120013095Y-67506009D02*
X120060714Y-67601247D01*
X120060714Y-67601247D02*
X120060714Y-67839342D01*
X120060714Y-67839342D02*
X120013095Y-67934580D01*
X120013095Y-67934580D02*
X119965476Y-67982200D01*
X119965476Y-67982200D02*
X119870238Y-68029819D01*
X119870238Y-68029819D02*
X119584524Y-68029819D01*
X119584524Y-68029819D02*
X119489286Y-67982200D01*
X119489286Y-67982200D02*
X119441667Y-67934580D01*
X118438705Y-80668019D02*
X118438705Y-79668019D01*
X118438705Y-79668019D02*
X118676800Y-79668019D01*
X118676800Y-79668019D02*
X118819657Y-79715638D01*
X118819657Y-79715638D02*
X118914895Y-79810876D01*
X118914895Y-79810876D02*
X118962514Y-79906114D01*
X118962514Y-79906114D02*
X119010133Y-80096590D01*
X119010133Y-80096590D02*
X119010133Y-80239447D01*
X119010133Y-80239447D02*
X118962514Y-80429923D01*
X118962514Y-80429923D02*
X118914895Y-80525161D01*
X118914895Y-80525161D02*
X118819657Y-80620400D01*
X118819657Y-80620400D02*
X118676800Y-80668019D01*
X118676800Y-80668019D02*
X118438705Y-80668019D01*
X119391086Y-79763257D02*
X119438705Y-79715638D01*
X119438705Y-79715638D02*
X119533943Y-79668019D01*
X119533943Y-79668019D02*
X119772038Y-79668019D01*
X119772038Y-79668019D02*
X119867276Y-79715638D01*
X119867276Y-79715638D02*
X119914895Y-79763257D01*
X119914895Y-79763257D02*
X119962514Y-79858495D01*
X119962514Y-79858495D02*
X119962514Y-79953733D01*
X119962514Y-79953733D02*
X119914895Y-80096590D01*
X119914895Y-80096590D02*
X119343467Y-80668019D01*
X119343467Y-80668019D02*
X119962514Y-80668019D01*
X103666666Y-84104819D02*
X103666666Y-84819104D01*
X103666666Y-84819104D02*
X103619047Y-84961961D01*
X103619047Y-84961961D02*
X103523809Y-85057200D01*
X103523809Y-85057200D02*
X103380952Y-85104819D01*
X103380952Y-85104819D02*
X103285714Y-85104819D01*
X104666666Y-85104819D02*
X104095238Y-85104819D01*
X104380952Y-85104819D02*
X104380952Y-84104819D01*
X104380952Y-84104819D02*
X104285714Y-84247676D01*
X104285714Y-84247676D02*
X104190476Y-84342914D01*
X104190476Y-84342914D02*
X104095238Y-84390533D01*
X106988095Y-57604819D02*
X106988095Y-56604819D01*
X106988095Y-57081009D02*
X107559523Y-57081009D01*
X107559523Y-57604819D02*
X107559523Y-56604819D01*
X108559523Y-57604819D02*
X107988095Y-57604819D01*
X108273809Y-57604819D02*
X108273809Y-56604819D01*
X108273809Y-56604819D02*
X108178571Y-56747676D01*
X108178571Y-56747676D02*
X108083333Y-56842914D01*
X108083333Y-56842914D02*
X107988095Y-56890533D01*
X148688095Y-93804819D02*
X148688095Y-92804819D01*
X148688095Y-93281009D02*
X149259523Y-93281009D01*
X149259523Y-93804819D02*
X149259523Y-92804819D01*
X149640476Y-92804819D02*
X150259523Y-92804819D01*
X150259523Y-92804819D02*
X149926190Y-93185771D01*
X149926190Y-93185771D02*
X150069047Y-93185771D01*
X150069047Y-93185771D02*
X150164285Y-93233390D01*
X150164285Y-93233390D02*
X150211904Y-93281009D01*
X150211904Y-93281009D02*
X150259523Y-93376247D01*
X150259523Y-93376247D02*
X150259523Y-93614342D01*
X150259523Y-93614342D02*
X150211904Y-93709580D01*
X150211904Y-93709580D02*
X150164285Y-93757200D01*
X150164285Y-93757200D02*
X150069047Y-93804819D01*
X150069047Y-93804819D02*
X149783333Y-93804819D01*
X149783333Y-93804819D02*
X149688095Y-93757200D01*
X149688095Y-93757200D02*
X149640476Y-93709580D01*
X113208333Y-72379819D02*
X112875000Y-71903628D01*
X112636905Y-72379819D02*
X112636905Y-71379819D01*
X112636905Y-71379819D02*
X113017857Y-71379819D01*
X113017857Y-71379819D02*
X113113095Y-71427438D01*
X113113095Y-71427438D02*
X113160714Y-71475057D01*
X113160714Y-71475057D02*
X113208333Y-71570295D01*
X113208333Y-71570295D02*
X113208333Y-71713152D01*
X113208333Y-71713152D02*
X113160714Y-71808390D01*
X113160714Y-71808390D02*
X113113095Y-71856009D01*
X113113095Y-71856009D02*
X113017857Y-71903628D01*
X113017857Y-71903628D02*
X112636905Y-71903628D01*
X113541667Y-71379819D02*
X114160714Y-71379819D01*
X114160714Y-71379819D02*
X113827381Y-71760771D01*
X113827381Y-71760771D02*
X113970238Y-71760771D01*
X113970238Y-71760771D02*
X114065476Y-71808390D01*
X114065476Y-71808390D02*
X114113095Y-71856009D01*
X114113095Y-71856009D02*
X114160714Y-71951247D01*
X114160714Y-71951247D02*
X114160714Y-72189342D01*
X114160714Y-72189342D02*
X114113095Y-72284580D01*
X114113095Y-72284580D02*
X114065476Y-72332200D01*
X114065476Y-72332200D02*
X113970238Y-72379819D01*
X113970238Y-72379819D02*
X113684524Y-72379819D01*
X113684524Y-72379819D02*
X113589286Y-72332200D01*
X113589286Y-72332200D02*
X113541667Y-72284580D01*
X134273809Y-61928628D02*
X134273809Y-62404819D01*
X133940476Y-61404819D02*
X134273809Y-61928628D01*
X134273809Y-61928628D02*
X134607142Y-61404819D01*
X135464285Y-62404819D02*
X134892857Y-62404819D01*
X135178571Y-62404819D02*
X135178571Y-61404819D01*
X135178571Y-61404819D02*
X135083333Y-61547676D01*
X135083333Y-61547676D02*
X134988095Y-61642914D01*
X134988095Y-61642914D02*
X134892857Y-61690533D01*
X150366666Y-85304819D02*
X150366666Y-86019104D01*
X150366666Y-86019104D02*
X150319047Y-86161961D01*
X150319047Y-86161961D02*
X150223809Y-86257200D01*
X150223809Y-86257200D02*
X150080952Y-86304819D01*
X150080952Y-86304819D02*
X149985714Y-86304819D01*
X150795238Y-85400057D02*
X150842857Y-85352438D01*
X150842857Y-85352438D02*
X150938095Y-85304819D01*
X150938095Y-85304819D02*
X151176190Y-85304819D01*
X151176190Y-85304819D02*
X151271428Y-85352438D01*
X151271428Y-85352438D02*
X151319047Y-85400057D01*
X151319047Y-85400057D02*
X151366666Y-85495295D01*
X151366666Y-85495295D02*
X151366666Y-85590533D01*
X151366666Y-85590533D02*
X151319047Y-85733390D01*
X151319047Y-85733390D02*
X150747619Y-86304819D01*
X150747619Y-86304819D02*
X151366666Y-86304819D01*
X113558333Y-78529819D02*
X113225000Y-78053628D01*
X112986905Y-78529819D02*
X112986905Y-77529819D01*
X112986905Y-77529819D02*
X113367857Y-77529819D01*
X113367857Y-77529819D02*
X113463095Y-77577438D01*
X113463095Y-77577438D02*
X113510714Y-77625057D01*
X113510714Y-77625057D02*
X113558333Y-77720295D01*
X113558333Y-77720295D02*
X113558333Y-77863152D01*
X113558333Y-77863152D02*
X113510714Y-77958390D01*
X113510714Y-77958390D02*
X113463095Y-78006009D01*
X113463095Y-78006009D02*
X113367857Y-78053628D01*
X113367857Y-78053628D02*
X112986905Y-78053628D01*
X113939286Y-77625057D02*
X113986905Y-77577438D01*
X113986905Y-77577438D02*
X114082143Y-77529819D01*
X114082143Y-77529819D02*
X114320238Y-77529819D01*
X114320238Y-77529819D02*
X114415476Y-77577438D01*
X114415476Y-77577438D02*
X114463095Y-77625057D01*
X114463095Y-77625057D02*
X114510714Y-77720295D01*
X114510714Y-77720295D02*
X114510714Y-77815533D01*
X114510714Y-77815533D02*
X114463095Y-77958390D01*
X114463095Y-77958390D02*
X113891667Y-78529819D01*
X113891667Y-78529819D02*
X114510714Y-78529819D01*
X121499333Y-78940819D02*
X121166000Y-78464628D01*
X120927905Y-78940819D02*
X120927905Y-77940819D01*
X120927905Y-77940819D02*
X121308857Y-77940819D01*
X121308857Y-77940819D02*
X121404095Y-77988438D01*
X121404095Y-77988438D02*
X121451714Y-78036057D01*
X121451714Y-78036057D02*
X121499333Y-78131295D01*
X121499333Y-78131295D02*
X121499333Y-78274152D01*
X121499333Y-78274152D02*
X121451714Y-78369390D01*
X121451714Y-78369390D02*
X121404095Y-78417009D01*
X121404095Y-78417009D02*
X121308857Y-78464628D01*
X121308857Y-78464628D02*
X120927905Y-78464628D01*
X122356476Y-78274152D02*
X122356476Y-78940819D01*
X122118381Y-77893200D02*
X121880286Y-78607485D01*
X121880286Y-78607485D02*
X122499333Y-78607485D01*
X137304819Y-75761904D02*
X138114342Y-75761904D01*
X138114342Y-75761904D02*
X138209580Y-75714285D01*
X138209580Y-75714285D02*
X138257200Y-75666666D01*
X138257200Y-75666666D02*
X138304819Y-75571428D01*
X138304819Y-75571428D02*
X138304819Y-75380952D01*
X138304819Y-75380952D02*
X138257200Y-75285714D01*
X138257200Y-75285714D02*
X138209580Y-75238095D01*
X138209580Y-75238095D02*
X138114342Y-75190476D01*
X138114342Y-75190476D02*
X137304819Y-75190476D01*
X137400057Y-74761904D02*
X137352438Y-74714285D01*
X137352438Y-74714285D02*
X137304819Y-74619047D01*
X137304819Y-74619047D02*
X137304819Y-74380952D01*
X137304819Y-74380952D02*
X137352438Y-74285714D01*
X137352438Y-74285714D02*
X137400057Y-74238095D01*
X137400057Y-74238095D02*
X137495295Y-74190476D01*
X137495295Y-74190476D02*
X137590533Y-74190476D01*
X137590533Y-74190476D02*
X137733390Y-74238095D01*
X137733390Y-74238095D02*
X138304819Y-74809523D01*
X138304819Y-74809523D02*
X138304819Y-74190476D01*
X124989333Y-80369580D02*
X124941714Y-80417200D01*
X124941714Y-80417200D02*
X124798857Y-80464819D01*
X124798857Y-80464819D02*
X124703619Y-80464819D01*
X124703619Y-80464819D02*
X124560762Y-80417200D01*
X124560762Y-80417200D02*
X124465524Y-80321961D01*
X124465524Y-80321961D02*
X124417905Y-80226723D01*
X124417905Y-80226723D02*
X124370286Y-80036247D01*
X124370286Y-80036247D02*
X124370286Y-79893390D01*
X124370286Y-79893390D02*
X124417905Y-79702914D01*
X124417905Y-79702914D02*
X124465524Y-79607676D01*
X124465524Y-79607676D02*
X124560762Y-79512438D01*
X124560762Y-79512438D02*
X124703619Y-79464819D01*
X124703619Y-79464819D02*
X124798857Y-79464819D01*
X124798857Y-79464819D02*
X124941714Y-79512438D01*
X124941714Y-79512438D02*
X124989333Y-79560057D01*
X125894095Y-79464819D02*
X125417905Y-79464819D01*
X125417905Y-79464819D02*
X125370286Y-79941009D01*
X125370286Y-79941009D02*
X125417905Y-79893390D01*
X125417905Y-79893390D02*
X125513143Y-79845771D01*
X125513143Y-79845771D02*
X125751238Y-79845771D01*
X125751238Y-79845771D02*
X125846476Y-79893390D01*
X125846476Y-79893390D02*
X125894095Y-79941009D01*
X125894095Y-79941009D02*
X125941714Y-80036247D01*
X125941714Y-80036247D02*
X125941714Y-80274342D01*
X125941714Y-80274342D02*
X125894095Y-80369580D01*
X125894095Y-80369580D02*
X125846476Y-80417200D01*
X125846476Y-80417200D02*
X125751238Y-80464819D01*
X125751238Y-80464819D02*
X125513143Y-80464819D01*
X125513143Y-80464819D02*
X125417905Y-80417200D01*
X125417905Y-80417200D02*
X125370286Y-80369580D01*
X106938095Y-92604819D02*
X106938095Y-91604819D01*
X106938095Y-92081009D02*
X107509523Y-92081009D01*
X107509523Y-92604819D02*
X107509523Y-91604819D01*
X107938095Y-91700057D02*
X107985714Y-91652438D01*
X107985714Y-91652438D02*
X108080952Y-91604819D01*
X108080952Y-91604819D02*
X108319047Y-91604819D01*
X108319047Y-91604819D02*
X108414285Y-91652438D01*
X108414285Y-91652438D02*
X108461904Y-91700057D01*
X108461904Y-91700057D02*
X108509523Y-91795295D01*
X108509523Y-91795295D02*
X108509523Y-91890533D01*
X108509523Y-91890533D02*
X108461904Y-92033390D01*
X108461904Y-92033390D02*
X107890476Y-92604819D01*
X107890476Y-92604819D02*
X108509523Y-92604819D01*
X124458333Y-60309580D02*
X124410714Y-60357200D01*
X124410714Y-60357200D02*
X124267857Y-60404819D01*
X124267857Y-60404819D02*
X124172619Y-60404819D01*
X124172619Y-60404819D02*
X124029762Y-60357200D01*
X124029762Y-60357200D02*
X123934524Y-60261961D01*
X123934524Y-60261961D02*
X123886905Y-60166723D01*
X123886905Y-60166723D02*
X123839286Y-59976247D01*
X123839286Y-59976247D02*
X123839286Y-59833390D01*
X123839286Y-59833390D02*
X123886905Y-59642914D01*
X123886905Y-59642914D02*
X123934524Y-59547676D01*
X123934524Y-59547676D02*
X124029762Y-59452438D01*
X124029762Y-59452438D02*
X124172619Y-59404819D01*
X124172619Y-59404819D02*
X124267857Y-59404819D01*
X124267857Y-59404819D02*
X124410714Y-59452438D01*
X124410714Y-59452438D02*
X124458333Y-59500057D01*
X124791667Y-59404819D02*
X125410714Y-59404819D01*
X125410714Y-59404819D02*
X125077381Y-59785771D01*
X125077381Y-59785771D02*
X125220238Y-59785771D01*
X125220238Y-59785771D02*
X125315476Y-59833390D01*
X125315476Y-59833390D02*
X125363095Y-59881009D01*
X125363095Y-59881009D02*
X125410714Y-59976247D01*
X125410714Y-59976247D02*
X125410714Y-60214342D01*
X125410714Y-60214342D02*
X125363095Y-60309580D01*
X125363095Y-60309580D02*
X125315476Y-60357200D01*
X125315476Y-60357200D02*
X125220238Y-60404819D01*
X125220238Y-60404819D02*
X124934524Y-60404819D01*
X124934524Y-60404819D02*
X124839286Y-60357200D01*
X124839286Y-60357200D02*
X124791667Y-60309580D01*
X106033333Y-61984580D02*
X105985714Y-62032200D01*
X105985714Y-62032200D02*
X105842857Y-62079819D01*
X105842857Y-62079819D02*
X105747619Y-62079819D01*
X105747619Y-62079819D02*
X105604762Y-62032200D01*
X105604762Y-62032200D02*
X105509524Y-61936961D01*
X105509524Y-61936961D02*
X105461905Y-61841723D01*
X105461905Y-61841723D02*
X105414286Y-61651247D01*
X105414286Y-61651247D02*
X105414286Y-61508390D01*
X105414286Y-61508390D02*
X105461905Y-61317914D01*
X105461905Y-61317914D02*
X105509524Y-61222676D01*
X105509524Y-61222676D02*
X105604762Y-61127438D01*
X105604762Y-61127438D02*
X105747619Y-61079819D01*
X105747619Y-61079819D02*
X105842857Y-61079819D01*
X105842857Y-61079819D02*
X105985714Y-61127438D01*
X105985714Y-61127438D02*
X106033333Y-61175057D01*
X106985714Y-62079819D02*
X106414286Y-62079819D01*
X106700000Y-62079819D02*
X106700000Y-61079819D01*
X106700000Y-61079819D02*
X106604762Y-61222676D01*
X106604762Y-61222676D02*
X106509524Y-61317914D01*
X106509524Y-61317914D02*
X106414286Y-61365533D01*
X138383333Y-57559580D02*
X138335714Y-57607200D01*
X138335714Y-57607200D02*
X138192857Y-57654819D01*
X138192857Y-57654819D02*
X138097619Y-57654819D01*
X138097619Y-57654819D02*
X137954762Y-57607200D01*
X137954762Y-57607200D02*
X137859524Y-57511961D01*
X137859524Y-57511961D02*
X137811905Y-57416723D01*
X137811905Y-57416723D02*
X137764286Y-57226247D01*
X137764286Y-57226247D02*
X137764286Y-57083390D01*
X137764286Y-57083390D02*
X137811905Y-56892914D01*
X137811905Y-56892914D02*
X137859524Y-56797676D01*
X137859524Y-56797676D02*
X137954762Y-56702438D01*
X137954762Y-56702438D02*
X138097619Y-56654819D01*
X138097619Y-56654819D02*
X138192857Y-56654819D01*
X138192857Y-56654819D02*
X138335714Y-56702438D01*
X138335714Y-56702438D02*
X138383333Y-56750057D01*
X139240476Y-56654819D02*
X139050000Y-56654819D01*
X139050000Y-56654819D02*
X138954762Y-56702438D01*
X138954762Y-56702438D02*
X138907143Y-56750057D01*
X138907143Y-56750057D02*
X138811905Y-56892914D01*
X138811905Y-56892914D02*
X138764286Y-57083390D01*
X138764286Y-57083390D02*
X138764286Y-57464342D01*
X138764286Y-57464342D02*
X138811905Y-57559580D01*
X138811905Y-57559580D02*
X138859524Y-57607200D01*
X138859524Y-57607200D02*
X138954762Y-57654819D01*
X138954762Y-57654819D02*
X139145238Y-57654819D01*
X139145238Y-57654819D02*
X139240476Y-57607200D01*
X139240476Y-57607200D02*
X139288095Y-57559580D01*
X139288095Y-57559580D02*
X139335714Y-57464342D01*
X139335714Y-57464342D02*
X139335714Y-57226247D01*
X139335714Y-57226247D02*
X139288095Y-57131009D01*
X139288095Y-57131009D02*
X139240476Y-57083390D01*
X139240476Y-57083390D02*
X139145238Y-57035771D01*
X139145238Y-57035771D02*
X138954762Y-57035771D01*
X138954762Y-57035771D02*
X138859524Y-57083390D01*
X138859524Y-57083390D02*
X138811905Y-57131009D01*
X138811905Y-57131009D02*
X138764286Y-57226247D01*
X129583333Y-57609580D02*
X129535714Y-57657200D01*
X129535714Y-57657200D02*
X129392857Y-57704819D01*
X129392857Y-57704819D02*
X129297619Y-57704819D01*
X129297619Y-57704819D02*
X129154762Y-57657200D01*
X129154762Y-57657200D02*
X129059524Y-57561961D01*
X129059524Y-57561961D02*
X129011905Y-57466723D01*
X129011905Y-57466723D02*
X128964286Y-57276247D01*
X128964286Y-57276247D02*
X128964286Y-57133390D01*
X128964286Y-57133390D02*
X129011905Y-56942914D01*
X129011905Y-56942914D02*
X129059524Y-56847676D01*
X129059524Y-56847676D02*
X129154762Y-56752438D01*
X129154762Y-56752438D02*
X129297619Y-56704819D01*
X129297619Y-56704819D02*
X129392857Y-56704819D01*
X129392857Y-56704819D02*
X129535714Y-56752438D01*
X129535714Y-56752438D02*
X129583333Y-56800057D01*
X129916667Y-56704819D02*
X130583333Y-56704819D01*
X130583333Y-56704819D02*
X130154762Y-57704819D01*
X107708333Y-60534580D02*
X107660714Y-60582200D01*
X107660714Y-60582200D02*
X107517857Y-60629819D01*
X107517857Y-60629819D02*
X107422619Y-60629819D01*
X107422619Y-60629819D02*
X107279762Y-60582200D01*
X107279762Y-60582200D02*
X107184524Y-60486961D01*
X107184524Y-60486961D02*
X107136905Y-60391723D01*
X107136905Y-60391723D02*
X107089286Y-60201247D01*
X107089286Y-60201247D02*
X107089286Y-60058390D01*
X107089286Y-60058390D02*
X107136905Y-59867914D01*
X107136905Y-59867914D02*
X107184524Y-59772676D01*
X107184524Y-59772676D02*
X107279762Y-59677438D01*
X107279762Y-59677438D02*
X107422619Y-59629819D01*
X107422619Y-59629819D02*
X107517857Y-59629819D01*
X107517857Y-59629819D02*
X107660714Y-59677438D01*
X107660714Y-59677438D02*
X107708333Y-59725057D01*
X108089286Y-59725057D02*
X108136905Y-59677438D01*
X108136905Y-59677438D02*
X108232143Y-59629819D01*
X108232143Y-59629819D02*
X108470238Y-59629819D01*
X108470238Y-59629819D02*
X108565476Y-59677438D01*
X108565476Y-59677438D02*
X108613095Y-59725057D01*
X108613095Y-59725057D02*
X108660714Y-59820295D01*
X108660714Y-59820295D02*
X108660714Y-59915533D01*
X108660714Y-59915533D02*
X108613095Y-60058390D01*
X108613095Y-60058390D02*
X108041667Y-60629819D01*
X108041667Y-60629819D02*
X108660714Y-60629819D01*
X124989333Y-86465580D02*
X124941714Y-86513200D01*
X124941714Y-86513200D02*
X124798857Y-86560819D01*
X124798857Y-86560819D02*
X124703619Y-86560819D01*
X124703619Y-86560819D02*
X124560762Y-86513200D01*
X124560762Y-86513200D02*
X124465524Y-86417961D01*
X124465524Y-86417961D02*
X124417905Y-86322723D01*
X124417905Y-86322723D02*
X124370286Y-86132247D01*
X124370286Y-86132247D02*
X124370286Y-85989390D01*
X124370286Y-85989390D02*
X124417905Y-85798914D01*
X124417905Y-85798914D02*
X124465524Y-85703676D01*
X124465524Y-85703676D02*
X124560762Y-85608438D01*
X124560762Y-85608438D02*
X124703619Y-85560819D01*
X124703619Y-85560819D02*
X124798857Y-85560819D01*
X124798857Y-85560819D02*
X124941714Y-85608438D01*
X124941714Y-85608438D02*
X124989333Y-85656057D01*
X125846476Y-85894152D02*
X125846476Y-86560819D01*
X125608381Y-85513200D02*
X125370286Y-86227485D01*
X125370286Y-86227485D02*
X125989333Y-86227485D01*
X115786666Y-90704819D02*
X115786666Y-91419104D01*
X115786666Y-91419104D02*
X115739047Y-91561961D01*
X115739047Y-91561961D02*
X115643809Y-91657200D01*
X115643809Y-91657200D02*
X115500952Y-91704819D01*
X115500952Y-91704819D02*
X115405714Y-91704819D01*
X116167619Y-90704819D02*
X116786666Y-90704819D01*
X116786666Y-90704819D02*
X116453333Y-91085771D01*
X116453333Y-91085771D02*
X116596190Y-91085771D01*
X116596190Y-91085771D02*
X116691428Y-91133390D01*
X116691428Y-91133390D02*
X116739047Y-91181009D01*
X116739047Y-91181009D02*
X116786666Y-91276247D01*
X116786666Y-91276247D02*
X116786666Y-91514342D01*
X116786666Y-91514342D02*
X116739047Y-91609580D01*
X116739047Y-91609580D02*
X116691428Y-91657200D01*
X116691428Y-91657200D02*
X116596190Y-91704819D01*
X116596190Y-91704819D02*
X116310476Y-91704819D01*
X116310476Y-91704819D02*
X116215238Y-91657200D01*
X116215238Y-91657200D02*
X116167619Y-91609580D01*
X106767333Y-86306819D02*
X106434000Y-85830628D01*
X106195905Y-86306819D02*
X106195905Y-85306819D01*
X106195905Y-85306819D02*
X106576857Y-85306819D01*
X106576857Y-85306819D02*
X106672095Y-85354438D01*
X106672095Y-85354438D02*
X106719714Y-85402057D01*
X106719714Y-85402057D02*
X106767333Y-85497295D01*
X106767333Y-85497295D02*
X106767333Y-85640152D01*
X106767333Y-85640152D02*
X106719714Y-85735390D01*
X106719714Y-85735390D02*
X106672095Y-85783009D01*
X106672095Y-85783009D02*
X106576857Y-85830628D01*
X106576857Y-85830628D02*
X106195905Y-85830628D01*
X107719714Y-86306819D02*
X107148286Y-86306819D01*
X107434000Y-86306819D02*
X107434000Y-85306819D01*
X107434000Y-85306819D02*
X107338762Y-85449676D01*
X107338762Y-85449676D02*
X107243524Y-85544914D01*
X107243524Y-85544914D02*
X107148286Y-85592533D01*
X114044505Y-80642619D02*
X114044505Y-79642619D01*
X114044505Y-79642619D02*
X114282600Y-79642619D01*
X114282600Y-79642619D02*
X114425457Y-79690238D01*
X114425457Y-79690238D02*
X114520695Y-79785476D01*
X114520695Y-79785476D02*
X114568314Y-79880714D01*
X114568314Y-79880714D02*
X114615933Y-80071190D01*
X114615933Y-80071190D02*
X114615933Y-80214047D01*
X114615933Y-80214047D02*
X114568314Y-80404523D01*
X114568314Y-80404523D02*
X114520695Y-80499761D01*
X114520695Y-80499761D02*
X114425457Y-80595000D01*
X114425457Y-80595000D02*
X114282600Y-80642619D01*
X114282600Y-80642619D02*
X114044505Y-80642619D01*
X115568314Y-80642619D02*
X114996886Y-80642619D01*
X115282600Y-80642619D02*
X115282600Y-79642619D01*
X115282600Y-79642619D02*
X115187362Y-79785476D01*
X115187362Y-79785476D02*
X115092124Y-79880714D01*
X115092124Y-79880714D02*
X114996886Y-79928333D01*
%TO.C,R5*%
D12*
X124402064Y-72315000D02*
X123947936Y-72315000D01*
X124402064Y-73785000D02*
X123947936Y-73785000D01*
%TO.C,U1*%
X116075000Y-56365000D02*
X119835000Y-56365000D01*
X116075000Y-63185000D02*
X119835000Y-63185000D01*
X119835000Y-56365000D02*
X119835000Y-57625000D01*
X119835000Y-63185000D02*
X119835000Y-61925000D01*
X114795000Y-56465000D02*
X114555000Y-56135000D01*
X115035000Y-56135000D01*
X114795000Y-56465000D01*
G36*
X114795000Y-56465000D02*
G01*
X114555000Y-56135000D01*
X115035000Y-56135000D01*
X114795000Y-56465000D01*
G37*
%TO.C,D3*%
X118070000Y-69995000D02*
X117914000Y-69995000D01*
X120386000Y-69995000D02*
X120230000Y-69995000D01*
X118070000Y-72595961D02*
G75*
G02*
X118070000Y-70514039I1080000J1040961D01*
G01*
X118070000Y-73226437D02*
G75*
G02*
X117914484Y-69995000I1080000J1671437D01*
G01*
X120230000Y-70514039D02*
G75*
G02*
X120230000Y-72595961I-1080000J-1040961D01*
G01*
X120385516Y-69995000D02*
G75*
G02*
X120230000Y-73226437I-1235516J-1560000D01*
G01*
%TO.C,D2*%
X117476000Y-81104000D02*
X117476000Y-86614000D01*
X120776000Y-81104000D02*
X117476000Y-81104000D01*
X120776000Y-81104000D02*
X120776000Y-86614000D01*
%TO.C,J1*%
X93610000Y-67570000D02*
X93610000Y-82430000D01*
X93610000Y-82430000D02*
X94130000Y-82430000D01*
X94130000Y-67570000D02*
X93610000Y-67570000D01*
X94130000Y-68340000D02*
X94130000Y-67570000D01*
X94130000Y-68340000D02*
X102240000Y-68340000D01*
X94130000Y-82430000D02*
X94130000Y-81660000D01*
X102240000Y-81660000D02*
X94130000Y-81660000D01*
X107820000Y-72330000D02*
X107820000Y-73150000D01*
X107820000Y-74830000D02*
X107820000Y-75170000D01*
X107820000Y-76850000D02*
X107820000Y-77670000D01*
X107830000Y-68340000D02*
X105760000Y-68340000D01*
X107830000Y-68340000D02*
X107830000Y-70650000D01*
X107830000Y-79350000D02*
X107830000Y-81660000D01*
X107830000Y-81660000D02*
X105760000Y-81660000D01*
X109120000Y-70650000D02*
X107830000Y-70650000D01*
%TO.C,R3*%
X113185436Y-73260991D02*
X113639564Y-73260991D01*
X113185436Y-74730991D02*
X113639564Y-74730991D01*
%TO.C,Y1*%
X127990000Y-62890000D02*
X127990000Y-68110000D01*
X127990000Y-68110000D02*
X140710000Y-68110000D01*
X140710000Y-62890000D02*
X127990000Y-62890000D01*
%TO.C,J2*%
X152086000Y-84582000D02*
X152086000Y-56582000D01*
X152086000Y-87182000D02*
X152086000Y-85852000D01*
X153416000Y-87182000D02*
X152086000Y-87182000D01*
X154746000Y-56582000D02*
X152086000Y-56582000D01*
X154746000Y-84582000D02*
X152086000Y-84582000D01*
X154746000Y-84582000D02*
X154746000Y-56582000D01*
%TO.C,R2*%
X113174719Y-75265000D02*
X113628847Y-75265000D01*
X113174719Y-76735000D02*
X113628847Y-76735000D01*
%TO.C,R4*%
X121742564Y-75973000D02*
X121288436Y-75973000D01*
X121742564Y-77443000D02*
X121288436Y-77443000D01*
%TO.C,U2*%
X128390000Y-71390000D02*
X128665000Y-71390000D01*
X128390000Y-71665000D02*
X128390000Y-71390000D01*
X128390000Y-78610000D02*
X128390000Y-78335000D01*
X128665000Y-78610000D02*
X128390000Y-78610000D01*
X135335000Y-71390000D02*
X135610000Y-71390000D01*
X135610000Y-71390000D02*
X135610000Y-71665000D01*
X135610000Y-78335000D02*
X135610000Y-78610000D01*
X135610000Y-78610000D02*
X135335000Y-78610000D01*
X135810000Y-71090000D02*
X135340000Y-70750000D01*
X135810000Y-70410000D01*
X135810000Y-71090000D01*
G36*
X135810000Y-71090000D02*
G01*
X135340000Y-70750000D01*
X135810000Y-70410000D01*
X135810000Y-71090000D01*
G37*
%TO.C,C5*%
X126433252Y-81053000D02*
X125910748Y-81053000D01*
X126433252Y-82523000D02*
X125910748Y-82523000D01*
%TO.C,C3*%
X123265000Y-64661252D02*
X123265000Y-63238748D01*
X125985000Y-64661252D02*
X125985000Y-63238748D01*
%TO.C,C1*%
X105388748Y-62765000D02*
X106811252Y-62765000D01*
X105388748Y-64585000D02*
X106811252Y-64585000D01*
%TO.C,C6*%
X137865000Y-61111252D02*
X137865000Y-60588748D01*
X139335000Y-61111252D02*
X139335000Y-60588748D01*
%TO.C,C7*%
X129065000Y-60911252D02*
X129065000Y-60388748D01*
X130535000Y-60911252D02*
X130535000Y-60388748D01*
%TO.C,C2*%
X109265000Y-61036252D02*
X109265000Y-59613748D01*
X111985000Y-61036252D02*
X111985000Y-59613748D01*
%TO.C,C4*%
X126367252Y-83339000D02*
X125844748Y-83339000D01*
X126367252Y-84809000D02*
X125844748Y-84809000D01*
%TO.C,J3*%
X117120000Y-92630000D02*
X117120000Y-91250000D01*
X118500000Y-92630000D02*
X117120000Y-92630000D01*
X119770000Y-89870000D02*
X147820000Y-89870000D01*
X119770000Y-92630000D02*
X119770000Y-89870000D01*
X119770000Y-92630000D02*
X147820000Y-92630000D01*
X147820000Y-92630000D02*
X147820000Y-89870000D01*
%TO.C,R1*%
X108992936Y-83085000D02*
X109447064Y-83085000D01*
X108992936Y-84555000D02*
X109447064Y-84555000D01*
%TO.C,D1*%
X112976000Y-81104000D02*
X112976000Y-86614000D01*
X116276000Y-81104000D02*
X112976000Y-81104000D01*
X116276000Y-81104000D02*
X116276000Y-86614000D01*
%TD*%
M02*
