%TF.GenerationSoftware,KiCad,Pcbnew,10.0.0*%
%TF.CreationDate,2026-04-26T15:23:22-05:00*%
%TF.ProjectId,Atmega328_Coursera,41746d65-6761-4333-9238-5f436f757273,rev?*%
%TF.SameCoordinates,Original*%
%TF.FileFunction,Plated,1,2,PTH,Drill*%
%TF.FilePolarity,Positive*%
%FSLAX46Y46*%
G04 Gerber Fmt 4.6, Leading zero omitted, Abs format (unit mm)*
G04 Created by KiCad (PCBNEW 10.0.0) date 2026-04-26 15:23:22*
%MOMM*%
%LPD*%
G01*
G04 APERTURE LIST*
%TA.AperFunction,ViaDrill*%
%ADD10C,0.300000*%
%TD*%
%TA.AperFunction,ComponentDrill*%
%ADD11C,1.000000*%
%TD*%
%TA.AperFunction,ComponentDrill*%
%ADD12C,2.300000*%
%TD*%
%TA.AperFunction,ComponentDrill*%
%ADD13C,3.200000*%
%TD*%
G04 APERTURE END LIST*
D10*
X109982000Y-78486000D03*
X110000000Y-71600000D03*
X111500000Y-60500000D03*
X114600000Y-88800000D03*
X118600000Y-76800000D03*
X119126000Y-88674000D03*
X120000000Y-58000000D03*
X120000000Y-61000000D03*
X123500000Y-62500000D03*
X123800000Y-76800000D03*
X123886000Y-81788000D03*
X123886000Y-84074000D03*
X126400000Y-70850000D03*
X127792565Y-87177965D03*
X127800000Y-68600000D03*
X129200000Y-77800000D03*
X129200000Y-80600000D03*
X129350000Y-73000000D03*
X129400000Y-77000000D03*
X129540000Y-76200000D03*
X129692400Y-85699600D03*
X129794000Y-88646000D03*
X129800000Y-58600000D03*
X130810000Y-83312000D03*
X131600000Y-72200000D03*
X132000000Y-69000000D03*
X132400000Y-80400000D03*
X133200000Y-72200000D03*
X133223000Y-83439000D03*
X134798000Y-74600000D03*
X138600000Y-58600000D03*
X139800000Y-80600000D03*
X141300200Y-80086200D03*
X146000000Y-83200000D03*
D11*
%TO.C,J3*%
X122174000Y-90678000D03*
X124714000Y-90678000D03*
X127254000Y-90678000D03*
X129794000Y-90678000D03*
X132334000Y-90678000D03*
X134874000Y-90678000D03*
X137414000Y-90678000D03*
X139954000Y-90678000D03*
X142494000Y-90678000D03*
X145034000Y-90678000D03*
%TO.C,J2*%
X153416000Y-62992000D03*
X153416000Y-65532000D03*
X153416000Y-68072000D03*
X153416000Y-70612000D03*
X153416000Y-73152000D03*
X153416000Y-75692000D03*
X153416000Y-78232000D03*
X153416000Y-80772000D03*
X153416000Y-83312000D03*
X153416000Y-85852000D03*
D12*
%TO.C,J1*%
X104000000Y-68430000D03*
X104000000Y-81570000D03*
D13*
%TO.C,H1*%
X103000000Y-57000000D03*
%TO.C,H2*%
X103000000Y-91500000D03*
%TO.C,H5*%
X154000000Y-57000000D03*
%TO.C,H3*%
X154000000Y-91500000D03*
M02*
