%TF.GenerationSoftware,KiCad,Pcbnew,10.0.0*%
%TF.CreationDate,2026-05-07T17:00:01-05:00*%
%TF.ProjectId,Atmega328_Coursera,41746d65-6761-4333-9238-5f436f757273,rev?*%
%TF.SameCoordinates,Original*%
%TF.FileFunction,Other,User*%
%FSLAX46Y46*%
G04 Gerber Fmt 4.6, Leading zero omitted, Abs format (unit mm)*
G04 Created by KiCad (PCBNEW 10.0.0) date 2026-05-07 17:00:01*
%MOMM*%
%LPD*%
G01*
G04 APERTURE LIST*
%ADD10C,0.050000*%
G04 APERTURE END LIST*
%TO.C,R5*%
D10*
X122495000Y-72100000D02*
X125855000Y-72100000D01*
X125855000Y-74000000D01*
X122495000Y-74000000D01*
X122495000Y-72100000D01*
%TO.C,U1*%
X113525000Y-56175000D02*
X113525000Y-63375000D01*
X113525000Y-63375000D02*
X122325000Y-63375000D01*
X122325000Y-56175000D02*
X113525000Y-56175000D01*
X122325000Y-63375000D02*
X122325000Y-56175000D01*
%TO.C,D3*%
X116940000Y-69135000D02*
X121360000Y-69135000D01*
X121360000Y-73975000D01*
X116940000Y-73975000D01*
X116940000Y-69135000D01*
%TO.C,D2*%
X117376000Y-81114000D02*
X120876000Y-81114000D01*
X117376000Y-88114000D02*
X117376000Y-81114000D01*
X120876000Y-81114000D02*
X120876000Y-88114000D01*
X120876000Y-88114000D02*
X117376000Y-88114000D01*
%TO.C,J1*%
X93220000Y-67180000D02*
X93220000Y-82820000D01*
X93220000Y-67180000D02*
X94520000Y-67180000D01*
X93220000Y-82820000D02*
X94520000Y-82820000D01*
X94520000Y-67180000D02*
X94520000Y-67950000D01*
X94520000Y-67950000D02*
X102050000Y-67950000D01*
X94520000Y-82050000D02*
X102050000Y-82050000D01*
X94520000Y-82820000D02*
X94520000Y-82050000D01*
X102050000Y-67950000D02*
X102050000Y-66420000D01*
X102050000Y-83580000D02*
X102050000Y-82050000D01*
X105950000Y-66420000D02*
X102050000Y-66420000D01*
X105950000Y-67950000D02*
X105950000Y-66420000D01*
X105950000Y-83580000D02*
X102050000Y-83580000D01*
X105950000Y-83580000D02*
X105950000Y-82050000D01*
X108220000Y-67950000D02*
X105950000Y-67950000D01*
X108220000Y-67950000D02*
X108220000Y-70370000D01*
X108220000Y-79630000D02*
X108220000Y-82050000D01*
X108220000Y-82050000D02*
X105950000Y-82050000D01*
X109680000Y-70370000D02*
X108220000Y-70370000D01*
X109680000Y-70370000D02*
X109680000Y-79630000D01*
X109680000Y-79630000D02*
X108220000Y-79630000D01*
%TO.C,H1*%
X106450000Y-57000000D02*
G75*
G02*
X99550000Y-57000000I-3450000J0D01*
G01*
X99550000Y-57000000D02*
G75*
G02*
X106450000Y-57000000I3450000J0D01*
G01*
%TO.C,H3*%
X157450000Y-91500000D02*
G75*
G02*
X150550000Y-91500000I-3450000J0D01*
G01*
X150550000Y-91500000D02*
G75*
G02*
X157450000Y-91500000I3450000J0D01*
G01*
%TO.C,R3*%
X111732500Y-73045991D02*
X115092500Y-73045991D01*
X115092500Y-74945991D01*
X111732500Y-74945991D01*
X111732500Y-73045991D01*
%TO.C,Y1*%
X128000000Y-62650000D02*
X141500000Y-62650000D01*
X141500000Y-68350000D01*
X128000000Y-68350000D01*
X128000000Y-62650000D01*
%TO.C,J2*%
X151646000Y-56142000D02*
X155186000Y-56142000D01*
X151646000Y-87622000D02*
X151646000Y-56142000D01*
X155186000Y-56142000D02*
X155186000Y-87622000D01*
X155186000Y-87622000D02*
X151646000Y-87622000D01*
%TO.C,R2*%
X111721783Y-75050000D02*
X115081783Y-75050000D01*
X115081783Y-76950000D01*
X111721783Y-76950000D01*
X111721783Y-75050000D01*
%TO.C,R4*%
X119835500Y-75758000D02*
X123195500Y-75758000D01*
X123195500Y-77658000D01*
X119835500Y-77658000D01*
X119835500Y-75758000D01*
%TO.C,U2*%
X126850000Y-71670000D02*
X128250000Y-71670000D01*
X126850000Y-78330000D02*
X126850000Y-71670000D01*
X128250000Y-71250000D02*
X128670000Y-71250000D01*
X128250000Y-71670000D02*
X128250000Y-71250000D01*
X128250000Y-78330000D02*
X126850000Y-78330000D01*
X128250000Y-78750000D02*
X128250000Y-78330000D01*
X128670000Y-69850000D02*
X135330000Y-69850000D01*
X128670000Y-71250000D02*
X128670000Y-69850000D01*
X128670000Y-78750000D02*
X128250000Y-78750000D01*
X128670000Y-80150000D02*
X128670000Y-78750000D01*
X135330000Y-69850000D02*
X135330000Y-71250000D01*
X135330000Y-71250000D02*
X135750000Y-71250000D01*
X135330000Y-78750000D02*
X135330000Y-80150000D01*
X135330000Y-80150000D02*
X128670000Y-80150000D01*
X135750000Y-71250000D02*
X135750000Y-71670000D01*
X135750000Y-71670000D02*
X137150000Y-71670000D01*
X135750000Y-78330000D02*
X135750000Y-78750000D01*
X135750000Y-78750000D02*
X135330000Y-78750000D01*
X137150000Y-71670000D02*
X137150000Y-78330000D01*
X137150000Y-78330000D02*
X135750000Y-78330000D01*
%TO.C,C5*%
X124472000Y-80808000D02*
X127872000Y-80808000D01*
X127872000Y-82768000D01*
X124472000Y-82768000D01*
X124472000Y-80808000D01*
%TO.C,H2*%
X106450000Y-91500000D02*
G75*
G02*
X99550000Y-91500000I-3450000J0D01*
G01*
X99550000Y-91500000D02*
G75*
G02*
X106450000Y-91500000I3450000J0D01*
G01*
%TO.C,C3*%
X123025000Y-61650000D02*
X126225000Y-61650000D01*
X126225000Y-66250000D01*
X123025000Y-66250000D01*
X123025000Y-61650000D01*
%TO.C,C1*%
X103800000Y-62525000D02*
X108400000Y-62525000D01*
X108400000Y-64825000D01*
X103800000Y-64825000D01*
X103800000Y-62525000D01*
%TO.C,C6*%
X137620000Y-59150000D02*
X139580000Y-59150000D01*
X139580000Y-62550000D01*
X137620000Y-62550000D01*
X137620000Y-59150000D01*
%TO.C,C7*%
X128820000Y-58950000D02*
X130780000Y-58950000D01*
X130780000Y-62350000D01*
X128820000Y-62350000D01*
X128820000Y-58950000D01*
%TO.C,C2*%
X109025000Y-58025000D02*
X112225000Y-58025000D01*
X112225000Y-62625000D01*
X109025000Y-62625000D01*
X109025000Y-58025000D01*
%TO.C,C4*%
X124406000Y-83094000D02*
X127806000Y-83094000D01*
X127806000Y-85054000D01*
X124406000Y-85054000D01*
X124406000Y-83094000D01*
%TO.C,J3*%
X116730000Y-89480000D02*
X148210000Y-89480000D01*
X148210000Y-93020000D01*
X116730000Y-93020000D01*
X116730000Y-89480000D01*
%TO.C,R1*%
X107540000Y-82870000D02*
X110900000Y-82870000D01*
X110900000Y-84770000D01*
X107540000Y-84770000D01*
X107540000Y-82870000D01*
%TO.C,D1*%
X112876000Y-81114000D02*
X116376000Y-81114000D01*
X112876000Y-88114000D02*
X112876000Y-81114000D01*
X116376000Y-81114000D02*
X116376000Y-88114000D01*
X116376000Y-88114000D02*
X112876000Y-88114000D01*
%TD*%
M02*
